<mxfile host="65bd71144e">
    <diagram id="NaShmbrG1pqoMrWIJ8-R" name="Page-1">
        <mxGraphModel dx="2410" dy="2595" grid="1" gridSize="10" guides="1" tooltips="1" connect="1" arrows="1" fold="1" page="1" pageScale="1" pageWidth="850" pageHeight="1100" math="0" shadow="0">
            <root>
                <mxCell id="0"/>
                <mxCell id="1" parent="0"/>
                <mxCell id="114" value="" style="rounded=1;whiteSpace=wrap;html=1;fontSize=21;fontColor=#FF3333;imageAspect=1;absoluteArcSize=1;" parent="1" vertex="1">
                    <mxGeometry x="-170" y="-110" width="1160" height="1240" as="geometry"/>
                </mxCell>
                <mxCell id="2" value="" style="rounded=1;whiteSpace=wrap;html=1;strokeWidth=3;" parent="1" vertex="1">
                    <mxGeometry x="-97.5" y="97.5" width="1030" height="260" as="geometry"/>
                </mxCell>
                <mxCell id="43" value="" style="group" parent="1" vertex="1" connectable="0">
                    <mxGeometry x="320.005" y="-40" width="280" height="180" as="geometry"/>
                </mxCell>
                <mxCell id="3" value="" style="shape=image;verticalLabelPosition=bottom;labelBackgroundColor=default;verticalAlign=top;aspect=fixed;imageAspect=0;image=data:image/png,iVBORw0KGgoAAAANSUhEUgAABLEAAAPpCAYAAADqxb9AAAAACXBIWXMAABYlAAAWJQFJUiTwAAAgAElEQVR4nOzdCZAc9Z0n+n9WVXfr7BYCCQ/G6MAYLKEWIIEN6GTHrM3lOXwMC8web7ABM/ve89oeL5cZz9hjw+6GI3yMEY7YGQPjwd63OwZ8gCPMjccHDEiAzRgbBJjBiMFIIECou+tFtrrlVtPVdWVWZVZ9PhFNU1mZWVmZJanqW7//7x+Vy+UAAAAAAFlWcHUAAAAAyDohFgAAAACZJ8QCAAAAIPOEWAAAAABknhALAAAAgMwTYgEAAACQeUIsAAAAADJPiAUAAABA5gmxAAAAAMg8IRYAAAAAmSfEAgAAACDzhFgAAAAAZJ4QCwAAAIDME2IBAAAAkHlCLAAAAAAyT4gFAAAAQOYJsQAAAADIPCEWAAAAAJknxAIAAAAg84RYAAAAAGSeEAsAAACAzBNiAQAAAJB5QiwAAAAAMk+IBQAAAEDmCbEAAAAAyDwhFgAAAACZJ8QCAAAAIPOEWAAAAABknhALAAAAgMwTYgEAAACQeUIsAAAAADJPiAUAAABA5gmxAAAAAMg8IRYAAAAAmSfEAgAAACDzhFgAAAAAZJ4QCwAAAIDME2IBAAAAkHlCLAAAAAAyT4gFAAAAQOYJsQAAAADIPCEWAAAAAJknxAIAAAAg84RYAAAAAGSeEAsAAACAzBNiAQAAAJB5QiwAAAAAMk+IBQAAAEDmCbEAAAAAyDwhFgAAAACZJ8QCAAAAIPOEWAAAAABknhALAAAAgMwTYgEAAACQeUIsAAAAADJPiAUAAABA5gmxAAAAAMg8IRYAAAAAmSfEAgAAACDzhFgAAAAAZJ4QCwAAAIDME2IBAAAAkHlCLAAAAAAyT4gFAAAAQOYJsQAAAADIPCEWAAAAAJknxAIAAAAg84RYAAAAAGSeEAsAAACAzBNiAQAAAJB5QiwAAAAAMk+IBQAAAEDmCbEAAAAAyDwhFgAAAACZJ8QCAAAAIPOEWAAAAABknhALAAAAgMwTYgEAAACQeUIsAAAAADJPiAUAAABA5gmxAAAAAMg8IRYAAAAAmSfEAgAAACDzhFgAAAAAZJ4QCwAAAIDME2IBAAAAkHlCLAAAAAAyT4gFAAAAQOYJsQAAAADIPCEWAAAAAJknxAIAAAAg84RYAAAAAGSeEAsAAACAzBNiAQAAAJB5QiwAAAAAMk+IBQAAAEDmCbEAAAAAyDwhFgAAAACZJ8QCAAAAIPOEWAAAAABknhALAAAAgMwTYgEAAACQeUIsAAAAADJPiAUAAABA5gmxAAAAAMg8IRYAAAAAmSfEAgAAACDzhFgAAAAAZJ4QCwAAAIDME2IBAAAAkHlCLAAAAAAyT4gFAAAAQOYJsQAAAADIPCEWAAAAAJknxAIAAAAg84RYAAAAAGSeEAsAAACAzBNiAQAAAJB5QiwAAAAAMk+IBQAAAEDmCbEAAAAAyDwhFgAAAACZJ8QCAAAAIPOEWAAAAABknhALAAAAgMwTYgEAAACQeUIsAAAAADJPiAUAAABA5gmxAAAAAMg8IRYAAAAAmSfEAgAAACDzhFgAAAAAZJ4QCwAAAIDME2IBAAAAkHlCLAAAAAAyT4gFAAAAQOYJsQAAAADIPCEWAAAAAJknxAIAAAAg84RYAAAAAGSeEAsAAACAzBNiAQAAAJB5QiwAAAAAMk+IBQAAAEDmCbEAAAAAyLySSwQA5EEURZELlZxyuVzulOcCAHQHlVgAAAAAZF7kSzgAoJVUVOWbCi4AoF1UYgEAAACQeSqxAICmqKxiOiq3AICkqMQCAAAAIPNUYgEAU1JhRSup2AIAqlGJBQAAAEDmqcQCgC6l0irk7fl39Zs2lVoAgEosAAAAADJPJRYAdKgOqLTq9kqxVsv1m0KVWgDQ+VRiAQAAAJB5KrEAIKdyVGmloqqz5eLNpEotAMg/lVgAAAAAZJ5KLADIuAxXXDmubMrqm7tMHpcKLQDID5VYAAAAAGSeSiwAyIgMVVy16zi6vYIqa9r1JjETb05VaAFA9qjEAgAAACDzVGIBQItloOKqVY+voqs9Or2Cqq1vXlVoAUD7qMQCAAAAIPNUYgFASjq44ipv+6Uxab1JzNt+a3tS3lQDQOpUYgEAAACQeSqxACAhbai8Svrxsr6/tI6z2+SlEirr+5v+4L3JBoDEqcQCAAAAIPNUYgFAnXJccdWp+0n6+XWKrFYydep+anvy3nwDQMNUYgEAAACQeSqxAKCKFlZetbtSqtnHb/f2rTrOdmvVm7dmH6dd22et0mv6B/FmHABqphILAAAAgMxTiQUAY1Rctf1xkt4+b487rl1vzvJSOaVCCwC6lEosAAAAADJPJRYAXasFlVftqkRKu9Iq15VZ969ZOdgbRfPGb88tFddNvL8QRYsKISyaattiFK1N4hiGy+U7p1o+EsLWkXJ568RlLw4N3zH+/6+Vyy8cddcDm5M4hg6uvGp1pZbKLABoESEWAF1LiNWy9Rt9nJq3v+1tyxct7O1Z1FsoDPQVopXxslIUDYYQRsOq4p7/H2jy8bNm+3C5PBpoTQy/do2UH3htZGT7s6/t3rrhhw9tneaYhVjt3a6+g/OmHQCEWAB0jw4MrdJaP+n1mj3uvdVTc0rFwSiEecUoWhmFMFDY87u/wePoCuUQdoyUyw+U94Re8e8XXhoa3txEVVfaIVHS69W730bXT3r76XfuTTwAXUiIBUDXEGJlO8Qar6aKh/cVomigEMLKeGhfFMIhDT4ONSiH8ERcxTUSwgPD5fLWOOCqUsUlxGrN9tMfnDfxAHQhIRYAHSvDoVVewqdUjnNSWDXafyqpXlMkK+7dNT5UMe7NVcMQxYnSCo3yFoY1u11tO/emHoAuIMQCoGMJsVq2XsXHf3jtUetmFAuL+gqFwbiySljVEUZ7ccWVW7tGRjbvGBp+oMKwRCFWMtvVtnNv6gHoAkIsADpGiqFV3sKqtoRZ9544uHKgVFo5s1hYWwzRykIUVtS4fzpAXLU1XA6bXx0Z2bx9aOiBVXdvfqDGZ9XqUKorwi2hFgCdSIgFQMcQYiW+n4rrfXXlYQMnzJu7Lp4JsBRF61RYMYXRiq2hcvmOeMbEe1548Y4/fuDn26dYT4iVAiEWAJ1IiAVAbuU4tMpaWFV1P3Efq4Nn9K2Pq6zi0EqzdRoxUg5bhkP5gVeGR+586tVdt9fYX6tVoVS7hyk2u930O/WmH4AOIMQCILeEWOnt5/41Kwfn95TW9eypsloXQhio8ZihZvHMiHsqtUbueOKVXXdUCLWEWAkQYgHQCYRYAORGhkKrpNdv9/0qrciE8VArrtS654UXv1lh+OFkzYZTad9f7+M1u35tO/UhAIAcEmIBkBtCrGTvf3T9MafPLBbWjYVWg7U+GWiVcgijPbW27x66cdmd999R4WGFWA0QYgGQR0IsADIrh6FVs+ulGmZ977hliw+bNfP03kIUB1en1XiskAnlEHYMl8t3vDw8cuNjr7x6xzt+9PDjVY4rrXCq3cMOhVoAdC0hFgCZJcRq/v6H1x61bqCndHopis4wRJBOEldpvTYycuO/7h664ai7Htg8xVMTYtWzUx8KAMgBIRYAmdGBoVWj9ze130fWHX3GnFJxPLjqr7IvyL24l9bukfKNv9k9dOOKu+6/vcrzSSu8anXj+EbXr22nPiQAkEFCLAAyQ4jV2HZfXXnYwJr95p4xs1A43UyCELbvLpdvfGV45IY3337fjVOcDiFWLTv1IQGADBJiAdA2OQqt2jVMsOJ2cXB1wry5755VLJyuvxVMLe6jNVQu3/DS0PCNh9/xTzdUOU1Jh1cdEWoJswDIEiEWAG0jxKp/u7EZBc/oiaKzazwmYI/RCq3tu4euqTDToRBrqp35sABAhgixAGi5FMKrVodWSVdWTbu/LWuOWj+/t3S2HleQjPEeWr9+7bVrVt29+YEqO603pEp72KFQC4CuJcQCoOWEWNWX3/a25YsOmz3zQrMKQrriWQ53jYxcc9vzO6754wd+vn2KBxNiTdyZDw8AtJEQC4DUdXBoleh2X1lx6LwN8wfOmFMsXliIwooq+wYSNlQu3/Ti0PA1h9/xTze2MLwSagFAjYRYAKROiDX98ofXHrVuoKd0juGCkA1jDeG/+vOdr3xhww8f2jrpoIRYE3fmwwQALSTEAiBxXRha1b38KysOHfjd/eedM7NYuNBwQciu4XL5zp3DI9e++fb7rhk7yKQqtDoq1BJmAdAKQiwAEifEqrx8vOrK7IKQL3F11u6R8jWPvvzK56eozgpCLB8qAEifEAuAxCQYXnVU5ZVeV9BZUuqd1e5QyzBDADJPiAVAYoRY+y6fMMPgH+t1BZ2nHMITu0ZGPl9hZkMhFgAkTIgFQMPaOGwwq5VXo7e3rDlq3f69pTi8Oq3KcQAdYKwR/A0Pv/Typ97xo4cfr/CMujLUEmYBkCQhFgANE2Ltu/zR9cf8sSGD0N2Gy+Ubf7N76AvL7rz/jkknQogFAE0SYgFQtzYMG2x3aGWWQaAuNcxq2O5eWmmtN/2D+fABQBOEWADUTYgVwldXHjawcX7/n/YWCn+q3xVQSdw368Wh4U+9+fb7vjppFSEWANRJiAVAVTls2J5a5dX3jlu2aNmcWRf3RNHZVY4NYK84zHptZOSam5974Qt/suUX2+sIn7IyDLHe9abfiQ8hADRAiAVAVUKsvTMNXiK8ApoRN4F/bWTk87c+v+PzU8xoGIRYAFCZEAuAinI0bFDlFZAr42GWyqyxnfhQAkANhFgAVNTNIZbKK6AVVGaN7cSHEgBqIMQC4HUSCK9UXgHUoYbKrGZDqkZDq3o/LDT14UKYBcB0hFgAvE43hlgqr4AsmKYyS4gFQNcTYgGQpWGD9YZaTVdefWXFoQPvWrDflcIrIEviMOvFoeGPvvn2+64ZO6xWVWYZZghAZgmxAOjKEOurKw8b2Di//097C4U/jULor/K4AG1RDuGJF4eGP/Xm2+/76qTHF2IB0HWEWABdrIOGDda13uMbVl04s1i4RHgF5MVwuXznc68NfWrFXfffMXbIjYZSrW4AL8wCIDFCLIAu1m0h1iPrjj5jXk/pyiiEQ6ocD0AmxWHWgy+9/IF3/OjhxycdnxALgI4nxALoQhkIr1paebVlzVHrDugtXVyMorWVDxUgP3aXy9d+Z9tvPjo2k2GoIazKSgN4jd8BaJgQC6ALdUuI9b3jli1eNmfWxZq2A51ofCbDN91676eEWAB0AyEWQBdoYeP2pIYNNrre3ttPblx1sabtQDeIm78/u2v3B8b6ZSU9rNAwQwAyQ4gF0AW6KcR6ZN3Rp+t7BXSjuF/WIztfOXfDDx/aOsXTF2IBkHtCLIAO1oHDBitu973jli06cs6sTfpeAd1u18jIp25+7oUvjPXLavcshoYZApAYIRZAB+uGEOurKw8b2Di//0/7CoWLqx8mQHeIhxi+sHvoo4ff8U83THrCQiwAckuIBdCBWhBeZaL3VTzr4MK+nk2GDgJMLR5i+OBLL3/gHT96eHyIYdoN4IVZAKRGiAXQgTo9xIpnHVw+Z9aVpSg6rcpxAHS9Fs9iKMQCIDVCLIAO0AXDBvfefnzDqgtnFguXmHUQoD4j5bBl22u7Pzo2i+G4ekOtZkOupO6viVALoLMIsQA6QDeEWPeeODh4UF/vlRq3AzTntZHyF7/73G/+ssbG70IsADJDiAWQYzkKr5oaRvjkxlUXa9wOkJy48fuzu3Z/YEJVlmGGAGSeEAsgxzo9xLr3xMGVb+zru7oQhRW1HSYA9dhdLl/7nW2/+eifbPnFC5M2E2IBkDlCLIAcymDj9sR7X6m+AmiNuPH7C7uHzj38jn+6ccIDNjvMsNHQKtVhhsIsgHwTYgHkUCeHWHHvK9VXAK03VC7f9O1tvzk3oV5ZQiwAEifEAsiRNoZXjYZUta6n9xVABsRVWc/u2v2+HPTKEmYBdCEhFkCOdGqIpfcVQLZMmMEwq72yhFgAXUiIBZADTYRXWWncXvH24xtWXTirWLiixuMEoEXiGQyfenXX+1bdvXnzhEds9TDDVBu/C7MA8kWIBZADnRhife+4ZYuOnDNrUzGK1tZ4jAC0wa6RkU+96dZ7PzX2yEIsANpGiAWQYSmGV22dffCRdUefPq+ndHUUQn+V4wAgA0bKYcuWl3a+7x0/enjr2NGkFV4JswCoSIgFkGGdFmJ9ZcWh8961YL8re6Lo7CqPD0DGxE3fXxwa/uibb7/vGiEWAO0gxALIkBw2bq/59r0nDg5q3g6Qf6+NlK/77nO/+cifbPnF9glPpjzp92RJhV5J3T/9zn1IAsgkIRZAhnRqiKV5O0BniYcX/mrXrnMnNH0XYgGQOiEWQAZ0anj1lRWHDpyyYL+rS1F0WpXjAyCHXh4e+dji2+79woQjz1rjd2EWQAcRYgFkQCeGWPHwwYNn9H09CuGQKscGQI4Nlcs3fXvbb84dG14oxAIgNUIsgDbq1AqsR9cfc05/qXhVlWMDoENMM7wwJHS70n6qLa/1/uk39qEJIBOEWABt1GkhltkHAbpXwrMXCrEAeB0hFkAbZCi8MvsgAImKZy88+NafnDtpn5UavyfVCL7a8kbX23fnPjwBtJUQC6ANOi3EemTd0afP6yldHYXQX+W4AOgC8fDCm7Y9f/JYn6wgxAIgCUIsgBZqIryqdbuWV2A9uXHVxX2FwsU1Hh8AXSIeXvjUq7tOntAnK6QwzFCYBdBFhFgALdRJIdZXVhw6cMqC/a4uRdFpNR4bAF1ox9DwB8f6ZAUhFgDNEGIBtECK4VVbZh/84QmDKxfN6Nuk/xUAtdhdLl/7xu//5AMTVu2Ixu/CLIDWEmIBtEAnhVhb1hy1bmFfz9f1vwKgHpP6ZAmxAKibEAsgRR0QXu2z/NH1x5zTXypeVeXYAGBK5RCeePyVXe9/2z2bHxi7X5gFQM2EWAAp6qQQ61cnrd7UE0VnVzkuAJhW3PD9hd1D5x5+xz/dKMQCoB5CLIAU5DC8qrhe3MD91AX7fb0YRWurHBsA1Oyl4eE/W3rbfZ+ftH6lkEqYBYAQCyANnRJife+4ZYtWzJn9dQ3cAUhDHQ3fhVgACLEAkpTB8KrhRu73njg4ePCMvls0cAcgTcPl8p3f2vab9401fB+X9DBDYRZAByi4iABMFjdwF2AB0ArxcPXTFsy/Ja7+dcIBmI5KLIAEZKACK7HbZiAEoB3ihu9Pvbrr5FV3b9484eFVZAGwl0osAPaKZyAUYAHQDnH1b6n/je/d+Bfbbz7hIw8NuggATKYSC6AJHVSBFT21cfWm3kJ0VpXjAoBU7CzNCf/5+Ou27uzpHx1WOPTqjg/e8RcHXTP2WCqyABBiATSjE0Ksr6w4dODUBft9Pe5JUuWYACAVcYD1yWM+F7bOOXSf3U8IsoRYAAixABrRKRVYX1q+dN4fHLj/zYUorKhyXACQikoB1rjh3S9/+vbLF/7l2E1hFkAXE2IBNKBTKrDi2aAEWAC0S7UAa1x5ePe1t1623weEWADdTYgF0IAGQqx2h1f7LP/hCYMrF8/suzluolvluAAgFbUGWONGhl+77rbL5p87aXF50u/Jyxu9XWm7eu+feiMfwgAaYnZCgC5z74mDgwIsANqp3gArVij2nrXxk7/Z5MIBdC+VWAB1UIEFAM1pJMCaqFwe2bLtoW+e/ODXztk+cfGk35OXN3q70nb13l/hufgwBlAPlVgAXUIFFgDt1myAFUa/UCqsWLD83bcceeY1Ay4oQHdRiQVQg7xXYG1Zc9S6hX09XxdgAdAuSQRYE6nIAug+KrEAOtyj648558C+nu8KsABol6QDrKAiC6ArqcQCmEbeK7DiAKu/VLyqyjEBQGrSCLAmqlKRNfl2JiuyVGIB1EYlFkCHEmAB0G5pB1hBRRZAV1GJBTCFBiqwxtVaaVVpuQosADpCKwKsiVRkAXQ+lVgAHUaABUC7tTrACiqyALqCSiyACVRgAUBz2hFgTaQiC6BzqcQC6BD3njg4KMACoJ3aHWAFFVkAHU2IBTBWgdVgFVZUodqq1uWN3t5nux+eMLjy4Bl9t7iWALRLFgKscVMEWZX+vW323+Vqyxs8/obflwB0NCEWQM7FFViLZ/bdHIXQ71oC0A5ZCrDGqcgC6DxCLIDG1PuNa7X1a/3md8oKLAEWAO2SxQBr3GiQtez0qycualNFVkOVWiqyAPYlxALIKRVYALRblgOscVGhdNrGT/5mUzaOBoBmCLGArtbAN5zNVlRNXt5QBdaXli+dpwILgHbKQ4A1Lir2nL3hk89PV5FVabmKLIAMEWIB5MxXVhw68AcH7q8CC4C2yVOANa5Q7D1LRRZAvgmxgK7Uggqsaus1XIF12oL5txSisMIrF4B2yGOANS6uyFp36dPnTFyUUE+spHtlAjAFIRZAjvz+gfOvF2AB0C55DrDGlWb0XzUpyAIgJ4RYQFdJoadEoz01qq33uuVPbVx9dTGK1iZ47ABQs04IsMbFQdbaix4/Y8KiRiuyJmt2/WnpjQV0OyEWQA48tXH1pt5CdJZrBUA7dFKANa5n1v6bTvjIQ4PZOBoAaiHEArpCE99cNjvrUM2VVpX29+j6Y84RYAHQLp0YYI2Kov4Z8w65ZfV53188cWkzvSunezQVWQDNE2IBZNij6485u79UvMo1AqAdOjbAGhdF/XMPXn39kWdeM5CNAwJgOkIsgKmlVYFV63bRD08YXDm3VLzS9QGgHTo+wBoTRYUVC5a/+5ZmK6cbXK/JY1eRBXQXIRZABn1n9VsXLZ7Zd3MUQr/rA0CrdUuANS4OsjZ88vlN2TgaACoRYgEdrYFvKOv9hrTeCqxq3+xGX1q+dN7R/XOuF2AB0A7dFmCNKxR7z1p/+bOX1PvvdkKV2NWWA3S9IMQCyJ7fP3D+9YUorHBpAGi1bg2wxhV7Zl207tKnz87G0QAwmRAL6EgpVGA1WnE1+fa0y5/auHpTMYrWelUC0GrdHmCNK83ov+r4D29e2aLemJWYrRBgCkIsgIyIZyLsLURnuR4AtJoAa18z5y+5efV531+UpWMCQIgFdJgUvolMukfW5OWjP1vWHLW2v1S8KoHjBYC6CLCmEEX9cw9eff2y935lXsI9seqt0FKRBTCBEAugzX54wuDgwr6er7sOALSaAKuyeMbCAwffY8ZCgAwRYgHdrtlZg+pdb5/lX1q+dGDRjL5NZiIEoNUEWNVFhdJp6y9/9uIEZimcrNmeWdNSkQV0KiEWQBv93oHzN5mJEIBWE2DVLp6xcO1Fj5+el+MF6GRCLKAjpDAbYbX1G5p9cOLyrRtWXVKKotO8AgFoJQFW/Xpm7b/p+A9vHpzm3/Vxtb4PqKTeCnGAriLEAmiDn649+vSZxcJFzj0ArSTAalAU9c+Yv3jTsvd+ZSCXxw/QIYRYQK6lUIGV1KxCFZf/8ITBlfN7SxrFAtBSAqzmVGj0Xm9PrKbfR5itEOhmQiyAFtLIHYB2EGAlY7TR+2XPXNgJzwUgj4RYAHsk1SNr2uVnLJx/pUbuALSSACtZxb45n13z8UfX1dn7qtHK7kpUZAFdSYgF0CK/3HDMhb2F6CznG4BWEWClo3fOgV/XHwug9YRYQC4l2Aur2dmFqm0fjfXBGpxTLH7Wqw2AVhFgpSiK+g8cfM/Xa30fMMXySpqt0ALoaEIsgJTFfbAWz+y73nkGoFUEWOmLCqU16y9/9uJOf54AWSLEAnIlhdkIq63fbKVW+L0D58eN3A/xSgOgFQRYrVPsmXXRiR97ZN107wPG1Py+oQKzFQJdLwixANIV98EqRdFpTjMArSDAar2+/oOu1x8LoDWEWEC3qneWoLp7XvzwhMGV+mAB0CoCrDYZ7Y/13sltAxrtpVltvUpUZAFdQYgFkAJ9sABoJQFWe0WF4lr9sQDSJ8QCcqEFsxHWup+ael6csXD+lfpgAdAKAqxsiPtjHf/hzSsbed/QxG2AriLEAkjYT9cefXpvITrLeQUgbQKsbJk5f4n+WAApEmIBmdaCCqxaK61q6ol1w6ojFs/vLW3yqgIgbQKsDIqiQw4cfM+mRnppJtQDS28soKMJsQAStHpgzlVRCP3OKQBpEmBlV1Qonbb2osdP7/bzAJAGIRbQrZqdLeh162/dsOriUhSt8YoCIE0CrOzrmbX/pmPOvWVxEz2xzFYIMAUhFkACfnjC4ODMYuEi5xKANAmwciKK+gcOOe6qbj8NAEkTYgGZlKHZCGtavmhGnz5YAKRKgJUvUaG0Zv1lz1w46aAb7b1Z622AjibEAmjSUxtXX1GIwgrnEYC0CLDyqdg7++LjP7x5sNvPA0BShFhApiRYgVXr+tW+EZ12+f1rVq7rLUQf8ioCIC0CrByLov4Z8xfXMlthrcsrMVsh0BWEWAAN+tLypQO/09er3wUAqRFg5V8UFVasv/zZi7v9PAAkISqXy04kkBkNfPtXaf3Jy2u9XWm9190fDyNUhQUdZtbsEBYvHX1O0YIDQ4h/xkTLV77uuUYL911nOuWHNr/+3m2/DuVnn9l7s/zw2Do7d4aw9ZdeXV1OgNVZXt72zyf84+eOeWDsSZUn/Q5NLq90e7KaPvyVfUgEMqrkwgDUb8uao9YKsCCHFiwcDZ2ixYeOBVaHhjB79usCq6k0O8ImWl6hLc6Ez4pTPcLeYOvxX4aw86XR3+WXXwrh4S1egR1MgNV5Zh7w5rh6++3dfh4AmqESC8iEFCuwKi2vu/Jq/HY8jPAP37D/P0YhHFLH8QKttGBhiBYdOlpVFS2JA6s5lUOkJlX76yvV91qjlVy/DuHxX4Ry/P+P/0K41QEEWJ1rePfLn7798oWfmvAEJ1dk1VuZVevtSutNS0UWkDVCLCAT8hRibd2w6uKZxcJFdRwrkKY4sFo2uKeqKg6tlu0bVqXdo7itIValxxkNtH65J9yKK7kEW7khwOpw5fKOHU/9+O0/+fJJW8eeqDq+qLkAACAASURBVBALoA5CLCAT6gixqq2XVO+rKZff/fYVKw+bPeOebJw16FLLVowGVXGPqijuXzV7Tk3noVMn3Kr1vdxolVY8FPGhB/YEW9ueTf3YqI8AqzuUR4buuvXSef927MlWC60aDbUaXT71TnxoBDJCiAVkQl5CrGdOOvYfC1FYkY2zBl1iLLQKywf3qbKqN5Tq9hDrdevH1Vpxs/mHNwu1MkCA1V2Gd730Z7d/8g1fEGIB1EeIBbRVnmYjNIwQWmTR0tH+VaM/x55Q9TG7NcxqOLyqJA61fnTPaLBV/skPEj9eKhNgdaFyece/3HfNW3/6vy94YezJ1xpaGVYIdDUhFtBWeQmxvrP6rYuOGZgTN3Pvb+8Zg84UrT5+T6XVscfvnSWw1r8ehFjJrj++XvnHP9hTpfXje1RppUiA1b3KI0M33XrpvPePnQAhFkANhFhAWyUwjDD1Ru7xf54+afXNpSha096zBZ0lDqziSqvR4GqKvlZJh1idNpww7RBrn2Vxg/jbvifQSpgAi9defOadd33mzXdOOBEavQNMQ4gFtFUeQqyfrj369P17S3/f5lMFHWG04mo8vJozfUN2Idb0Whli7XP/Y78I5dsFWs0SYDGqXH7imQeuf/vD3/iT7eNLKvwONS6v9Xal9aYlxALaTYgFtEVehhF+7q1L5p150AE/NYwQGhfFjdk3nNxwxVWz99e7v7xIOsRq5P7RCq1v/cOeQOvlnR1xXltBgMVEw7tf/vTtly/81NiiRiuwWtLoXYgFtJsQC2iLvIRYT2xcdeWMQuGC9pwlyLEFC0O0/h0h2vCOEC18w7TPQ4jVmCyEWBON3HpLCD/+gabwVQiwmMqOJ3+07CdfPmmrEAtgekIsoKVSDK8mL296OOEPTxgcXDKzz6cxqEO0/ndDdNwJU84qWOmPvxCrMa0Kserebtuvw0jcP+u2Www3nESARSXlkaG7br103junGU5oWCHQ9YIQC2i1PIVY/3LS6u8Wo2htfYcLXWhC1VU8s2C9YZUQqzGZDbEmLI9nOCx/+/+E8PCWOo60MwmwqOa1l549866/WnrD2GpCLIApCLGAlmrDMMKGlv/z+qPPmVcqfdmrAyrb2+sqDq8mEGK1RlKN2qutl0i4FVdnff3aru2dJcCiJvs2ea8WWhlWCHQlIRbQUnkIsb60fOnAH75h/59p5g5Ti4cMhg3vCIXlK6e+X4jVErkKscbtfCmMfOv/hPK3/6FrwiwBFvWY0ORdiAUwBSEW0BJ5aeQe/966YdVFM4uFi+o8Xuh48ZDBwvvOHh0yuM8fpkl/vJMOq2r96yPp9bIq6WGE1dZLa3n5tu+FkW9c09F9swRYNOKFx+9Zft/VJz8+tmlajd4NKwRySYgFtEReQqwbVh2x+O3z5j7UmrMCOTBrdohO+b0QnfL7IZozZ8rjFWK1VqeEWOPiWQ3L/+vajguzBFg0qjwydNOtl857/9jmQiyACYRYQEvUEWI12sh98u2aG7hPvP30SatvLkXRmtacFciwOLw69fdD4ZTfC2H2nvAqqWGCSQ83rHe9RtfPilY1dK92f9LLO6kyS4BFs3Zt/9W77r7i8DvNVgiwLyEW0BJ5CLG2rDlq7YF9Pd9t0SmBbJqm8kqIlQ2dGmKNy3tllgCLJJTLI1tuvaT/eCEWwL6EWECqMjSMsOr9z5x07A8KUVhR5/FCx5jc86rWUKlVYVVSDd41dk/m/maXV9s+j5VZAiySNPTKC+fd8ZcHXzO2y7QavQuxgFwRYgGpykuI9c/rjz5nXqn05XTPBmRTtPr4EP2HD4Zo4Rv2/UMixMq0Tg+xRuVoNkMBFokrl3c888D1Rzz8jT/ZLsQC2EOIBaQqw8MI9673peVLB/7wDfv/LAqh36uBbhItWxGi954TouWDo8+60dAqbyFWo+tnRd6GEyayXhxmfePaPWFWBgmwSMvw7pc/ffvlCz9tWCHAHkIsIFV5CLG2blh18cxi4SKvBLrGgoUhes/ZobDx5H2esRArH7oyxBq37ddh+Iv/LYSHt0x7zK0kwCJV5fKOF7b+4Pj7rj758bGHEWIBXU2IBaSiDcMIG1r+ubcumXfmQQf8VBUW3SJ679l7ZxxMO7TKeojV7HatlnR4VW29pMKtRtebbrvyj+8JI3/z5bb3yxJg0Qojw69dd9tl8z8w9lBpDStsdPm+G/twCaRMiAWkIi8h1lMbV2/qLURnpXMWIEOWrQjFD31kb9P20ILKKyFWsoRYk5bHQwy//Q+h/I1rpz3OtAiwaKUdT/5o2U++fNJWIRbQ7YRYQCpaMIyw6eGEN6w6YtHb5819yCuAjjZrdih86L+E6NgT9j7LekOqpMOptEKsetdLa/ukNPseLa0Qq13DCyve3vbrMPLF/xbKLRxiKMCi1cojQzfdeum8P2ogtDKsEOgoBZcT6FbH9M/RB4uOFq3/3VD4wt/uE2BBx1lwYChcfmUo/PsPjoa2aRNg0Q5RoXTaiR97ZK2TD3Q7lVhAovIyjPDut69YedjsGfck++whIxYsDIULPlJx1sG0Kq+aXS+p+2vdT6OS2m9a78GarcCqdn/mKrEm3o6HGH7pv4fyj38w5WM0S4BFO5VHhu669dJ57xw7hGqzFRpWCHQkIRaQqLyEWE+ftPrmUhStSfbZQ/tFp/xeKLz37NHG7Xtf/EKsRAmxMhxijf9/3Pj9i/89hJd3TvlYjRBgkQW7tv/qXXdfcfidQiygWwmxgETloRfW/WtWrj2or/c7rjwdZVL1VUghvEq7V1a15Y2uV+9+8ybphu+Zb+he6+2XXkysKkuARVZMqMbKdG8sIRaQFj2xgK6zsLfnYledThKtPj4UPvulfQIs6Hqz54TCRz/RdK8sARZZEhVKa/TGArqZSiwgERkcRjjl/fevWblOFRYdY9bsEF3wX0LhuD2N27NaedXo8MC0hw3mtTIr6cqrWtevt0KrFcMGa74dz2B4xZ+H8tZfTvscJhNgkUV19sYKdd4/mYosIFNUYgFdRRUWHWPR0lC44oshOvZ41xSqiWcwvPJLIYr7xdVIgEVWxdVY6y55qvYXM0AHUYkFJEIvLGid0ebt/+G8377oG6yganeD92rL016vXmntN+sN3qutl3Sj97Rvjzz4QBi58s+nbfouwCLzyuUnvn/J3GUJNHTXGwvIFZVYQNdQhUXuxcMHP3LZPgEWUJ+4d1zxi38bomUrptxOgEUuRNEhqrGAbqQSC0hECpVYemHBRIuWhuLHPjE6LGpcqyquWjUrYVL3N7rfvGr0vVyrZimsd3lat6fa78jffDmUv/0Pe5cJsMiTNvfGqusvHhVZQFJUYgFdQRUWeRat/93R/lcTAyygeXFVY+Gjl+2dvfC/D/6lAIvcMFMh0I1UYgFN0QsL0hWd/+FQ2Hjyvi/2hCuu2lV51WxFVrPr1ytvPbEa3X+rKrSS7pnVTAVX+fFfhOFPfDQ8Xvid8NfLPi7IIjcmVGMlXYGlNxaQSUIsoCl5CLGePmn1d0tRtMaVJldmzQ6FT1wRwuKlqYdRQqz27l+IVd96aYRYE2/v3BXCFTf3hIefNmCBfNi1/VfvuvuKw+8YO1ghFtDRhFhAU7LeC+uGVUcsfvu8uQ+5yuTKoqV7hjiNDR+sFjZlpTdW0str3W+t9MRqbvu0e2S163alx/3iraVw2yPFms4NtFOLemM1FWLtXdmHT6BJvmICOtox/XMucoXJldVv31OBpf8VtNWHNg6F/3DCkItA5sW9sd7+/9w36EoB3aDkKgONSHEYYVLbRTesOmJRbyE6q8bjhLaLG7hHF/yX376Ym6x0SrpSq9r2jR5nvfcnvV3eVXve1QofKm0/ebtq602+v97lrVLr48frnTo4HGb37anKgiybMX/xh0IIH5zmEMdf8JX+Qph8f7Xbte4XIFEqsYCOpQqLPInO/3/3CbCAbNhw+HC4/IzdYVavC0J2FYq9Zx1z7i2LXCKg0+mJBTQk672wPvfWJfPOPOiAn0Yh9LvCZF0cYIX172i491Wre2U1u1699ze7fr2yUtHVqvdorWr83qqG72k1hn9sWwifuKE3vPzalIcHbTcy/Np1t102f7waq1pvrGo9siYvr3S72vKpV/YhFGiQSiygI/3+gfM/JMAi82bNDtFnvjAaYAHZtviAcvjzM15TkUVmFQo9p7/1D7404AoBnUyIBdQlGtPEWYtq6GvVyHbRxJ8ZxcKFTRwjpC8OsC77bAiLl45W/kz1xyqt5eO3Ky1vdrtal1fartJ61davdz9J7T8trTruevdXbb1qr5Nqy5N6fda731rWW7IgjAZZi/dXREIGRVH/wsH3fKjKgUWTfirdX+vtSusBpEKIBXScf15/9NmqsMi0CQEWkC9xRdblgiwyqlia6Us8oKMJsYC01PqNXLVv/Kqt/zr9xVK1byGhfRYtCdHn/2bKAKvVFVmVltda2VNrpU2t+02r4qpbJF2p1e7KrGrXtRWVV5WWz5kRCbLIpijqX3fJU2dPUXHV9PsrgCwQYgEd5f41K9cWorDCVSWTFi0JIa7Amj3b9YGcm90XBFlkUnFGvy/zgI4lxAKyqtaeDfv8HNDTo4yebBoPsGb9NsDKSuVVNY1WatW6ftqVQkx9vhq9jvVWXtVbgVXr9vXebrZCa6ofFVlkURQVVpz4sUfWVjm0tvbGSqDHKtClhFhAx7hh1RGLegvRqa4omTNFgAV0BhVZZFHPnAVnuzBAJxJiATWp4xuzpL/Rq/X+cFT/bOXzZM+EACupiqG0KrIarbhqtOKr2UogkpF0hVa917veiqtmf2rdX63HN7Eia8FcQRbZUCj2nnXMubcs0hsL6DQlVxToFH2Fgm8dM6R0yEv7HEzPopded3CFgddGfxox/OuZobyr+Lotd2+ds/f/4/vj9dpm0ZJQvvQzIVKBBR0vrsj62L/dHT5xQ294ubG/1iBRc9941FkhhE87q0Anicpl3xgB1dXRt6DSepOXV7pdbfmUv/95/dFnzyuVvuxSpiuaMRyKC18ZfYzxUKp44Csh6hse/f/JwVWWTAy0Rrb37vl59bfLhp6Yk+zRxsHVZz4fwoID9y6a/Mdo/Hajy5PaX1K3K+2n3vubXT8pWav2ysp7tnqPo9r6le6vdXlStyvtp97lj20LgiyyoVze8f1L5h40dizlKr9DhfurLZ98f6Xb0yr7UArUSIgF1CTrIdYzJx37A7MSJmO8Omo8pIqDqYnhVaeLw6zxwGs4Drpe6A3Dz84M5VdfX/VV0azZoXzpX4Vo8aH7rCHEqu3+ZtdPihBrakKs6ssffy4SZJEJQ6+8cN4df3nwtUIsoFMYTghMK4Xwqt7tqj7+3W9fMSjAql8cVMVVVKUDXxn9PXq7S4Kq6YxXk/Uctv11a8UB13gVVzxsccpwayzACouWJnZM3dr/qVXPOy/nt9bjTPuz4OTjqPZ41davdH+15ZXWq1Wtj9PI8iULQviPJw6FL97qrTbtVeybE7dauHaKg5j8B2fyH+SozuWV9i+cAhLlX1Yg9xbN7NPQvYriWFBVWjj2O8PD/rJs4nmbsWbP7/GqraGXl4ahQ98Zhg5aG8pvSC7AAvJpw+F7hlkLsminqFBaEzd4v+/qkx93IYBO4F9VoNWardja5/fn3rpkoKcQne4q/tZ4hVXPIS8JrFog7gcWn+NS2BxC/LPtilB+fm7YPfuEMDJz+ejvoTnH73MgZtZrr04//5WeX1oVWu2qzJqsWqVWs5Vb1Uy1/41HjITHnhsO395Sx3BkSFj/G4+Ov+z72OQ/MhUepS0VVOOV/4YVAtUIsYBcO2XhvNOjEPq7+SqOV1nFoVUcpjQ62x/JiYZfDL07bg5hx81hRvgfo/sdnrEsDM05YfRneO6JoVzs6pctdI14WGHcG+u2RwRZtEehNOPsKUIsgFzS2B2YUh29sMbV29A9kcbu3djQPQ6pSoteCr1v2b6n6frYzIDky/DM5XsCrdFQ64RQLg7sPf60Gri3qpF71hu7q4TbV9rvBWvdf1IN4Nvd6H2q+3fuCuET3+wJj/+r1x7tUUOD91BhebWG7bU2dK/pLwKVWEA1QixgSnkIseKG7ofNnnFPp1/BeGbAOKwaD61UWnWm0VBr4F2jgVZcqRWEWA2v3+r95Z0QK/0QK/bSq+VwwXV9ZiykLcojQ3fdeum8dwqxgLwTYgFTSmFWwmZDq9fd/8TGVVfMKBQu6MQrGAdVPW/Zvje4orvEQw2H5r0rjMw9cfT3eJVWu0OtZter9/5a91MvIVZt0nqPmFao1WzI1Yow6/HnonDZN3sEWbTFC4/fs/y+q0/eOvbYlcKqWsOtycsr3a62fN+VfDgFqtATC8itvkLh7E66enFfq74Vz4+GV6qtuls0vCP0/Ov1Ifzr9aEvhD0N4g/4ozA879RQ7ntTt58eyK3FB5RHe2SZsZB2mHvQyvh906ecfCDPVGIB+2jBMMLJtxvqhfXQ2qNOX9Db87W8X72J1VaCK2oxMmt5GDrgzDA875RQ7jtkdIt6K6taNayw2vJa7693vVbtp9tktTIr6WGGrajI+p93F8O3Nmv0TouVy098/5K5y8Ye1LBCIJeEWMA+8hJiPbVx9fW9hejUPF69OLDqG9xTcaUpO80YD7RG9jt1NNASYtVGiNUYIVayPbIu+2YpPPx0Ycpjh7Ts2v6rd919xeF3CrGAvBJiAftoYS+sybdrDrM+99YlA//uoAN+lacrZ6ggaRuZdWQYjiu09jslhBmLRh8t6bBKmMVESb+H7LYwK270fv61vfpj0VIjw69dd9tl8z844TEz2Rtr78o+rAKTCLGAfeQhxPrlhmM+NKdY/GzWr1w8q2DviudHq66KC1/JwBHRLUb2O2U0zBpZeNY+z1iIlc5+upUQq77llRq9f+QbPVMeN6SiXN7x/UvmHjTxpVjj70rrT15e6Xa15VOv7MMqMIkQCxjVxmGElZZX/P3MScfeU4jCiqxeubjaanS44GHbM3A0dLVifxje79Qw/Dvnh/Ls3/6REWals59u1+pQq9nZC5sNt5K6/6bNxfA3d+uPResMvfLCeXf85cHXjj1gUhVY9YZWhhUCDTE1CpArN6w64pAsBljxEME4uIorrwwXJDOGd4Tic18b/SnHww1/5/zRUCv0zHONICNOGxwOP3qsEB5+WphKaxR6Z50eQrjW6QbySCUWMCqFYYSTlyfS2P3xDasunlUs/NesXDVVV+ROXJ01/9Qw/IbzQ5gzuM/Rp1WBpSKrOyX1HjPpYYZZrMjauSvoj0VL/cu9X33jT//3BdsTaOxuWCHQUqZEAXJlZrFwVruPN+511XfstjBwwcNhzh8+JsAiX+LqrG1fC71b1oWeh04NhW1/5wJCm83uC+HP3jXkMtAyC5adcbqzDeSRSizocjnqhRXufvuKwcNmz7inXVcsHiY4c+0zo9VXUd9wuw4DElfue1MYWXDW6HDDUBpoWwVWViqzVGSlo1WVWY02fk+74Xst9//Pu4vhW5v1xyJ95ZGhu269dN67UmjsrjcWkCqVWEBuvGlm79ntONbSIS+FOe95bLTyKu55JcCi00S7ngzFpz4Teu9bEUqPnh+iXU+4xtAG71s9HBbv77M66YsKpTXHnHvLIU41kDdCLKBWUYUqrErLq91fbbvXrd9XKJzWyqsVV1zNPevR0R9DBukKwztCYdvXQuneFaH48/NCtHPL6LOOvwCf+CX4+O1Ky+tdr9ryWu+vd71q2ze7H/YVV7glUeVWbT+V7q+2fPL9lW7XurzadlPdP2dGFC48ybBCWmPOG46cbkhhNOmn0v21Lm9KNMZLAxBiAblwx9uOHIxCaMk3hr2Dz+/tdxVXYUE3Gg2zHlgTSg+eGqLtd3kNQIssPqA8WpEFaSv2zWl7n1GAegmxoEul+I1Wvd/MVfumb9TiWX2pv9EaD69mn/rEaP8rIIRox12h9NCpofTgKSG8cGeiFVjV1qtWsVVr5VZSlVkko1plUq2yXpFV7/0T9/P+40YMKyR1UVRYccy5tyya4r1YGhX2iVRuqcgChFhALqQ5lFB4BdVFO+4eC7NUZkErGFZIK1QZUgiQOUIs6DINfIPV6m/cXvdt4B1vO3JlGkMJhVdQv99WZp36usqstHtlNdpLq9710tqeqXVbRVat6xlWSCsUe2dV+5IwU72xAIRYQOYlPZQwbtguvILmTAyzVGZBOt537HBYMFdwSnriWQoPf/fnBpxiIC+EWEBSUumFFeuNCmuTOMa4SXs802DcsF14BckYD7OKj54fwqtbp624qrUHVqOVV/X2ymqU2QvT0WyvrForn2pdXmm7ZmcnrHe9C09SjUW6Fh75+6dX6IuVRMV9tdvV9jf1g+uNBV1LiAVk2g2rjjikEIUVzRxjHFjNec9jowGW2QYhHYVn/y6U7l0Rio99PISh7c4yJGT5QSNhw+EjTiepKfbNTa3vKEDShFjQJVLshZXUN2xTfgO4bM6shhuORjOGw6zf/dXo0MGew3yohlYo/Mtfh9JPlofCE5/OzCyGlZi9MNvS6pVV6/J6b0/eLsnKrP+0ZjjM6s38JSOnCsXeU2sYUthob6xq+2tqPyqyoPsIsYBMm1MsNtQPq+/YbaPhVfwbaLHhHaHw5GdC6d4jQ+H5m5x9aNLsvj39sSAtC5adkUjrBoC0CbGgwyVYgVWvpnthXXnEooF6hxLGwwXj8CquwIr6vOGHdop2PRmKPzsrFLecsrdfVitmMax1eaPrpbU9U8tLRVZasxSOO21wOCze3+uLdJRmzhsfUtiq3ljVqMgCpiTEAjLr3QfOr7lHw8S+V5q2Q7aMNn/XLwua9h/X+HKGdBQKPQ23bwBoJSEWdKgUKrBa2gsrvmNWoVhTafvMtc+E/v/rEX2vIOPiflk99x4Zon+9salZDCttV2m9autXWq9RKrLSkdTshY0ur3a71sep9XlMte6RbyyHY5do8k4Koqj/uAvvWVnDjuvtjdXo+8eGqMiCzifEAjKrpxBN+61gPHQwDq9mrHnG0EHIi+Edo0MMSw+eGqJdT7hsUKf/eKJ/70jHzP0PPdWpBbJOiAUdJoVvoJKebaam/f34hMF1UQj9Uz7A2KyD8dDB4sJX6jg0ICviIYbFnxxZ1yyGk283ul6l/Va6v9HKKhVZ6cpaRVatyyvtv9b1D+yPm7yrxiJ5hZ6Zp01TIV/v+7u2zFa4dyMVWdCxhFhAJi3s7ZmyH1bPW7abdRA6yOgshg+cGKKdW1xWqFHc5H1Wr7NFsqKosOItp/23AacVyDIhFnSIJr5xqvebr0rftNW6vNJ2+/z0FQpr9ll5xvBo4/Y5f/iYoYPQYaKdD4bSA2tC4Zd/Fsq7X6jaI6veyq1Gl9e6fVrbUZtmZy+crNGKrFqXNzpb4cT1Z/ftCbIgaQeufG+lSXXqrcyqtrzZ7WuiIgs6jxALyJxPv+WQgUIUVsTHNVIOTxZWPfvdgf/84Msat0Nnixu/j1Zlbb/LlYYq3nfscFgwVzhKsoq9s2uaVAegXYRYkHMpVGDVun6j36BVfdx3HDBvcNfIyN89sd/z75zz0fu3DJz89DujYnlWHccK5FS068lQeujUUHzs43urssbV2wMra7MXNttji+nVW5FVa6+qRvfXaMVVtf1P/Hm/3lgkLCr2rn3zKX81r473bUnPVliNiizocpE3UZBvTfyDXG27yffXervSenXd/9jXSqe/8YDor6No6ubuQOcrzz4yDL/5yyHMGdz3L41Jf+1V+muw2nrV/vps9v5qfJ5KR73vbautP/n+Rm9P/l3t/lrXP++aUtj2otcSCSqXd+x68Znz7v7sYTfFt8Z2XOl3qPP+Rm9P1tCH2LIPv5B7KrEgp1KswKr3G7NGK6+m7K1w5XnFedu/1fPZgxdE1wmwoLvt7ZU1YQbDJHtlJTV7YaNUZKUj7Yqsem9P3i7p2Qrft1pvLBIWRf19/b/zdxv+/LkvH/7uz403eq+3J1az7yfrfb9aExVZkH8qsSCnMliBNfl2vZVZ0U+uKg2uWBp9rRCFN1U5RqDLlPvXhOHD/jqU+w6pu8Kq0cqtastrvb8an6fSkZWKrHorr2pdb+Lv86/tUY1FOsrlJ17d/uR591y57M6x/TdamTV5eaO3J1ORBV1GJRbkTBsrsGpdv67Kq/E7n/tmzwUrD43uEmABU4l23BVK958YCs/f1HDFVaXbjS6vtl2tVGSlI+mKrGrrpzVbYbX19cYiVVF0yIx5h3x7/Sd+fdGkh6m3MqvS7aTXr4mKLMgvIRbQVl/8v4sDr9zc852B2eEzrgQwreEdofizs0Lx0fNDGDJbKYzbeMSImQpJVbF39n/d+BcvfOeYc29Z5EwD7WQ4IeREC4cPVlpebXhgpfUq3v/odaW1hyyM/l7vK6Be403fy7NXpDac0PDCzpLU8MJqy+sdZtjMMMKJv7//0yh88dZSh101Mqdc3vHazm0fvOuvlt44dmhJDSes9Ae02vbV1q+J4YWQHyqxgLZ44aaeixYdGH1bgAU0YrTp+4OnhMKz1zl/EEI4bslImNXrTJCyKOrvnbPwaxsu33aFUw20g0osyLgMVWBNvt3Q8i/+38V5/+mUwt+XimFNjc8DYFojC/9dGF78mRBKeybRSrrxu4qsztDoe95aK7LSavRez/rX/7gYvv5j31HTGuXyyJbtW//xj+67+uStTVRk1dvovdryWu+feiMfjiHzhFiQcZ0UYj34P0uDbzl4dPjgIVWODaAuo8MLj/haKrMXCrE6QzeEWDt3hXDeNT3h5dfqfJLQqHJ5x64dT7//7isOv2P8JTppT0IsIFG+qoGMauEshJWW1zr7YE2zET77f3rOPvxN0T0CLCANo8ML7z8xRNvvSnz2wvHbtS6vth3tUe/sg/VqdrbCyffXOmvhRLP79gwrnmErlAAAIABJREFUhJaJov6+gTd+Z/1lz1xY5X1io+8ra33fWu/9U29k1kLIPCEWkLqd3+25ar+54cvONJCq4R2h9NCpofAvX3Ke6VrvP06IResV++Z8duNfvPD3y977lQGnH0iTEAsyJsMVWLVut/fn6o8U5+36Xs8PekvhrAaeD0BDio/911D8+XmhvPuFRCuyGl1ebbuk1qc29VZkNVpRVe9+at1fpUqt8Z+Fc8th+UFeN7ReVCidduDK9918zLm3LG7i/WO19artr977p95IRRZklhALSEXc/+rf/9vCDwpRWOEMA61W2Pa1UHrolBCGtjv3dJ3TVqrGoj2iqLBi3qLjf7Dm44+udQmANAixICNyUIFVa0+D6Klv9JzxloOj7+p/BbRT3Cer594jQ3hp8+v6U7WzIqteKrLSkVZFVrO9sapVWtUi7ou1YK7XDG0SRf29c9/w3XWXPHVOEz1Va71dbX+13j/1RiqyIHOEWECinr+h50MH7he+FkWh35kF2i7uk/XgKaHw7HWuBV1l4+GqsWiv0sx5X97wyec3uQxAkiLf7EF7NfHtTrXtKt0/eXmttyutt3f5zu/2bNL/Csiq4SV/FUZ+54K9Rzf5r9/x25WWV7qd9PJqFAUkq973wpXWr7Z88v21Lq/0u9r6v94RwvnXlNI7cVCj8sjQTb/e/L8+8PA3/iQe3z3+Ap78B6na8lpvV1qv3vun3siHZ2g7lVhA0/7m48WBV27uuV6ABWTZaMP3R893jegKcYP3eFghtNt4w3czFwJJUIkFbdZAJVamKrDiAOvMf1O4WQN3IC9G5p8aht/81yGU9nyeqrXySkVWZ0urIqvRCqxKy+v5/aPHCuGz3yl214Uku8rlJ155/rH3/+B/DG5WkQU0SiUW0LCf/W1p8N/9m8I/CrCAPCk8/y0zF9IVNHgnU6LokJnzl9x8/Ic3D7owQKOEWNAmDcx2kpVZCEfFAdbSg6KbzUAI5FE8c+FokPXq1ppnJ2x21sJKzD6YDfXOVlirSrMV1jtrYSXVZjM8bonXFhkSRf1xkLXu0qcnz1w4rtbZDBud7bDe+6feyKyF0DZCLKBuj167N8AyAyGQW3GQ1fPAmhDt3OIi0rE2HqEvFhkTRf2lGf1Xrbv06bNdGqBeQixosbxXYD33zZ5zFr0h+kcBFtARhneE0oOnhPDS5tQrsqpVXKngypekKqmqbVet0qqaJQeUw+IDvE7InrEgS0UWUBchFlCzOMAamB2ucsaAjjK8I/Q8dKqKLDrWxsNVY5FNcZC14ZPPb3J5gFoJsaBFclCBNe1+BFhARxuryIr+9abEK7ImU5GVbY32pKp3vaR7Y1XaPv5526EN7wZSVyj2nrXhk89frSILqIUQC6hKgAV0hTjIeuSsUHj2OtebjrJwriGFZNtYkKUiC6hKiAUpS+GbmbQqsKb8pkuABXSb4qMXhOjZ6xLrfZXULIa0VlKVUElvV61HVqXtDSkk6zqhIgtInxALqEiABXSr0qMXqMiioxy3VGBK9qnIAqoRYkFKmqjAqvcbIxVYACmoVpFVbwVWvRVZemPlS6O9sWpd3mxlmCGF5EWeK7L0xoL0CbGA1xFgAeyhIotOYkgheaEiC6hEiAUJS6ECq9b1VWABpKBVFVlkU9q9sZKanbCWPllHHtzw04CWU5EFTEWIBewlwAKYWlyRFW2/y9kh15YcUA4L5gpQyQ8VWcBkQixov3q/+Wl2fRVYAA0o/ezMEO3c0vAshdXojdVdGq3AqnU2wkqOW+K1Qb5krCKrLiqyIHlCLECABVCL4R2h9OApo0EW5NWRbxRikT9xkLX+8mcvdukAIRYkpIFvWpKqwKr3G6h9lv/sb0srBVgANZoQZNXaE6vSchVW+ZLW7IO1btdsb65xb1vqNUQ+FXtmXbTu0qfPaXNFVkOVWiqyIDlCLOhij15bGlx6UHSz1wBAHYZ3hOLPzgxhaLuzRi4tP0iQRT6VZvRfte7Sp892+aB7CbGgSS2owKq2XsMVWIccGN0SRaHfawCgPtGuJ0PpoVP2CbKy1tNK5VZ3qjZDYTCkkJyLg6y1Fz1+RosqsipJtHcWUDshFnShr11aHFhyULRJgAXQuGjng3uCLMiZ4wwpJOd6Zu2/6fgPbx50HaH7CLGgQSmMba917H296+2z/G8+Xpz3B+sKtxSisCLBYwfoSnGQVfj5eXVVYDXbG4v2Sro3VjtmKVxyQDnM6vVCIseiqH/m/CU3n/CRh8aDrEbfRzdboVVXRZbeWNA8IRZ0mfdvLGwSYAEkp/Ds34XiYx93RsmVI9844oKRb1HU3zfvTVcfeeY1A64kdA8hFrROs7OfNDrmf+/ynd/tubpUDKe55gDJKvzLX4fCs9eN7jPt3lgqtzpbq2YpXHxAt59pOkEUFVYsWP7uWyY8lUZ7Yk2mIgsySogFXeK5b/ac3VsKZ7neAOko/Pz8EG2/09klF448SCUWnSEOsjZ+8jebXE7oDkIsqFMKsxFWW7/pnlhP/389ZwzMDle51gDpKv70zBDt3LzPY7S7N5bKre5UbZbCIw/u9jNEJ4mKPWevv/zZSyY8paZm8Z5GorMSqsiC+gmxoMP97G9Lgwf0B99OAbTC8I7RICsMbXe6ybzlBwk36RzFnlkXrbv06XNcUuhsQiyoUQoVWEnNllJxeTwT4dKDouujKPS7zgAtsuvJUPzZmXpadbiOmKVwgdchnaXUN/fK4z+8eeWEJ1V3D9kG16u2HEiIEAs62B+dVIgDrENcY4DWirbfFYo/P89ZJ9M0d6fjRFH/zPlLbjZjIXQuIRa0XtI9siYvH/156Ts9VxQLYa3rC9Ae0bN/t3fGwtDEbIMqurpTK2YpPPKNXj90oCjqH5uxMI1ZwWtltkJIiRALOlA8E2FfT/iQawvQXqMzFk5q9A5ZsXBuOczqdTnoPPGMhRs++f+zdy9gktX1nfBPVV/mwlyQu1wG0BCUAXVdjSsXNZsnWZVLdhPvmvfd3TcaBd43eXc1CCQumgTF+MaYREB0Y5INTKK7m4hAEokBdSaKgjHMgEHlNgOIw22m59LT3dV13uc00+NMTVefe9U5VZ/P87RjnVtVn3Po7vM9v/P7P60nLAwgIRbEKLAXVtHP3i/4jH/UyH3V8uB3HVeAamjem67RuwqreimiIqof5j/3yUc41xhMzZHxt+9t9L5oD9mCetR2oyILCibEggGy7jdHVmvkDlAxU5uD5nff4qhQSZq7M8hGl6761Cv/y90vcpBhcAixoIsSRiOMWz716IOd0//92c1Pa+QOUD1Ro/fGY5884HOpuBouZY9S2Llc3Nc8zd0ZdMsOO/kvT3vjZw7NWZEVx6iE0CNCLBgQ228eu3x0JDjP8QSonvCQM4LwqHc4MlRO1BcLBlqjseboF71BfywYEEIsKF9Rz9Z3nb75c2OvWr4kuMyxBKieKMCaPf2WIBjt74jvKr/qKa4CK+9ohUYoZBg0mqPnvfoDj1+8SOXVvLyVWmmnL0hvLOhOiAU19yfvH1l9zHOCzzmOANUTHnJ6JQIsWMyRK+0eBt/IkhVX6Y8F9SfEgg49GI0w6XYS9cR68083r9PIHaB6ogCrtfbgAEtFFEUoclREjxQyLPb2x9r/h3LeSqtSe2epyIKDCbGgxp6+cexifbAAqqdbgAVV5JFChob+WFB7QizYqwKjESadPvf1L386+qKVy4OrHD+AaokCrJnTbi48wFLBVW1pRw+skkOWDPGBY+js7Y/1f+fsaZW1xy2QkxALaijqg3XysQ13kQAqJlxeToAFZTrpCOEow2Vk/JDL9ceCehJiQfGy3qlJOj14w6ublzcbwRmOHUB1RAHW9Gk3ZQ6wVFoNt84KrW4VW1krvjpHMdz/a8VSBSMMmUZj1dLDTrouw9/hRfXA0hsLMhJiQc1s/tzYOUvGgoscN4DqyBtgQT+drBKLIdRoNM949RVbL3fsoV6EWAy9Co1GGDv9T94/cugxzwk8RghQIc8GWF8UYFGqvBVYcZaPO34Mn5Gx5Zftfayw6xMQe1VitEJAiAW18uafbl7XaARrHDWAapgPsMIRARb1phqLYbXssJP/8rQ3fsYPcagJIRYkV9RohGlHKZz7euTzYxeMjgTnOV4A1fDjCqxDCxltLq5ipoqj2lEdzg/IqNFYc9Tp/6HzscK8vbJKGa1QbywQYkEtRKMRHnVo8ClHC6Aa2iqwGDCnH6cSi+HVHF1y0dnv/8E5TgGoPiEWQ6vAOxlZ77wkHo1w72OEq5ytAP03F2C98MaDAqysPYsYLL0+D5xPUIzxFUdfd9obP3Nozp5YcYxWCDkJsaDiotEIPUYIUA3t5WsXDLCg7o50q4xh12isOXLtBRcP+26AqhNiQTyjEQIwF2BNvSA+wFIZQx0dtdLjhBCNVvhvfu3bL+7jaIVADCEWVNgbXt283GiEAP2XNMACoN6WHfET+tBChQmxGDolPkOetRdW5/S5r02fHX3xkrHgImcoQH/NB1hpRyGsWkWWCrF66DxO3Y5b0T21jvY4IcxpNJpnvPoDj3c+Vtir0Qr1xoIYQiyoqFOOb7gLBNBnKrAYFkcJsWCfkfFDLn/Zu//hRHsEqkeIxdDIcKci6x2StHdoDtre0zeOXdxsBGc4OwH6Jwqw9pz6ha6jEOYdhU5lFL3Qeb6mPX9hKDUaq1Ye99KPFtATKyu9tKALIRZUzJ+8f2T1imXB5Y4LQP+0ly0cYAEwHBrN0fPOfv8PznG4oVqEWJBfUXdo5qa/8TXN3200AkX9AH0yV4H1gi8k7oGVtLIlaUWWChkWk7cCcDHLx+162N/4iqOvW+DpiSJHKyyk4kpvLIaJEAsqZPPnxs4ZHw3e7pgA9IcKLIbZyUeGjj/sr9FY8+ortl5mn0B1CLEYeCX2wip0NMLo6+jnBL/rjATojyjAmjz1r0vrgZWVnlr11K/j47yAYo2MLrt4gSbvWSuzuim7xxYMDCEWVMTWvxp7h2buAP3RLcACYMg1GqtWHPsS/WqhIoRY8GO9upNy0PyomfuhK4KPOhYAvTcfYM33wEra2yquQksFFUkUdT44r6A8zZHxt5/16/e9Ksvf+R3zu70uhN5YDAMhFlTAfzinebFm7gC9pwILgCTGVx6tGgsqQIjFwCrxTkTaXliLzr/t46MnLV8SaBgJ0GOdFVidklZczctbkVVWJY0KHYD8Gs3Rs1/1G4/8UsrRCtNWYOmNBTGEWNBnP/XChgALoMdUYAGQ1ujS1f5uhz4TYkH5vbA65+9b7l/+dPRF46PB2x0DgN5JOgphXAVV2b2w9NQabkkr9bKeDwuf684rWFSjsebVV2xdLMjKOlp5ofTGYpAJsaCPTnpuQzN3gB5SgQVAHiOjyy4+7Y2f8UsE+kSIxcCpQS+sOQ+uG33VSDM4Z/COAEA1RQHW7p/8q30BVtGVV1krZ1RWUaa0vd2AGI3GqiPXXnBxyt5YcdPTXmfA0BJiQZ8cc1jDCCcAPdIZYAFAVlE11gt/4Wq/UKAPhFgMs6J7YSWtzGo88vmxC0ZHgrOdfQDlmw+w5kchLKvyqnN+t9dxyu6pxWDIOlomUIBGY9XRL3nLQm1BslZmlUJvLAaREAv64KhDg6vsd4DyqcACoAzNkfG3v+zd/3CinQu9JcSCeN2eUc90h2XrX429o9EI1tjvAOVKWoEV1zOoqNEI076GLJxH0Dsrjn3J5Ul64eqNBcURYkGPHboiWGxYXgAKoAILgLJF1VgvfeeXVGNBDwmxGBgpnvnOekcj66gj+762/tXYL6nCAihXtwqsTnlHHUw7vdvrOHph1Vtdjsfc56zA54C6WXXCyxa6Qa03FpREiAU9pAoLoFwqsADoJb2xoLeEWNBd1sqrBT3y+bHzVWEBlCeuAitt76uslVZx07Mux2DLex6kPd/iKhGB5PTGgt4RYkGPHL4quMi+BiiHCiwA+qXZHDv/hb9wtV9A0ANCLGqvgGe8s97BSNwL68F1o68aHQnOdrYBFC9tBVanskYfLHr5OCpqBlNRPdWcH1CiRmPVUS96w0I3rCvVGwsGgRALeuCYwxqX288AxVOBBUAVjIwuu/i0N37GLyMomRCLYZL0Tke3Z9Az3UG57eOjJ6rCAihe1gqsvL2v0o4+aDRCypS3J9v+ywM5NBqrjnzheb9UcG+sotab/+/cKIXUnhALSvZTL2wYkRCgYLMqsAComJHxQ/TAhZIJsaitPt5JSNwL67aPj540Phq8vQ+fEWBgRRVYkzWuwCqqcgby0CsLStBorHnVbzzyjgU2nPXJDj2zoIMQC0r00p9sCLAACqQCC4AqG1m6SjUWlEiIxTBIemcj7nXc+gdZNh5c7AwDKMagVmBlpYKGhcSdf84bKFej0TzjrF+/71V96o2ViN5Y1JkQC0qy9a/G3tFoBKvsX4D8VGABUBdjK45c6JFCoABCLIiX9E7IAV+rVwRKiSGDKKxorXjlvi/oVwVWp7IqsIxGOBySHrd+nX9zyzitoBDNkfG3v/SdXzpxgW2V3RtLDy0G3qhDDMV7cN3oOc1GcIZdC8+Kwqj2+AlBGH2NrJ4LqoK5wOr0IBxJV7DYmJ0IRiY3zf3/5vSWua/G3n9HJu+Zm8/gmN0bYEXnjb/KAaiLlce9JOqN+zsOGBSrEYahXUqtpHh+u9tyndOTvu78t+v8XX879imjEjKM2uPHzwVT7blqqjNjQ6qs1SSL/e6aD7miQKs5uSkY3fmPQXP6EedjDbX3PkIYVWAFC5wv86+zTu+2XtLtd3sdNz3p/KLXoxqS/u3dbbnO6d1eZ53eud7OPWHw4BNBEE3dNRUEDzzx7PRNjz777z2POh9hQWG4+R9+Y+Vpe2eFMf8GKed3ex03/cCFhAHUkBCL2ql6iPXp944c+h9f23zUmcUwiEKrmdWvC2bnAqu1c9VWaZQRYi0kCraiMGtk5z8+++/kPc7PijugAitnWNVtuhCLfqhbiJVk/tYdjWDr9jDY9FgzeOjJIHjwyUbwxA7nKbQmt737q799/J8LsaA4Qixqp4chVtIw64B/n75x7KKVy4OrnFkMqpnVr50LraJ/50OrulxUz//Oix49jMKs0e1/G4xt/9u+fy4OVJcKrLj1uxFeDbdehVhxr4sKtbpNj6q27nmsOVexdc+jzeChp5y/DJ+w3Vp/228e+toehFfCLIaGEIvaqXqINX3r2L2NRrDGmcUgiQKr1urXzlVdLfR4YN1CrE5RkDX29F8KtCqgThVYcet3I8QabsMSYnVOj0Ktbz7YDO55rBF888GRYPf0gt8eDJxtD/3j2m9/+ucemv9PouPfoMt0IRZ0IcSidnKEWHGhVu4wK2rofvyRjb9xVjEIojBh+sh3zgVXwejqRN9RVS+yE/+ua20Pxrb/TTD+xKc9ctgHKrCKXY9qSvu3d1mPFXZbrqjQKm65Ox5oBN96qCnQYuC1Zyavvv2KI3997/cZ91hhXLjVOb3b67jpBy4kFKBGhFjUTpVDLA3dqbuoyiqqupo+8l37RhAMUlx81z3E2n+56JHDJY9/bK46y4iH5VOBVfx6VJMQ6+Dlogqt2+8bmQu1YOCka/AuxIIYQixqo4KPER4wX0N36myuQfthbw6mjnzXXJCVtVF12uXKVsRjO1GANf70XwbjT1xnlMOSqMAqdj3qoWqPFZY1Pc3r6JHDmzeOBrff19QYnoEyvXPrW9d/+HlfLLA3VtLQKtXFvjCLOhBiURtVD7G2/tXYLz1nZXCtM4o6icKrqWPeG0wf9uYDPrUQa+HpUZgVVWcJs4qjAqv49agHIdbir2/7l2ers+79oeos6i9st2667TcPfYsQC/ITYlEbfQixEj9GGP3P1K1jX282gjOcUdTBfHg1c/hbFvy0eS/K6xJiZZ0/9tRfCLMKoAKr2PWol6JDrG7Ty3oMsOj36fY6GuHwc3eOBPc+Jsyi3n54158d993/feH2vd+ExwohIyEWtVHlEOu2j4+eePYZDV2gqbzoUcE9x31oX+VV1oqrYQ+x5qerzMpOBVbx61EvQqxkr+dterQRfP7OUZVZ1FZrctu7v/rbx//53s8vxIKMhFhUXorwal5cWNU5PXeY9fSNYxetXB5c5WyiyqaO+a/B9FHvmgsNOqUNswY9xEozvTG7PRjfet3ciIYawCejAqvY9ainXjV475zeq5CrrNfCLOoqDNsbb/uNVa/c+/GzhldCLIaeEIvKq0OINX3r2L2NRrDG2UQVtVa8Mphc84mgPX5CYWGVEOvg6dFohksf/cDcaIZ0pwKr+PWoJyFWvtdRv6zP3zWqATy1su2hf1z77U//3MNCLMhOiEXlVbCh+wH/fuczoy9ee1JjgzOJqokeHZw88RNBa/XrDvpkWS/e46Ynnd8rZYdYCy03uv1vgqWP/KZHDBegAqvY9ai3skKsbtPLbgTfj9dzoxne/WyYBXUwO7Xzkq986JhP9iC8Shpudf73Kxyg8tThQk7Pe27j7fYhVTN15DuDHad9a8EAi3JF+3znqV+eOwb82OzeAGuhx1kBsjhkSRC88WWt4JNvmwpOe27bPqTymuPL3+EoQT4qsai8qo9K6FFCqmSu+mrNJ4LWoQeGV0krVDqpxFp8etzr0Z3/GCx74D8Ofa8sFVjFrsdgqWtFVufrorcbt/2F1ouqsj5352iwe3rBRaES9nukMNDgHdJTiQU5bPrs6IsEWFTFzOrXzlVfRf9SDa0VZwY71w73MWmrwAJ65NwXzQa/+wZVWVTbquP+1UUOEWTnAXIGQd4KrG66VWbts+aohpJgKmHPcR+aG3kw2HvCFlV5VfdKrKLM35BM+31F60XhzeTz/iSY3XrdXOP3YbJ/BdZi56UKLMhv/rzqLKDonF7W66LFbb/b93PUqiD44M/PBJ/7ll5ZVFNjdMk5KT7Y/H8AKqNgL5VYkMPS8eA8+49+ih4f3Hnq3+8LsKiu6BhFxyo6ZsNABRbQT1GvrI++YTo4cqVrf6ql0Wie8dJ3fulEhwWy0ROLyjIqISxurlH2Kf/7gJAgaSVK3PJxy8VNTzq/LP0YlTDJctHrxuz2YPn3fyEYmbynV7uj5/TAKnY9hkNRvbG6ze9Vz6yytpv1dTSC4Uf/biy49zH37qmORUYpDDpeG6UQOvhpDhkdf2QjTSkwFGr6sDftrepR5VI30THb9YIvBzOHvWkgvz8VWECVRCMYfvCCmeD1Z8w6LlSGUQohO5VYVFbVRyWcunXs681GcIYziF6bOua9wdRz3zv3rml7Xw3LKIX9HpUw6evxAeuTpQKr2PUYLln/Js/786zb9H5VWOXdzmLL3X7fSPDJ2/TJohqMUgjZqMSCDG77+OiJAiz6YfLET+wLsKi/qE9WdEwHgQosoOpec+rsXJ+s5eMOFf234ujTPNUBGbgVwSAqfVTCtSd5lJDei8KOmcPePPe+WStQjFJYPa3D3xJMRgNFPPKbQWN2opbfg1EIi12P4dRtdMGsko5W2G165/kbN7phUfKOohjn5CPC4IMXTAf/7cbxYPe0/9jon+b48vODIPjzhB/AKIWwl0osyGDlcqMS0jvRaHZRA/f5AIvBEx3bZ5v012/kQhVYQN2cdEQYfPLtU8GJh8sD6J/myPi5dj+kpycWlVP1UQmjf6dvHXu00QiGY5x8+mo+wJpddvrcx8hbcZW1MiVrJVba5fJK+jutXz1h4pZr7t44N3JhXSqy9MAqdj0ISuiNlXd+UT8Xky5X1Osk24lGLrzixvHgoaf8N0t/TO/c+tb1H37eFwscpTBpDyw9sagtlViQ0g+uHz1HgEWv7B9gMfiiY12XiiwVWEDdRSMXXnHBdHCSiiz6ZHTJSi1KICUhFjxbYZX4FtxRhzY8SkhPRD2w2svPmKvq6Pyat9C8xb6KXi/p9jql/dxFbbeo7yPr6yRf0THfc+IfVPo/sijAmjz1r5/tgdXD867bdrotF7d+N3Hzi14PFjtfizr/ss4v6+dn0V9ZP4cgi35qji49b79rkUaK65Juy+Vd/8CF9nKSUCVCLEhpyXjgjgml27+JO8Ondejrgj0VHbVwPsBSgQUMCkEWfdNorHnpO7+0xgGA5IxOyDDJPSrhp987srrZCM5w1lCmPcd9aG7Euv1PxPmbYJ03w7q9Trpc0tfdlks7P0639bu1ZEj6fmWNolWW6PPOHP6Wua0vffhXK/O5OgOsuPOtqOlJt9sp6XJJ5xe9HiQ5r9K2pIlbr/N8TTt6Yed6cdOLGu0w66iESd//kCVh8OuvnQne+3mjFtJbK44+LbpB/nDCNzVKIUNPJRak8LpXNF9lf1GmmcPeFEwf9S77mDlRkDVzeDUq8lRgAYPuyJVh8MELpoPl4w41vdMcX36+3Q3JqcSijrKOShg3vdty+/59zspAPyxKM7vilcGek/4wVQVW1gqrrJUscdOTzk8r6/bS3tlPul7ez5GmomAqOida24PR7X9byGfJ4oAeWPutrwJLBRblK6siK265pBVbnfPTVmB1k/XncN6f3ycd8WxF1hU3jmVaH9JqNseStCqJq8BSocXQUIkFKYyN6IdFOdrjxwe7n/cn9i4L2nPSH8wFSf2gAgsYNmuPbQcX/XTLcac3Go1V/+bXvv0iexuSUYlFZTR6f0s71fvd9vHRNY1GoPEihQtHVgWTz//TuSqXeWVXtCR93W25uOlZl8srrlJgXtoKgbSVVIVXco0eOlelt+x7/z5ozE4Uss0kVGAVux7k0auKrHl5K7M6lVX5WnRvrHmvOXU2uOexRnD7fSOZPhekMb7ymKhlycbFTuEu07tVYHVOV6nFwFCJBQmdcnzDHRJKsef43wray063c1lUe/npwfQJv92znaQCCxh2UTWWEQvphebYUk97QEIqsRgGcbf2Et36W7Xco4QUL2rkPnPYm3/ceK1Po711KqsiK07QT2TGAAAgAElEQVRc5VTW9Tu3k7UCq2hpK7paR7w1aE5uCsZ+dF0pn2dee/naYM+pXwiCkdVz52bRvddUYEF2eSuy5mXtlZV0e1l7YxVV6VrUz/srLpgOLrx+iRELKVXCvlhlSFShNf/ETJj2Bw+UQCUWJLRkXIhFsaI+WFEVFqQxc+yvl9ofK9p2FGCpwAIIgkOWBHON3qFUjcaql77zS9qWQAIqseDH9hXDLPRvsxGcYV9RpMmokfveXkP9rsCqei+srKNTxW2n6AqBbp+jqF5Z0fpRuDR18h8Fy+796UzbWMy+CqyOHljzyq6sUoEFyWWtyJpXVK+suOXK+vnaqajKq4Uqyk4/Lgze+LLZ4PN36o9FeVYcfVp0w/zhhG+gxxVDSyUWJPCD60dVYVGoqWPeG8zqg0VGUX+smWPfV+jumw+wVGABHOxNL9Mfi3I1x5e73oAEVGIxCDpv0XW7ZZf5VvoRqxt+qVCY2WVrg+lj37dgr6F5ZVdmdc7v9jpuetL5SeXtiRX3eZKOtpW1N1bWSqssFQgzx10SjGy7JWjuvifVey0kCrCmXnDjvh5Y84ruhZV3vaTbi1s+KRVY1EFRFVnzqlKZ1anXlVoLzb/437aC935+LNH7QVqN5uhig0h1nqBpRyuEgaESCxIYGw2MTEhhpvTBoiDTJ38y94bmAywVWACLO+mIZx8rhDI0Gk2tSyABIRZ919grwedo5KmmyrOdsRFN3SnG9FHvDGZXnjV3R3f/037+dedXt/lx62VdPuv7dZP08/V7O2m/787peV9nPS7PPlb465nPzc4AK+3nyLp/0m4/6f6NWz6prOtBPxV13ib9eZp2+ar8fE37eTrnv/nlsx4rpDRnvu/eV+13rbL/V5xu1zed04u6noK+EWJBjNs+Prqm0QhW2U/kFY6sCqafW2wfI2gd8ytBOH5C6v2gAgsgm+ixQijD2PLD3TiHGHpiMcwS3YU45fiGRwkpRPQYYWdgMH93t/PfbvPTrpf1dbf1uqla1Uq3z1N075a8ow0WYvTQYOb4S4LxBy5OvLWogmv6hfE9sLpNT/q6rPMwbn9nPR6qrxgEnT+f8ur2c7CbpMt3+5zdfr4WPRpsmtEJO+dHjxW+/ozZ4JaNRiukWI2RsX5dd+ilRW2oxIIYK5bph0V+7WVrg5nD32JPUorZI94atFeelWjT8wGWCiyA7KLRCpeP24EUq9kc0xcLYgixGGRJn/le6LnzfestGdMPi/z2HP/bc9uI67UxL2uvjryvu20n6edLKq43UtKvvO8bt1zc+mX3con73PtPax1/Sez3H0Y9tE774lz1VppeMXmPT9rXSdeLWz6prOtBleX9Od1N2u0W/fuu6OWyzl+xtBG86eWavFOwRmPNqT//+2nuMvW0x1WKXsZQGiEWxBhpBmvsI/KYXfHKYHblmfYhpWqvOjtoP+f1Xd8iCrCmT/uiCiyAgpz3otngyJWevqJYh//kz3kKBBYhxKLOko62kfUOReOTvzpyaKMhxCKfqef+euY70d3m96rSJ+n8pJ+37IqAXlUIdM5P+7qoyqbOr9ZJH17w++wMsPK+b1mvk243bvmkij4focp69XM47/Jl/bztNj3v773/dJZqLIo1uvTQJCFW3PWNUQgZWEIsWMS/+ylN3clndsWZqrDomXDJmmD2yLce8HYqsADK81Mnt4PTjlWNRXGaY0v1xYJFCLFgEYeuEGKRz9Rz37fg+mnvAOe9M520sibp58u7fK/0qjIr6X7Pu16S7c4e//5923s2wLrpoB5Yce9X1PeR9nXS8zPp/KLXg0FS1s/trD93k24n7eu075NluTfrjUWBGo3miYv07FVhxdATYsEixkc9Skh2qrDoh6gaq73qrP0CLBVYAGVae2xUjdW2jylEozl6tj0J3Qmx6JsUo1sUdcch9XbGRgOVWGQ2fdS7CrnDu9hyndPjluu2fNz0pJ+j6oqqEEi737MerzQVWPsvP3vSR4KZtTcHjbGFRyEs6n2SLpf0ddb9npQKLOiu35VZaX9vFfVzNe5zJF3up08VYlGcl77zS1lvpCftEayii9oSYsEiRppCLLJpjx8ftA59nb1HX4SHnKECC6CHfvoFbSMVUpilhx5/or0JCxNiMYwS33loNIJVzhCymDnqVxZdK2/lVef8rMvHTU+63boqq0Ig7vjEbTfv9LRfed8363JJ92PS+UWvB8Os7MqsrMuVVZGVtzIr8qaX6Y1FMcaWH35On3alCi0qT4gFXfzg+tF+/fKg5sKRVcHM4W92GAFgiEQjFS4fd8TJr9FoKqeGLkbtGAZQ0rsHjS7/zlm1vKGpO5nMPUYYjQa39w5usMC/3cQtHzc9brtJpyfdblZFbTcMi310o/Nzddv+/HKd87ut37l83HJZpxcl7fmS9Hzs9Xmo+gqKk/TnY1JF/byN+zkbt17n9E5xn2t/K5Y+G2Tdfp86AfJpjIylbWkyf0L25JnW+b7GYdF/iEECfsJCF+NjgWfRySRq6A4ADJ83vdwjheTXaIy4mQ5dqMSCg83dWRhpCrFIL2ro3l52emw5YLeKq6IrYIquiEmr7EqYtHfOs24/6Z34pJUCncuXVYGVtNKgm6LOHxVYMHjKqswqqyKr83OmrQTr1G35o1aGwUmHh8FDT/k5RA6NxE+E9LQCC6pAJRZ0MToSuANCaq3D32KnAcAQO/dFqrHI7xX/zzeNkg4LEGJRR52jZnQbRSPX6BojzcAvDlJrHfHWRUeGSyrpaHDdpqcd/a2o0afKGs2q35+j6NG08k5P+v1lXa7b+ZR3etz3nXR+0esB+RX1czfrz4eifg+m/T4WWucVz1MUQ34jS1as3u96pttXHKMNMnCEWNBFoxGssm9Io71sbdAeP8E+A4AhdsiSIHj5yW2nALmMLj3UDXVYgJ5YsIDbPj7qUUJSmxuVMEbaXljzuvW66ncPrLpUvRTVuyVtD5W0oxfGTe/2vkUfh6y9qvL2uNIDCwZH3p+7WXtkpd1e0vfpptt6P3VSO/jWg+oFyK7RHFlt98HB/GSFBZxwlKbupDeTIMQCAAbfT6nEIqfGyJhKLFiASiyqrKhb66m3s3S84c4HqYTjxwfh8jNSV1h1ilsv6/aKMigVL0VXZmWtFEhasdX5OXt1HHpVWaUCCwZf2sqpeWl/jiZ9PS9pxWzSzzlvxdIgWHtsGNzzmJ9TZNNoNPNcj3QbtbBzutENqR2VWLCAFcs0dSed2ZVn2WMAwD6qscil0fRkCCxAJRZAAeJCrKJ6YXWbnrQ3VtL5eZevm6wVAp37M2lPlax3/pP2yEqr6PNBBRbQTVkVWXHLp+1V2G1+Nwt9rrXHKW4hu0ajabQgWIBKLFjAkrHgHPuFNFRiAQD7O/mIMFg+bpcAFEmIRc819urHWxfYZwv2meuHtWRNruqQaN39v7rNzyvtdop637rI+/0mXT/p8Y5bLm75pF9pt5v2+0m7XNz6QP0V/XOg6N9vRf0+OP04jxSS3ZnvuzftjfWirndcN1FZQiyAnFRhAQALiZq7A1AcPbEYJEnvFnQu1+icPjoSnO3MIKnZ5afvWzJr76tORffC0gMrnbyjF6ZdP2mvl7r0xMq7fNHrA9WVtydhp7SjFc7L+nO7m/n19cUCKJZKLICc2stOtwsBgINEfbEgq7Hlh+vTCx1UYjHMut1Cc8ufVKLHCROXARY0OiG9VfbohXHHO29FQF79GkXQ+Q/DI+/og1mlHV12Xpr3jR4pvOcxP88o1fwJ1tPUtLH3P5CwqFJKSEAlFnS481OjL7JPSKq9bK19BQB0dZJqLIDCqMSCDquWB6vtE5LKOyrhvLjKLL2wqqGoiqx5aSsOOhV947MqlVPOQxheRVVkZe2NFbfdtKLtHL3KCU02jZGxNR0rdlZcJa3A6kulFpRBJRZADu3l+mEBAN2pxCKrRqN5op0HB1KJRZ10G1Wwk1v49Ex7/NkbZEWNStgvKl/SKboXy7y8oyD2WtHv7zwE5hU9amFSWSvBuom2o7k7Oe1/kqWtwIKBoxILOqxc3ugs24WuwiUn2DkAQFeHLLFvAIoixIIOy5YEQiwSm6/EihPdqV3oq5v5ZTt1Tk+6HOUoej93niNVU/Tnq/r3C9RH0p8jWX9vpv093ikaoRCA/IRYADmoxAIAoAyN5ujZdiwcSIgF0EdJ7/yWRQVMMcqqKMp757+o9yvr+wIo++dF3t+zRf280tydPmnoF8ygEWIBZDS78ky7DgCIpS8WQDGMTghQAapSBkvZo2rV7XxxfgN1U/TPcT8FqZjO0Q2NdkhtqMQCAAAo0drjZAMARVCJxSDLdNOr0QgOdVaQ1Pyd2qIqTfJuJ+n6KmN6o3M/l1WZVVXOM6AoSSuj8i6XdX0/7wB6QyUWdBgfDc6wT0iivfIs+wkAAKBHVGJRRW5lUVudlVlFVWp1ru+Obz0NemWW8xKoqqJ6XHWrwBq2SluAflGJBQAAAEDlqcQC6CE9q9hf3SuznKfAoIirqFJxBVANKrEAAAAAqDyVWAB9oIKFhXQ7L/p959/5CgBAFajEAsioMbXFrgMAAOgRlVgAGTWmN9t19ETSSqikFVsqq4C6StqbqqzRCKEm5n/RO3EZOCqxoENrNpBMAAAAQMWoxIIOs+3gYfuEXul1RYwKnMHm+AIAMMhUYgFk1NQTCwAAoGeEWAAZNaaFWABAvHseVSkLUAQhFgAAAACVJ8QCyGFkxwa7DwBY1K5p+wegCEIsAACAEj34hMcJAYogxIIOrdlgu31CUs0JlVgAwOJUYpFF2G6tt+PgQEIs6PD0RLjRPiGpxqzMEwBY3ENPqsQCKIIQCyCH5u58mWcYhnNfvdLr9wOAYbd1Ytj3AEBxhFgAOTR2b7L7AICutu5QhQVQFCEWQA6N2YmgMbXZLgQAFrTpUSEW2YTtlj8yoYMQCzr85C+1vmafkEZTNRYA0IXHCckqbM8+bOfBgYRYADkJsQCgWqrUA/LBJyvwIQAGhBALIKeRHUY/BgAWZmRCgOIIsWAB7TDIN+QcQyVLc/e4O8RGEQSAg9VtVF/9sMhjeufWrHdKw71fMHCEWLCAdjvYbr+QVNTcvblb7gkAHEiIBVAsIRZAAZoTGxbcSOcdXBVWADA8HnzCwSa72akdbqxDByEWLGBqJjBCIamMPHOLHQYAHEAlFnl884/OvNsOhAMJsagiz3BTO80dG4KgtW1fpVXWCqxuyyXdXt73AYBhVEavyijA2j3tdAIokhALFjA5FWy2X0ir2yOFAMDwueN+B53swnYr/chBMASEWAyyzBVdO3aHQixSG9nmkUIAKEOvKpqTbr/b1/42epSQfLbZf3AwIRYsYGK30QlJb+SZmz2fBwAEWyeC4KEn7QeyC8O26xFYgBALFvCyX2lpokhqjdkdjawN3vvVo0pvLAD4sby/F+fX/8YDdir5hK3pjXYhHEyIBV2EYTBh35DWyDM322cAMOT+4bseJSSfsN1SiQULEGJBF7PtQDUWqTWf/sJMYzb+b45uoxh2Wy7p627LAUAd1bFS+dlHCYVY5DMz+UyZ1yKdvYONDk9tCLGgi3aoLxbpNdqTY82MjxQCAPV3xwMCLPKbndrhWgQWIMSCLqamA8+hk8nI49dtTzN60UJ6fedZ5RYAdZZ1VMK0FdFJ3PgdIRb5ffOPziziWkSFFQNHiAVdTE4Hm+0bshjZfffqxpTTBwCGzaZHG8ETOxx28gnD9ha7EBYmxKJOkj67Xcgdh12T4cPODrIa3fyBZ7KsmrXHld5YAAySqlUkJ62w/ofv9ugDM9jCtusQ6EKIBV18YUPocUIyG9n2t0uTNHgHAAbDrimjElKM9uy06xDoQogFXbzv2tntYRhM2D9k0Qhnlo08+onY8yeuV1avK6xUbgFQJ1WpYI7WufGfnDoUJAy37fd0yWJfMHSEWLCI2XZQ5tC2DLiRrf+95RgDwHDQ0J2iTO/cut7OhIUJsRhmcT21wtas5u5k12zvPKzx+B8/nWWUwn7fWVaRBUA/9LrSOG560s8TPUa4e7qwj8uQ27NtS9KeWEl7ARulkIEhxIJFTM2oxCKfsS1X2IMAMODW3aEKi+L8039/vRvp0IUQi0GS9U5E53Pm+zw9obk7+UTVWM0fffbppBupSm+sXm0fAIICK4bLrnRe6OvL9wbBEzscRooRtltZHiXsS6VVuFev35fhJsSCRdxyR6gSi9yiaiwjFQLAYFKFRZHCdksVFixCiEXP9TGxT32H4tf+yAiF5DdXjfXox+dSrMXu5OapwIp7Hbe9OCqyAChD2T0by65wjnphqcKiSO2ZPZ4EgUUIsSCGEQopwujj14yrxgKAwbFrKgg+81VVWBRrZvIZ1x6wCCEWxJicCgxxS26NcGbZyAP/ZVfS7ZQ9yqCKLAD6qejfJ0VXKCepnL7xO0YkpHhPfPemPJVYRfXGMpohlSXEghjbd2nuTjFGn/6rQ5q7nU4AUHdbJ4LgL+5wGClWGLa3/OCWS5XuwyKEWFRZJe4kfPdhjxNSnNEfvOuAe7Zl98aKk7ciS2UWAEnk/b1RtQrlz3w18aKQWNhuue6AGEIsiPH697c2a+5OUZqT942PPn6N/QkANfWN+4Pgjgf0wqJ4YWtayT7EEGJBApq7U6SRLb/TCvY8vOgd37SVWVl7gSSdH0dlFgD7K+r3QlkVyll7YUXN3P+7Zu6UZHrXE18raMvdnkTpnK73FbUjxIIENHenSI327tGxBy6yTwGgZtbd0Qi27nDUKEfOpu4wFIRY1FHSOwiF3Vl4cntY1F0RmNOc2BBEjxWm7YmVt8Kq7IqsuM8LwGAq+ud+0RVYaX+/LmTTI0Hwxe8M5OGjAsJ2a9MPbrl0237XMKHKKTiYEAsS+MIGIxRSvNGHLw+MVggA1Rc9RviJWz1GSHk0dYdkhFhwsIPufrzv2tltrdlgk31F0cbuvyhozB48knLWnlhJ74AnrcgqqzIraQUaANVU9u+JbvPjpid9nbYnVhRgeYyQMrWmdizWviRrRZbKLQaOEAsSas1q7k7xGrs3BaMPXWbPAkBFffm70WiEjg7lmp74oWsNSGDUTmIAzd9tiKv57nZXYsH1JnYH65eOB29zwlC0kSfXBeEhpwetY96zb8uNxoGnYefd4vn589O7Ld+5XNL1OyVdLi/VWCyk7PMO+LFe/xyOe79u89OuF7edzn/nPfhEEHzmK34GUbIwnPjmH52ZpcdEX/5wCv3BRh+pxIKE/vkHmrtTnrn+WBMGwQSAqoj6YF15UyPYPe2QUK52e8Z1BiSkEothlLRS6wCvf39r89StY1uajeAEZw1lGP/eO4KpM74ahEvWHLT1uEqrbtPzVmp1SrocFMkNXxgcSf97TluB1a2SqtvrJJVcv/8lfbDojfb07rx3Mov6RekXLpWnEgtSmJ4J3CWhPLMTc0HWQo3eAYDe+cxXG/pg0TN7tm12jQEJCbHom3CvBO9f1KgaubcT9cUq4HNAV1Gj9/F7z983O24Uv7jp3V5nnd5tfaMLArCQokbPTTqaYLflk/4ejb7+/t4w+OJ3HE56JHs/LBhKQixIQV8semFuxML7L7SvAaDHvnF/EPzBrR6Vp3fas9NukkMKQixIIeqL1ZoNNtlnlG3kiXXB6A8ODrL6VZGVtTJLpRbAcMn7e6Pb/G7L5/29t//8B54Igk8IsOix1tTETfs9MdL5lVa3J086pxf1pAv0nBALUtoz7ZFCemPkyXUqsgCgB6IA67L/FRiJkJ7b+djdnvSAFIxOSJ11jjLYbdTBTKMRdrs7sW1n+LUVyxrvdubQC1FFVnQmtn7i6rl3ixtNMGu1U9JRCvOOTpj08xn1EKDasv6+STIqYJLpWV8vNDrhXID1PwVY9F4Ytrd8509+fvMibxx2+TeOKisGlkosSOnkt7Zuss/oJRVZAFAOFVj0U7u1x3UFpKQSi0GWtAKr252KrutNt4Kbx0eDc5099ErWiqysr+elrczqtlxa+mdRByoGGSRl/dxNut1eVWDtTwUW/dba/UzWNiX+UGJoqcSCDHZN6otF70UVWWP3nhcEre32PgDkoAKLKtjw0VNVYkFKKrEYZll7ZQV33hfe9LMva3zY2UOvNSc2BOP3nhdMn3ZTEIyuLq0iq3M785L2xCqrQguqRMUg/Fja/x6SVl51m561Ait6/Y37g+D3vyTAor/aralbCvgARf0iSrSd0C8+KkAlFmTw+ve3Nrdmg032Hf3Q2L0pWPJPLwoauzba/wCQwpfvDYIrbxJg0X+tqQlVWJCBEIu+C/dK8DnCgu42FLKdPdMeKaSPZifmKrKaW68/4C5z9P/3/+qcHve623Kd05POj1s+7RcA/dXt53ban/tZf//ELbfYetfdHgafuNUJRDXsfOzur+13XZL3+qTb+kVdP0FlCLEgo+9tCa+37+ir2Ylg9P6LgtGHLnUcAKCLXVPPNnD/4nfsIaohbLc2fedPfn6zwwHp6YnFIOjsbdWt11XmHlgd6895xYWtu6duHdvSbAQnOIvop5HHrw2aE+uDmVOvD4KlJ859kqxVS0l7bHVOnxf3vkYthB/TI45+KPvnaNz2e90LK2rgfuUXg2DrjgQfHnpkdmpnt5vhYcy/eflDitpTiQU57JkOPMtOJUR9ssbvPidoPn2zAwIAe/tfRSMQCrComolH7nINARk13NWmKhrJb0l3W65zeiPh9Lj1uv5756dGz3jx8xt6Y1Ep7ee8Pph5/tUHjF7Y+Z9X3Otuy8VNTzo/K5UrAP3V61EIu01frAIrenwwGn3wjgecLFRPGLa33PYbq07f+8HiKq+6/RuknN/tddz0AxcSHlABKrEgh5f9SmtjOwy22IdUSfOZW+ZGL1SVBcCw2fhIEPzq9QIsqqs9M+kPNMhBTyyGQVwvrFy9snbvCW5esSx4tzOJSpmdCMa+9465qqzWSR8Owr29spJK2xsr6fxuyyflBiCDRGUh/VDWz9F+98LauScMbviG5u1U3+4nvlfE4FA9/YNIBRZVohILcjJKIVUWVWVFvbJGtnzEcQJgIH3j/merrwRYVF30KOG3rj5nowMF2emJReUk6I2VtidW5+vMPbC6bWfq1rFNRimk6sIlJwStEz8ctA87t2uvrHlJe2YlnZ92uX5RGQNwoKJ6YMXNT1uRFf27dSIIPv0Vjw5SH63JbZd+9bePvzpBr6t2x+usPbI6Je2RdeBCQgMqRCUWFMAohdRBY2rL3COGY/eeFzQnjEcAQD1FjdvXfSMIfvmzAizqxaiEkJ9KLCqnAqMUpq7UMkohddRedVbQPuHSoL3q7H2fvuhRCtMul5SKKSie/66qoep/myf9fEVVZHW+/vt7wuDTXw2C3VOJPgZURthubbrtNw89a/7UzvhvELNe5/xur+OmH7iQ0IAKUYkFBYhGKWzNBpvsS+qkObEhGL3nvGDsnnNVZgFQaV++Nwj+rz8Og0/cKsCinmYmn7naoYP8jE7IMEk6SmEQs9yCduwOrn/OyuDDzijqpjGxIXj47ncE1yz5teBNz/t3wUsOf+G+7yDrKIVpl+u2XjduCDKI+l0J5b+rwVbXUQmjyqvo0cGtO3J8SKiAH971P24u4FP4Qc3Q8zghlVPi44Sdrwtt9H7lL48c+r63NB+u3h6FxX2/tSq4cPtZwc5wbG65o5cdEbzxef8ueN0J5wQrxw9ZcN2yHyP0WBPDyHlPmeoUYkU9r77wT2Fw4z892/8K6q7dmrrl9v92+NtyPEaYtpG7xwkZWEIsKqcPIVa36an/3fk3YzcsGQte76yiLjoDrE6vPeHs4Oxj/nVwzjH/+oA5RY1WmHV5qCLnMXWW95qgiDBr4yPPVl79w3edSgyWqe2Pvn3DR0+9KUMoVVaIJbyitoRYVE6dQ6wH142ee/yRjesTfn7oq7gAa3+HjC0PzjnmpfsCLSEWHMx5TJ31K8T60fYw+Pt7w7meV1snnEIMnjBsb7ntN1advvcbE2JBTkIsKitHmJX1dSGPGU7dOrap2QhOcGZRZWkCrE6HjC4Lznnuv57rnRUFWivGlu9bQnjFIHF+MszSXiOkCbGisOrr90fN2sPgwSecZgy22eld137lg0dfsvebLOqxwaxhVtz0AxcSFlBBQiwqq64h1jNfHLtqxbLg3dXdswy7PAHWQn5i1ZrgJUe8MHjJ4S8IfnL1ScExy49IvK6QgCpzfjLMig6x7t4SBt+4P5x7ZFBwxTB56r6/e9E//9kvzvfNFWJBTkIsKquuDd5v/J3RE1/3isbd1d2zDLOiA6yFRI8enhIFW4e/MPiJ1WuClWPLDxjxMBAO0CfOO0gva5gVhVUbH3k2tNr0iB3PcApnZzbc9oHnnFtiI3cN3Rk6Qiwqq64hlgbvVFUvAqzFzIdb0eOHp6w+cW7JY5YfGRyzLHnlFuTRqxArOr/3f8wW6izuWuFHE9HjgWGwccuz//+BJzwiCPOmdz1x4forT75BiAXFEWJRWTVu8B48uG70PA3eqZJ+B1gwTN6/9rLghCUvcMwZGLumguD+rc9eM0T9rKKwKpomrILuKtrQPW76gQsJC6igUQcFinfyW1s3Td06tkWDd6pAgAW99Qe3hsHopL/7AYZZe3q3G9pQgqadSlWFe/Xg44UJS2rDhF9zdk0GfnHRdwIsAIDe2/bQhhsSvGm364u45eOmJ11u4Tfp3XUYpCbEgpJce2P7GvuWfhJgAQD0Xntmct0//9kvbrbroXhCLAZB1jsSSe90JK3UOsBln5ndPjkVrHOG0Q8CLACA/pja8fifZ7l+2E/cdUim6xMYBEIsKNHt3wk/bP/SawIsAID+CGdnNnz9/ztjvd0P5RBiwcGy3tk46Hn2Cy5vPTzTCjbYx/SKAAsAoH9m9mzbvy9uqp66QDwhFpTs4R+pxqI3BFgAAP0Thu0t6688OX1SK94AACAASURBVElDdyAjIRaDJO+djLQ9shLdQXnh/9la35oNNjnTKJMACwCgv2b3TFyd8QNk7YFlVEKGjhALeuDpHUHWX2gQS4AFANBnYTjx6Lf+WBUWlEyIReUVcEegqFEKM7//cW+Yub4dBltybAMWJMACAOi/2eldV9//dx/YVlDPK6MSQhdCLOiRJ7cHemNRKAEWAEAFhOHEI3dcd41DAeUTYkF3eXtkHbD+cW+YuUE1FkURYAEAVMPeKqzti3yYrKMTqryCDkIs6CHVWBRBgAUAUB3bHtqgFxb0iBCLQZT0jkXW0T8y3xH5079t3xyGwYSzjqwEWAAA1dGemVz3z3/2iw/3aJT0pK+TbvfZhYxKSI0IsaCHLvvM7PaJ3YHn5clEgAUAUC3PPPBVT1pADwmxqI0SRilMOj/vqCIHfF33xfbVemORlgALAKBa9lZhbd7vQ6XqmbsAPbAghhALeiyqxtIbizQEWAAAFROGE1u+fs37HRboLSEWdJd3dMKujFRIUgIsAIDqSTAi4WLirhvyPiGioouBJcSCPtn6TPAR+57FCLAAACooDCceueM6fW6hD4RY1E6K3lhJ72DEvU663bjlD/g64U0z16vGohsBFgBANe1XhZX5yYwOWSuvclVcGZWQOhJiQR899mToOXoOIsACAKgoVVjQV0IsiJf0mfXUd2BOfmvr5plWsMExYJ4ACwCguqZ3P/n+FL2wjE4IBRNiQZ898MNQbyzmCLAAAKorDNtb1l958g0OEfSPEIthUJXeWJ3rzX2d/p9aX5uaCW5xJg43ARYAQLVNT/xwvhVI3l5YaUcnTHqdkuj99cKizoRYUAH/8G29sYaZAAsAoNrC2ZkNGz566s0OE/SXEIva6uMdhKQVWonvzFxweWvz9l3BVeV9ZKpKgAUAUH07H9+U5qazXlhQEiEWVMTVf92+JgyDCcdjeAiwAACqrz0zue5bV5+z0aGC/hNiwcHSPmOe9xn4ua8PfHZ22xPbA48VDgkBFgBADYThxJavXzMQvbBgEAixoEKOe8PMDTOtYINjMtgEWAAA9TAz+cxH7v+7D2x3uKAahFjUXoreWFnvXORdL9Udmo0PaPI+yARYAAD1ELZbm772O2uuzvvERYLle8KohAwCIRZUzCsubG3cORlc67gMHgEWAEB9TD7zsJvLUDFCLOiuL72xohnXfKH9YU3eB4sACwCgPqJm7t/4vRev7/jAemFBnwmxoIIu+8zs9h89E1zq2AwGARYAQI2E4cTmDX/ob3GoICEWA2PQemOd8KaZ6zV5rz8BFgBAvUzvfvL9D9z6oW16YUH1CLGgwv7+rvA9HiusLwEWAEC9hLMzG9ZfefINDhtUkxAL4pXVG6vbHZt9611weWvzxO7gGseofgRYAAA1E4YTT33vSxcu8KFj/27vQi8sKJgQCyruiJ+f+UhrNtjkONWHAAsAoH5aUzuuufvP37zZoYPqEmIxzHrVGyv3KCZ33x++x5laDwIsAID6CdutTV/9rWM/XNLog53L9YReWAwiIRbUwCsubG3cviu4yrGqNgEWAEA97XjsOws9RghUjBCLgVPiHYduz6jnfVY9UaWWxwqrTYAFAFBPs1M7P3LnNa+5e5EPn7Ynll5YUBIhFtTIP30/dIeoggRYAAD1FD1G+JUPHfMRhw/qQYgFxd3pSHtHJvXohWde3LrbY4XVIsACAKipaDTC+/7u7ft9+Ny9bKtQQaUXFoNMiAU1Ez1WONMKNjhu/SfAAgCor5nJZz5iNEKoFyEWA6sPvbG6LZe2Miu2Quvv7wrfE4bBRAHfCxkJsAAA6iucndnwtd9Zc3XWJyQyVl7phQU5CbGghi64vLX5R88Elzp2/SHAAgCosTCcePhrH3+7Qwj1I8SCHyu6N1a36YXc6TnhTTM3TM0Etzh+vSXAAgCot6mJx97zwK0f2rbAN5G3J1bS6aXQC4thIMSCGvu9z7UvbIfBFsewNwRYAAD1Nju969oNHz31ZocR6kmIxcAr8I5E0c+w5x6t8AOfnd12132hUugeEGABANRb2G5t+soHj96/JUfaHld6YUGfCbGg5s68uLXxqYngMsexPAIsAICaC8OJHY9950KHEepNiAUHK+qOR9Y7KqkrtI75hZmr9ccqhwALAKD+pnduvfTOa15zd84etXHLJZ1eKL2wGCZCLBgQ+mMVT4AFAFB/7ZnJdes/8vwbHEqoPyEWQyPDHYpePdOed9TCOR/47Ox2/bGKI8ACAKi/qA/W7Vcc+Z6SetR2m5+UXliQkhALBkjUH+vxp4OLHNN8BFgAAAMgDCeeuu/v3OSFASLEguKkfRa+qNFPDvg64U0zN0xOBesc12wEWAAAg2H3k99/+91//ubN+30zVRmNsBB6YTGMhFgwgFadO3NhazbY5NimI8ACABgMrT0TV33j91+63uGEwSLEYuiU2Bsr73YKrcz63b9onxeGwUSKzzfUBFgAAIMhauT+1d869iMlVl7lrbTSCwsyEmLBgIoavd95X3ie4xtPgAUAMBiiRu6bN/zhpQ4nDCYhFkOrwGfIez1aYeI7RWde3Lpbo/fFCbAAAAbE3kbuD9z6oW05RxlMulza64BCKrD0wmKYCbFgwEWN3ndOBtc6zgcTYAEADI6JR+86r6OROzBghFiQXN5n3dOOVljYM/zPOX/m0qmZ4BbH+scEWAAAg2N6x48uuvOa19xd1t/THcvFTdfbCkoixIIh8XufaxuxcC8BFgDA4Jid3nXt+o88/waHFAafEIuhV+HRCrtNz3QnKWr0bsRCARYAwCCJRiL8ygeP7mzkPpCjEeqFBUIsGCpRkPWNe8PzhzXIEmABAAyOaCTC26848kKHFIaHEAvKl3VUklLuIL3qV1t333lfeN6wHXcBFgDA4IgCrIe/+nvzf9PG/V3cbX7Wv7+zvs5EBRb8mBALhtCZF7c2PvZUePGwfOcCLACAARKGE0/+yy3veODWD213WGG4CLFgrx70xko7KmG39QupzDrxza3rH386uCjB91lrAiwAgAEShhMTj9513sbr3/Zwjp5WSZcrazRCoxdCRkIsGGInvGnmhp2TwbWDugcEWAAAAyQMJ7Zv+eb5d17zmo0OKwwnIRZ0qNBohXnvLCV65v85589cOjkVrEvxOWtBgAUAMFimd2699K5P/czdef/+zdH7KmulVtz0BemFBQcTYgHBqnNnLhykIEuABQAwWKYmfnjx+o88/waHFYabEAvKV9QoJkXdUVpw/UEJsgRYAACDZXrHjy7acNUp15fwd3DcfL2uoGKEWMA+UZDVmg021XWPCLAAAAaLCixgf0Is6KLA3lhJl8/7TH63+anW/92/aJ9XxyBLgAUAMFhyVGDl+ns4x5MT3eiFBQURYgEH+MBnZ7fXLcgSYAEADJaZXU9ergIL6CTEghg9GK2wqNFPCrtDVacgS4AFADBY2jOT67525UlXL/BN9br3Vdbl4qYvSAUWxBNiAQuqQ5AlwAIAGCxRBdbtVxx5ocMKLESIBb1XVO+svL2yYudXOcgSYAEADJaoB1ZHBVa/el8l/Xu9kAosIDkhFrCo+SBrcipYV5U9JcACABgsRiEEkmh45BbSaTQajbSrpJyf9XW39QqbP3Hz2CeXLQne2s9TRoAFVN3yxy4NRidf4DgBJBRVYHUEWGGXf7vNL2q9rK87pbrI1gcLklOJBSS26tyZi/pZkSXAAgAYLCqwgDSEWJBSgaMVJl2+qFFRChm9sF9BlgALAGCwRBVYG6465fr9vqm8owum7Y2V9e/uboxGCCUTYgGpRUHWE9uDy3u15wRYAAADJAwntm++49UqsIC0hFjQO1krqOJelz164YJ3to79xZmrH386uKjsvSfAAgAYIGE4MfHoXefd9amfuXu/b6rQJwcWmN+prCcfElGBBdkJsYDMTnjTzA0PPR7+UhgGE2XsRQEWAMDgCNutTdu3fPP8O695zUaHFchCiAUZlXAHJeudorjliu4ZcMD0U97RuunO+8Lzig6yBFgAAIMjCrAe/urvlVWB1amonlhZpwMlEWIBuZ15cWvjFza0X9WaDTYVsT0BFgDA4GjPTK576PaPnv/ArR/a7rACeTQ8igvFaDQajZQbilu+c3635Rtd5nd7HTc963rBh/7TyOr3vrl5/dhocFaXzxpLgAXU3fLHLg1GJ1/gOAIEQTA7vevar3zw6Es79kXY8W+36XHzk05Pu1zc9KTzD1zYxTfkphILKMwHPju7fflrZ86fnArWZdmmAAsAYHBMTfzw4q988OjLHFKgKEIsKEiGHllxz9AnfUY/6fI96ZEV/f9V585c+MT24PJFPutBBFgAAAMiDCd2bf3uBRuuOuX6Rf7WTPI1L+vfqXHLdZP27+7FN2Y0QiiMEAsoxbG/OHPNvQ+FFyRp+C7AAgAYDPMjEN7xiZevd0iBogmxoP/SjmqSdlSVvlVkvfiXW1/7xr3h+Ys1fBdgAQAMhnZr6paogfveEQgL+XuyoAqsbvIuvygVWFA8IRZQqlf9amvjh69vnz81E9zS+T4CLACAwdDaM3HV7f/t8Hc8+OUrjUAIlMbohFCSDKMVzosbhTBuetbXmUclTDr9yS+MXbL6kOCSQIAFDDCjEwJDJQwnJrc9fNHXP3b6zSWMKph1dMG0r7utFzd9UaqwoHgqsYCeOeLnZ66K+mTdM33oQwIsAIB6m+9/tTfAAiidEAtKkuMZ+G7P2iedXlaPrEKmv/iXW+v/85NnfV2ABQBQX+2ZyXV7+19t7PXfkwtMz/q623px0xelFxaUR4gF9Ny3/4+/vmh298xV9jwAQP1MTfzw4tuvOPIi/a+AXhNiQclKuBMzEBVZ//Sfb7xq8pGJC4IwmMiwDwAA6LG5xwc33/HqDVedcv0Cf/Mt9lXI348LTM/6utt6cdMXpQILyifEAvrmnvfeuv6x//XdF4cz7YNGLgQAoDo6Hh8E6AujE0KPZRi1MG75uoxauOhyL7nuvAtHVy65JGgEqwKAGjM6ITBQwnBiasfjl2246pQbMowOmHd0wV6PQph0/oELu6iGnlGJBVTCd9510zU7v//U+eFsuMkRAQDov+jxwSe++8VX7Q2wAPpOJRb0yRBUZGVe/1/98QWXjCwfuyQAqCGVWMAgaO2ZuOqrv3Xs/EA8ZVdgFV1xpQILBpRKLKByoqbvO7/31KuDMNzi6AAA9M588/b9AiyAylCJBX2SoRJrXr8rsjpfl1a5dewbTlt9zHmnXNJcOvruAKAmVGIBdTU7vevar3zw6Mtq3PNKBRYMOJVYQGU99j/v3f7t//iFyyYfmbhArywAgHKEYXvLrq3fvWBvgAVQWSqxoM+GuCIr9XJ6ZQF1oBILqJOo99WWf/yjax/88pXbC6iQ6lfFVU8qsPat5CIa+kaIBX0mxEq33As+9JozDnn+c65sjDTPCgAqSIgF1EHU+2rikbsuuutTP7Nxv48rxEpAiAX9I8SCihigMKvzdd5wa8H1XnLdee8ZXbnkkqARrAoAKkSIBVRaGE60pnZcs7dxe9FhVdnLdRJewZDREwuope+866ZrHvtf331xe6r1F44gAEC8dmvqlie++8VXGXkQqCuVWFAxQ1iRlXu9tR/72bOXPnfllY2RxukBQJ+pxAKqJmrcvmfb5su+/rHTb9770Yp+7K9XoxFmnR633uIruWiGyhBiQcUIsbKv5xFDoAqEWECVtCa3fXTL16++Zm/j9nlCrBSEWFAdQiyoqAqEWd2mFx0+FRqSHfuG01Yfc94plzSXjr47AOgDIRZQBdGjg0997+8u23j92zb3IJwqar1ur7NOj1tv8ZVcLEPlCLGgooRY+d7v+f/1lWsOfckxVzbGmq8PAHpIiAX0UzTq4O4nv3/ZHZ94+fr9PoYQKwMhFlSPEAsqbgDCrLjXpYZdz/bLWnFJY6R5VgDQA0IsoC/CcGJqx+OXbbjqlBv2e/uyQqWyt9tJeAXMEWJBxQmxiqnYevE1575t7NCoX1bjhACgREIsoKfCcKI1teOaLf/4R9d29L0KhFhCLBg0QiyoiSEIszpfl7JdYRZQNiEW0Cvtmcl1D3/t45ftF15VNYwqO8zKutyBG3dxDJUnxIKaEGIV+/rZMGvplUYyBIomxALKNju96y+e+t6Xrtq07pce7ngrIVa65Q5cycUxVJ4QC2qmxDArbrlehVc9ex2NZHj063/i3SPLxt4jzAKKIsQCyhJVXj31/Vuv2jviYNDDMGkgHxvct7KLYqgNIRbUjBCrnNceMwSKIsQCilZC5VXa10IsoBKEWFBTFQ6zki7Xr8cMF11OmAXkJcQCitLHyqteve72PnHTk85ffGUXw1A7QiyoKSFW5u0kWi4Ks0ZXjb+1MdI8q8v6AAsSYgF5VaDyqlevu71P3PSk8xdf2cUw1I4QC2ouR5g1r66N38t6fcB2137sZ89eevSKdzfGmq/vshzAAYRYQCZhODE7s/uGp3/w5WtTVF51m96vxwbzLhc3Pen8xVd2EQy1JcSCmhNiFf56we0+/9deceLqf3XMJc3x0ddrAg8sRogFpBGG7S2zeybWbd7wh9c+dNtV2zpWFWJlm7/4yi6CobaEWDAgahhmJV2uUqFWNKLhUT/3vLeNrhx/t75ZwEKEWEAS4ezMhuldT67bcNUpN+y3eK9Dq7Jep/1+ipq/+MZd/ELtCbFgQAixSnvddbtrP/azZy05+pD3NMdGXtdlHWAICbGAxUT9rnY89s/XfvvTP7exxEonIdZCK7v4hdoTYsGA6WOYFTe/7Mf+ynrf2OWe/19fuWbV2iPfOrJs9G2qswAhFtApemSwtfvpax+547obHvzyldv3m13X0CrvcnHTsy534MZd7MLAEWLBgBFiFf6+qZaLGsEvOXL525pLRt/SZTvAgBNiAfOiqqs92zbfcMcnXr6+y04RYiUjxALmCLFgwOUItZKuV9fHDEtdL+qddeTPnHzu6KrxtzZGmmd12QYwgIRYMNzCdmtTa3LbugWqroIehlad03v1Pnmnx20vEeEVDC4hFgw4IVbh75N6uef/2ivWrDztyNePHBIFWo3TuywHDAghFgyhMJyYnd61bscP717XpdfVPCHW4tOTzl98ZRe5MLCEWDAkKviYYdVCrqLXW3B61D9r9RlHvbu5ZORc/bNgMAmxYEiE4US7tefmqZ0/uuXrHzv95o5vutchVtb1evXYYFHzF9+4i1sYeEIsGBJCrGqEWPtPV6EFg0mIBQMsqria2X3L9K4nbv76x06/pYAKJCFWuvmLr+ziFgaeEAuGTI0bvxe9XNnvl2r9qEJr5amHn9tcNnp2c2zkdV22BdSAEAsGzOIVV/OKfuyuX48dpl0u6/Sk6ydb2UUtDA0hFgwZIVbP3i/t+vvmP/cXXrD6iNecdNbY6iXnNsdHzvLYIdSLEAvqLwzbW9rTu2+Z3v3k+piKq3lCrHTTk66fbGUXtTA0hFgwpHoQZsUtV7fHD8v6HHHTgxd86DVnLD1mxdmqtKAehFhQT+HszIbWnu237H7q/vV3fepnNnb5Jvr1+GDS5fr1OYqen4jwCoaPEAuGlBCrPiFW5/y1H/vZs8afs/Ts5tLRsxojzbNi1gN6TIgF9RC2W5vaM3s2RNVWP7zrf2x46LartucIZ4RYxc5PRIgFw0eIBUOugDBrXq8eM+w2vej1ex1WZd5/az/2s2ePrVpyxlyl1mj0+GGwKmZbQImEWFBNc48IzkxuaO2ZWD/xyLfWb7z+bZsX+aBlP05Xt9Aq7XbSrp9sZRevMPSEWDDkhFi5t9f3EKtzfjTq4YpTjziruXT0jOZ483TVWtBbQiyohujxwHZralNHpdW8siuu0k4XYiVZ2cUrDD0hFnCACjxmGDe/6qFW0dPjtpdoftRXa8mRh0Sh1pq5xxCbzTNUbEE5hFjQe/NVVu2ZyY3Tu57YeMcnXr4+5kMMSoiVd7ms0+PWy7rcwiu7aAX2EmIBBxBilba9rNPj1ks6/6DlolEQDzvzhNOjRxEbYyNr5qq2mo01RkOEfIRYUK65CqvZ6S37BVYbFnjDsno2CbHSzU+6ncVXdtEK7CXEAhZUgzCr2/yyQqW6h1ipjucLrnj1i0ZWjK+KGshHr6PqrbmNeDQRYgmxoBjzYVU4O7N5ascP1+9+8vubY/pY7W9QQ6x+bTfp/LTLLb4RF6tAByEWsCAh1nCHWLGPJ17x6jOikCv6//NBV9Bsro6qufZtwCOLDCkhFiQTjQ4YhOH2qG9V2G5tn9mzbWN7ZnL7j+7+n5s6+lcFGSp5hFjFbjfp/LTLLb4RF6tAByEWsKgeNn5PulxVQq2071f0+yadn3a5rMsn2s7aj/2sSi4G2qGN//fXxqdf9m8b7eUONMMnDCfCdmvj/Pc9X0UV/f/5gCr6/wn6VS2mqBClrAbmdQutipqfdDuLr+ziFIghxAIWJcRKPV2IVc52oDZe8avfEtYyFLr0ooqT9+JDiFXsdouan3Q7i6/s4hSIIcQCUqlRqFVUKNTvxwXrFmIJrQBIIutFSL9DrLj5VX2ssOj5Sd8n2UZclAIJNe0oAAAAAKpOJRaQSR8qspIu36tKqLo0dE+7XNbli16/31SUAXVTtz/q+12JFbdc1Rq/Z50et17S+WmXS7YxF6NASiqxAAAAAKg8lVhALgVWZM0rurKo3xVYZa2XdH7a5bIuX/T6AAy2qldixc2vagVXUfPTbi/ZRlx8AjmpxAIAAACg8lRiAYUawsqsstbr1fy071f2+gAMh7IrsZIuX3TlVNXWK3u5ZG/qohMoiEosAAAAACpPJRZQqgqPYph0ubr3ulKJBUCV9bs3Vr/mV200QZVXQC2oxAIAAACg8lRiAT3Rx15ZaZfPu1zVKqxUYvWGCjSgaMPyR3rVK7GK2k7Wiqx+L5fsw7moBHpEJRYAAAAAlacSC+iLGlVmJV1+UHpcqcQ6kAoroKoG5Y/4fldiFb1c1XpdFbXewhtzMQn0mEosAAAAACpPJRZQCRWozEq73qD1turXKJL9ptIKGFR1+SO/VxVFVavIKmu5rNtPtjEXj0CfqcQCAAAAoPJUYgGVUkJFVqeqVDSpwAKA/JVCVa/ISrtcr5ZP9iFcLAIVoxILAAAAgMpTiQVUWgUrs7Ku1++KrqLWK2s7ZVEhBrC4qlwM9LoiK+16Vam4yrve4ht1cQhUnEosAAAAACpPJRZQKxWuzMq6flUrwcreTl3fH2BY9fqioaq9snq1fN73S7dxF4VATajEAgAAAKDyVGIBtdaDyqx5va7Q6td6Rb1/Xd4PgGL06qKi1z2ketXjqqj1k72Ji0CgplRiAQAAAFB5KrGAgVSD3llFbacuFVcqrACGW9EXHUVtr9+jA+p1BZCCSiwAAAAAKk8lFjAUatQ7q6ztqbQCoIrKuhipWqWUXlcABVCJBQAAAEDlqcQChlIPK7PmlfV+KqwAGAZVr9gqa3uLv5mLOWDIqMQCAAAAoPJUYgHspw8VWvMGvaJKRRfAcOv1RUfZ76fiCqAPVGIBAAAAUHkqsQAW0cfKrE6DWiEGAEkMWiXX4m/uIg1gQSqxAAAAAKg8lVgAGVSoQmte1SumVHQBDLeqXXRU4vOouAJIRyUWAAD8/+3a0Q3DIBAFQfqvOhVYiWSbLDBTwv3d6gEAeZZYAA8KLrSuWEYBsKPkc2NxBfAMSywAAAAA8iyxACZYaKH1jQUXADMs+aRYXAG8yxILAAAAgDxLLICAjZZaT3EPgDUc9UxYWgH8lyUWAAAAAHmWWAALsNQCgHksrgCaLLEAAAAAyLPEAtiIxRYAXLOwAlibJRYAAAAAeZZYAAez3AJgBxZWAGewxAIAAAAgzxILgNssugC4w5IKgF9YYgEAAACQZ4kFABcszIA6CyYATmKJBQAAAECeJRYAAAAAeZZYAAAAAOSJWAAAAADkiVgAAAAA5IlYAAAAAOSJWAAAAADkiVgAAAAA5IlYAAAAAOSJWAAAAADkiVgAAAAA5IlYAAAAAOSJWAAAAADkiVgAAAAA5IlYAAAAAOSJWAAAAADkiVgAAAAA5IlYAAAAAOSJWAAAAADkiVgAAAAA5IlYAAAAAOSJWAAAAADkiVgAAAAA5IlYAAAAAOSJWAAAAADkiVgAAAAA5IlYAAAAAOSJWAAAAADkiVgAAAAA5IlYAAAAAOSJWAAAAADkiVgAAAAA5IlYAAAAAOSJWAAAAADkiVgAAAAA5IlYAAAAAOSJWAAAAADkiVgAAAAA5IlYAAAAAOSJWAAAAADkiVgAAAAA5IlYAAAAAOSJWAAAAADkiVgAAAAA5IlYAAAAAOSJWAAAAADkiVgAAAAA5IlYAAAAAOSJWAAAAADkiVgAAAAA5IlYAAAAAOSJWAAAAADkiVgAAAAA5IlYAAAAAOSJWAAAAADkiVgAAAAA5IlYAAAAAOSJWAAAAADkiVgAAAAA5IlYAAAAAOSJWAAAAADkiVgAAAAA5IlYAAAAAOSJWAAAAADkiVgAAAAA5IlYAAAAAOSJWAAAAADkiVgAAAAA5IlYAAAAAOSJWAAAAADkiVgAAAAA5IlYAAAAAOSJWAAAAADkiVgAAAAA5IlYAAAAAOSJWAAAAADkiVgAAAAA5IlYAAAAAOSJWAAAAADkiVgAAAAA5IlYAAAAAOSJWAAAAADkiVgAAAAA5IlYAAAAAOSJWAAAAADkiVgAAAAA5IlYAAAAAOSJWAAAAADkiVgAAAAA5IlYAAAAAOSJWAAAAADkiVgAAAAA5IlYAAAAAOSJWAAAAADkiVgAAAAA5IlYAAAAAOSJWAAAAADkiVgAAAAA5IlYAAAAAOSJWAAAAADkiVgAAAAA5IlYAAAAAOSJWAAAAADkiVgAAAAA5IlYAAAAAOSJWAAAAADkiVgAAAAA5IlYAAAAAOSJWAAAAADkiVgAAAAA5IlYx6s/xgAAAGdJREFUAAAAAOSJWAAAAADkiVgAAAAA5IlYAAAAAOSJWAAAAADkiVgAAAAA5IlYAAAAAOSJWAAAAADkiVgAAAAA5IlYAAAAAOSJWAAAAADkiVgAAAAA5IlYAAAAAOSJWAAAAAC0jTE+BXyjpP7FTwsAAAAASUVORK5CYII=;" parent="43" vertex="1">
                    <mxGeometry x="59.004999999999995" y="-38" width="71.99" height="60" as="geometry"/>
                </mxCell>
                <mxCell id="8" value="&lt;font style=&quot;font-size: 25px;&quot;&gt;Google Cloud Compute Engine&lt;br&gt;10.186.0.10&lt;br&gt;&lt;font color=&quot;#ff3333&quot;&gt;europe-central2-c&lt;br&gt;&lt;/font&gt;&lt;br&gt;&lt;/font&gt;" style="text;html=1;align=center;verticalAlign=middle;resizable=0;points=[];autosize=1;strokeColor=none;fillColor=none;" parent="43" vertex="1">
                    <mxGeometry x="-90" y="20" width="370" height="130" as="geometry"/>
                </mxCell>
                <mxCell id="52" value="" style="group" parent="1" vertex="1" connectable="0">
                    <mxGeometry x="90" y="660" width="230" height="395" as="geometry"/>
                </mxCell>
                <mxCell id="55" value="" style="group" parent="52" vertex="1" connectable="0">
                    <mxGeometry x="-75.00500000000001" y="270" width="280" height="125" as="geometry"/>
                </mxCell>
                <mxCell id="56" value="" style="shape=image;verticalLabelPosition=bottom;labelBackgroundColor=default;verticalAlign=top;aspect=fixed;imageAspect=0;image=data:image/png,iVBORw0KGgoAAAANSUhEUgAABLEAAAPpCAYAAADqxb9AAAAACXBIWXMAABYlAAAWJQFJUiTwAAAgAElEQVR4nOzdCZAc9Z0n+n9WVXfr7BYCCQ/G6MAYLKEWIIEN6GTHrM3lOXwMC8web7ABM/ve89oeL5cZz9hjw+6GI3yMEY7YGQPjwd63OwZ8gCPMjccHDEiAzRgbBJjBiMFIIECou+tFtrrlVtPVdWVWZVZ9PhFNU1mZWVmZJanqW7//7x+Vy+UAAAAAAFlWcHUAAAAAyDohFgAAAACZJ8QCAAAAIPOEWAAAAABknhALAAAAgMwTYgEAAACQeUIsAAAAADJPiAUAAABA5gmxAAAAAMg8IRYAAAAAmSfEAgAAACDzhFgAAAAAZJ4QCwAAAIDME2IBAAAAkHlCLAAAAAAyT4gFAAAAQOYJsQAAAADIPCEWAAAAAJknxAIAAAAg84RYAAAAAGSeEAsAAACAzBNiAQAAAJB5QiwAAAAAMk+IBQAAAEDmCbEAAAAAyDwhFgAAAACZJ8QCAAAAIPOEWAAAAABknhALAAAAgMwTYgEAAACQeUIsAAAAADJPiAUAAABA5gmxAAAAAMg8IRYAAAAAmSfEAgAAACDzhFgAAAAAZJ4QCwAAAIDME2IBAAAAkHlCLAAAAAAyT4gFAAAAQOYJsQAAAADIPCEWAAAAAJknxAIAAAAg84RYAAAAAGSeEAsAAACAzBNiAQAAAJB5QiwAAAAAMk+IBQAAAEDmCbEAAAAAyDwhFgAAAACZJ8QCAAAAIPOEWAAAAABknhALAAAAgMwTYgEAAACQeUIsAAAAADJPiAUAAABA5gmxAAAAAMg8IRYAAAAAmSfEAgAAACDzhFgAAAAAZJ4QCwAAAIDME2IBAAAAkHlCLAAAAAAyT4gFAAAAQOYJsQAAAADIPCEWAAAAAJknxAIAAAAg84RYAAAAAGSeEAsAAACAzBNiAQAAAJB5QiwAAAAAMk+IBQAAAEDmCbEAAAAAyDwhFgAAAACZJ8QCAAAAIPOEWAAAAABknhALAAAAgMwTYgEAAACQeUIsAAAAADJPiAUAAABA5gmxAAAAAMg8IRYAAAAAmSfEAgAAACDzhFgAAAAAZJ4QCwAAAIDME2IBAAAAkHlCLAAAAAAyT4gFAAAAQOYJsQAAAADIPCEWAAAAAJknxAIAAAAg84RYAAAAAGSeEAsAAACAzBNiAQAAAJB5QiwAAAAAMk+IBQAAAEDmCbEAAAAAyDwhFgAAAACZJ8QCAAAAIPOEWAAAAABknhALAAAAgMwTYgEAAACQeUIsAAAAADJPiAUAAABA5gmxAAAAAMg8IRYAAAAAmSfEAgAAACDzhFgAAAAAZJ4QCwAAAIDME2IBAAAAkHlCLAAAAAAyT4gFAAAAQOYJsQAAAADIPCEWAAAAAJknxAIAAAAg84RYAAAAAGSeEAsAAACAzBNiAQAAAJB5QiwAAAAAMk+IBQAAAEDmCbEAAAAAyDwhFgAAAACZJ8QCAAAAIPOEWAAAAABknhALAAAAgMwTYgEAAACQeUIsAAAAADJPiAUAAABA5gmxAAAAAMg8IRYAAAAAmSfEAgAAACDzhFgAAAAAZJ4QCwAAAIDME2IBAAAAkHlCLAAAAAAyT4gFAAAAQOYJsQAAAADIPCEWAAAAAJknxAIAAAAg84RYAAAAAGSeEAsAAACAzBNiAQAAAJB5QiwAAAAAMk+IBQAAAEDmCbEAAAAAyLySSwQA5EEURZELlZxyuVzulOcCAHQHlVgAAAAAZF7kSzgAoJVUVOWbCi4AoF1UYgEAAACQeSqxAICmqKxiOiq3AICkqMQCAAAAIPNUYgEAU1JhRSup2AIAqlGJBQAAAEDmqcQCgC6l0irk7fl39Zs2lVoAgEosAAAAADJPJRYAdKgOqLTq9kqxVsv1m0KVWgDQ+VRiAQAAAJB5KrEAIKdyVGmloqqz5eLNpEotAMg/lVgAAAAAZJ5KLADIuAxXXDmubMrqm7tMHpcKLQDID5VYAAAAAGSeSiwAyIgMVVy16zi6vYIqa9r1JjETb05VaAFA9qjEAgAAACDzVGIBQItloOKqVY+voqs9Or2Cqq1vXlVoAUD7qMQCAAAAIPNUYgFASjq44ipv+6Uxab1JzNt+a3tS3lQDQOpUYgEAAACQeSqxACAhbai8Svrxsr6/tI6z2+SlEirr+5v+4L3JBoDEqcQCAAAAIPNUYgFAnXJccdWp+0n6+XWKrFYydep+anvy3nwDQMNUYgEAAACQeSqxAKCKFlZetbtSqtnHb/f2rTrOdmvVm7dmH6dd22et0mv6B/FmHABqphILAAAAgMxTiQUAY1Rctf1xkt4+b487rl1vzvJSOaVCCwC6lEosAAAAADJPJRYAXasFlVftqkRKu9Iq15VZ969ZOdgbRfPGb88tFddNvL8QRYsKISyaattiFK1N4hiGy+U7p1o+EsLWkXJ568RlLw4N3zH+/6+Vyy8cddcDm5M4hg6uvGp1pZbKLABoESEWAF1LiNWy9Rt9nJq3v+1tyxct7O1Z1FsoDPQVopXxslIUDYYQRsOq4p7/H2jy8bNm+3C5PBpoTQy/do2UH3htZGT7s6/t3rrhhw9tneaYhVjt3a6+g/OmHQCEWAB0jw4MrdJaP+n1mj3uvdVTc0rFwSiEecUoWhmFMFDY87u/wePoCuUQdoyUyw+U94Re8e8XXhoa3txEVVfaIVHS69W730bXT3r76XfuTTwAXUiIBUDXEGJlO8Qar6aKh/cVomigEMLKeGhfFMIhDT4ONSiH8ERcxTUSwgPD5fLWOOCqUsUlxGrN9tMfnDfxAHQhIRYAHSvDoVVewqdUjnNSWDXafyqpXlMkK+7dNT5UMe7NVcMQxYnSCo3yFoY1u11tO/emHoAuIMQCoGMJsVq2XsXHf3jtUetmFAuL+gqFwbiySljVEUZ7ccWVW7tGRjbvGBp+oMKwRCFWMtvVtnNv6gHoAkIsADpGiqFV3sKqtoRZ9544uHKgVFo5s1hYWwzRykIUVtS4fzpAXLU1XA6bXx0Z2bx9aOiBVXdvfqDGZ9XqUKorwi2hFgCdSIgFQMcQYiW+n4rrfXXlYQMnzJu7Lp4JsBRF61RYMYXRiq2hcvmOeMbEe1548Y4/fuDn26dYT4iVAiEWAJ1IiAVAbuU4tMpaWFV1P3Efq4Nn9K2Pq6zi0EqzdRoxUg5bhkP5gVeGR+586tVdt9fYX6tVoVS7hyk2u930O/WmH4AOIMQCILeEWOnt5/41Kwfn95TW9eypsloXQhio8ZihZvHMiHsqtUbueOKVXXdUCLWEWAkQYgHQCYRYAORGhkKrpNdv9/0qrciE8VArrtS654UXv1lh+OFkzYZTad9f7+M1u35tO/UhAIAcEmIBkBtCrGTvf3T9MafPLBbWjYVWg7U+GWiVcgijPbW27x66cdmd999R4WGFWA0QYgGQR0IsADIrh6FVs+ulGmZ977hliw+bNfP03kIUB1en1XiskAnlEHYMl8t3vDw8cuNjr7x6xzt+9PDjVY4rrXCq3cMOhVoAdC0hFgCZJcRq/v6H1x61bqCndHopis4wRJBOEldpvTYycuO/7h664ai7Htg8xVMTYtWzUx8KAMgBIRYAmdGBoVWj9ze130fWHX3GnFJxPLjqr7IvyL24l9bukfKNv9k9dOOKu+6/vcrzSSu8anXj+EbXr22nPiQAkEFCLAAyQ4jV2HZfXXnYwJr95p4xs1A43UyCELbvLpdvfGV45IY3337fjVOcDiFWLTv1IQGADBJiAdA2OQqt2jVMsOJ2cXB1wry5755VLJyuvxVMLe6jNVQu3/DS0PCNh9/xTzdUOU1Jh1cdEWoJswDIEiEWAG0jxKp/u7EZBc/oiaKzazwmYI/RCq3tu4euqTDToRBrqp35sABAhgixAGi5FMKrVodWSVdWTbu/LWuOWj+/t3S2HleQjPEeWr9+7bVrVt29+YEqO603pEp72KFQC4CuJcQCoOWEWNWX3/a25YsOmz3zQrMKQrriWQ53jYxcc9vzO6754wd+vn2KBxNiTdyZDw8AtJEQC4DUdXBoleh2X1lx6LwN8wfOmFMsXliIwooq+wYSNlQu3/Ti0PA1h9/xTze2MLwSagFAjYRYAKROiDX98ofXHrVuoKd0juGCkA1jDeG/+vOdr3xhww8f2jrpoIRYE3fmwwQALSTEAiBxXRha1b38KysOHfjd/eedM7NYuNBwQciu4XL5zp3DI9e++fb7rhk7yKQqtDoq1BJmAdAKQiwAEifEqrx8vOrK7IKQL3F11u6R8jWPvvzK56eozgpCLB8qAEifEAuAxCQYXnVU5ZVeV9BZUuqd1e5QyzBDADJPiAVAYoRY+y6fMMPgH+t1BZ2nHMITu0ZGPl9hZkMhFgAkTIgFQMPaOGwwq5VXo7e3rDlq3f69pTi8Oq3KcQAdYKwR/A0Pv/Typ97xo4cfr/CMujLUEmYBkCQhFgANE2Ltu/zR9cf8sSGD0N2Gy+Ubf7N76AvL7rz/jkknQogFAE0SYgFQtzYMG2x3aGWWQaAuNcxq2O5eWmmtN/2D+fABQBOEWADUTYgVwldXHjawcX7/n/YWCn+q3xVQSdw368Wh4U+9+fb7vjppFSEWANRJiAVAVTls2J5a5dX3jlu2aNmcWRf3RNHZVY4NYK84zHptZOSam5974Qt/suUX2+sIn7IyDLHe9abfiQ8hADRAiAVAVUKsvTMNXiK8ApoRN4F/bWTk87c+v+PzU8xoGIRYAFCZEAuAinI0bFDlFZAr42GWyqyxnfhQAkANhFgAVNTNIZbKK6AVVGaN7cSHEgBqIMQC4HUSCK9UXgHUoYbKrGZDqkZDq3o/LDT14UKYBcB0hFgAvE43hlgqr4AsmKYyS4gFQNcTYgGQpWGD9YZaTVdefWXFoQPvWrDflcIrIEviMOvFoeGPvvn2+64ZO6xWVWYZZghAZgmxAOjKEOurKw8b2Di//097C4U/jULor/K4AG1RDuGJF4eGP/Xm2+/76qTHF2IB0HWEWABdrIOGDda13uMbVl04s1i4RHgF5MVwuXznc68NfWrFXfffMXbIjYZSrW4AL8wCIDFCLIAu1m0h1iPrjj5jXk/pyiiEQ6ocD0AmxWHWgy+9/IF3/OjhxycdnxALgI4nxALoQhkIr1paebVlzVHrDugtXVyMorWVDxUgP3aXy9d+Z9tvPjo2k2GoIazKSgN4jd8BaJgQC6ALdUuI9b3jli1eNmfWxZq2A51ofCbDN91676eEWAB0AyEWQBdoYeP2pIYNNrre3ttPblx1sabtQDeIm78/u2v3B8b6ZSU9rNAwQwAyQ4gF0AW6KcR6ZN3Rp+t7BXSjuF/WIztfOXfDDx/aOsXTF2IBkHtCLIAO1oHDBitu973jli06cs6sTfpeAd1u18jIp25+7oUvjPXLavcshoYZApAYIRZAB+uGEOurKw8b2Di//0/7CoWLqx8mQHeIhxi+sHvoo4ff8U83THrCQiwAckuIBdCBWhBeZaL3VTzr4MK+nk2GDgJMLR5i+OBLL3/gHT96eHyIYdoN4IVZAKRGiAXQgTo9xIpnHVw+Z9aVpSg6rcpxAHS9Fs9iKMQCIDVCLIAO0AXDBvfefnzDqgtnFguXmHUQoD4j5bBl22u7Pzo2i+G4ekOtZkOupO6viVALoLMIsQA6QDeEWPeeODh4UF/vlRq3AzTntZHyF7/73G/+ssbG70IsADJDiAWQYzkKr5oaRvjkxlUXa9wOkJy48fuzu3Z/YEJVlmGGAGSeEAsgxzo9xLr3xMGVb+zru7oQhRW1HSYA9dhdLl/7nW2/+eifbPnFC5M2E2IBkDlCLIAcymDj9sR7X6m+AmiNuPH7C7uHzj38jn+6ccIDNjvMsNHQKtVhhsIsgHwTYgHkUCeHWHHvK9VXAK03VC7f9O1tvzk3oV5ZQiwAEifEAsiRNoZXjYZUta6n9xVABsRVWc/u2v2+HPTKEmYBdCEhFkCOdGqIpfcVQLZMmMEwq72yhFgAXUiIBZADTYRXWWncXvH24xtWXTirWLiixuMEoEXiGQyfenXX+1bdvXnzhEds9TDDVBu/C7MA8kWIBZADnRhife+4ZYuOnDNrUzGK1tZ4jAC0wa6RkU+96dZ7PzX2yEIsANpGiAWQYSmGV22dffCRdUefPq+ndHUUQn+V4wAgA0bKYcuWl3a+7x0/enjr2NGkFV4JswCoSIgFkGGdFmJ9ZcWh8961YL8re6Lo7CqPD0DGxE3fXxwa/uibb7/vGiEWAO0gxALIkBw2bq/59r0nDg5q3g6Qf6+NlK/77nO/+cifbPnF9glPpjzp92RJhV5J3T/9zn1IAsgkIRZAhnRqiKV5O0BniYcX/mrXrnMnNH0XYgGQOiEWQAZ0anj1lRWHDpyyYL+rS1F0WpXjAyCHXh4e+dji2+79woQjz1rjd2EWQAcRYgFkQCeGWPHwwYNn9H09CuGQKscGQI4Nlcs3fXvbb84dG14oxAIgNUIsgDbq1AqsR9cfc05/qXhVlWMDoENMM7wwJHS70n6qLa/1/uk39qEJIBOEWABt1GkhltkHAbpXwrMXCrEAeB0hFkAbZCi8MvsgAImKZy88+NafnDtpn5UavyfVCL7a8kbX23fnPjwBtJUQC6ANOi3EemTd0afP6yldHYXQX+W4AOgC8fDCm7Y9f/JYn6wgxAIgCUIsgBZqIryqdbuWV2A9uXHVxX2FwsU1Hh8AXSIeXvjUq7tOntAnK6QwzFCYBdBFhFgALdRJIdZXVhw6cMqC/a4uRdFpNR4bAF1ox9DwB8f6ZAUhFgDNEGIBtECK4VVbZh/84QmDKxfN6Nuk/xUAtdhdLl/7xu//5AMTVu2Ixu/CLIDWEmIBtEAnhVhb1hy1bmFfz9f1vwKgHpP6ZAmxAKibEAsgRR0QXu2z/NH1x5zTXypeVeXYAGBK5RCeePyVXe9/2z2bHxi7X5gFQM2EWAAp6qQQ61cnrd7UE0VnVzkuAJhW3PD9hd1D5x5+xz/dKMQCoB5CLIAU5DC8qrhe3MD91AX7fb0YRWurHBsA1Oyl4eE/W3rbfZ+ftH6lkEqYBYAQCyANnRJife+4ZYtWzJn9dQ3cAUhDHQ3fhVgACLEAkpTB8KrhRu73njg4ePCMvls0cAcgTcPl8p3f2vab9401fB+X9DBDYRZAByi4iABMFjdwF2AB0ArxcPXTFsy/Ja7+dcIBmI5KLIAEZKACK7HbZiAEoB3ihu9Pvbrr5FV3b9484eFVZAGwl0osAPaKZyAUYAHQDnH1b6n/je/d+Bfbbz7hIw8NuggATKYSC6AJHVSBFT21cfWm3kJ0VpXjAoBU7CzNCf/5+Ou27uzpHx1WOPTqjg/e8RcHXTP2WCqyABBiATSjE0Ksr6w4dODUBft9Pe5JUuWYACAVcYD1yWM+F7bOOXSf3U8IsoRYAAixABrRKRVYX1q+dN4fHLj/zYUorKhyXACQikoB1rjh3S9/+vbLF/7l2E1hFkAXE2IBNKBTKrDi2aAEWAC0S7UAa1x5ePe1t1623weEWADdTYgF0IAGQqx2h1f7LP/hCYMrF8/suzluolvluAAgFbUGWONGhl+77rbL5p87aXF50u/Jyxu9XWm7eu+feiMfwgAaYnZCgC5z74mDgwIsANqp3gArVij2nrXxk7/Z5MIBdC+VWAB1UIEFAM1pJMCaqFwe2bLtoW+e/ODXztk+cfGk35OXN3q70nb13l/hufgwBlAPlVgAXUIFFgDt1myAFUa/UCqsWLD83bcceeY1Ay4oQHdRiQVQg7xXYG1Zc9S6hX09XxdgAdAuSQRYE6nIAug+KrEAOtyj648558C+nu8KsABol6QDrKAiC6ArqcQCmEbeK7DiAKu/VLyqyjEBQGrSCLAmqlKRNfl2JiuyVGIB1EYlFkCHEmAB0G5pB1hBRRZAV1GJBTCFBiqwxtVaaVVpuQosADpCKwKsiVRkAXQ+lVgAHUaABUC7tTrACiqyALqCSiyACVRgAUBz2hFgTaQiC6BzqcQC6BD3njg4KMACoJ3aHWAFFVkAHU2IBTBWgdVgFVZUodqq1uWN3t5nux+eMLjy4Bl9t7iWALRLFgKscVMEWZX+vW323+Vqyxs8/obflwB0NCEWQM7FFViLZ/bdHIXQ71oC0A5ZCrDGqcgC6DxCLIDG1PuNa7X1a/3md8oKLAEWAO2SxQBr3GiQtez0qycualNFVkOVWiqyAPYlxALIKRVYALRblgOscVGhdNrGT/5mUzaOBoBmCLGArtbAN5zNVlRNXt5QBdaXli+dpwILgHbKQ4A1Lir2nL3hk89PV5FVabmKLIAMEWIB5MxXVhw68AcH7q8CC4C2yVOANa5Q7D1LRRZAvgmxgK7Uggqsaus1XIF12oL5txSisMIrF4B2yGOANS6uyFp36dPnTFyUUE+spHtlAjAFIRZAjvz+gfOvF2AB0C55DrDGlWb0XzUpyAIgJ4RYQFdJoadEoz01qq33uuVPbVx9dTGK1iZ47ABQs04IsMbFQdbaix4/Y8KiRiuyJmt2/WnpjQV0OyEWQA48tXH1pt5CdJZrBUA7dFKANa5n1v6bTvjIQ4PZOBoAaiHEArpCE99cNjvrUM2VVpX29+j6Y84RYAHQLp0YYI2Kov4Z8w65ZfV53188cWkzvSunezQVWQDNE2IBZNij6485u79UvMo1AqAdOjbAGhdF/XMPXn39kWdeM5CNAwJgOkIsgKmlVYFV63bRD08YXDm3VLzS9QGgHTo+wBoTRYUVC5a/+5ZmK6cbXK/JY1eRBXQXIRZABn1n9VsXLZ7Zd3MUQr/rA0CrdUuANS4OsjZ88vlN2TgaACoRYgEdrYFvKOv9hrTeCqxq3+xGX1q+dN7R/XOuF2AB0A7dFmCNKxR7z1p/+bOX1PvvdkKV2NWWA3S9IMQCyJ7fP3D+9YUorHBpAGi1bg2wxhV7Zl207tKnz87G0QAwmRAL6EgpVGA1WnE1+fa0y5/auHpTMYrWelUC0GrdHmCNK83ov+r4D29e2aLemJWYrRBgCkIsgIyIZyLsLURnuR4AtJoAa18z5y+5efV531+UpWMCQIgFdJgUvolMukfW5OWjP1vWHLW2v1S8KoHjBYC6CLCmEEX9cw9eff2y935lXsI9seqt0FKRBTCBEAugzX54wuDgwr6er7sOALSaAKuyeMbCAwffY8ZCgAwRYgHdrtlZg+pdb5/lX1q+dGDRjL5NZiIEoNUEWNVFhdJp6y9/9uIEZimcrNmeWdNSkQV0KiEWQBv93oHzN5mJEIBWE2DVLp6xcO1Fj5+el+MF6GRCLKAjpDAbYbX1G5p9cOLyrRtWXVKKotO8AgFoJQFW/Xpm7b/p+A9vHpzm3/Vxtb4PqKTeCnGAriLEAmiDn649+vSZxcJFzj0ArSTAalAU9c+Yv3jTsvd+ZSCXxw/QIYRYQK6lUIGV1KxCFZf/8ITBlfN7SxrFAtBSAqzmVGj0Xm9PrKbfR5itEOhmQiyAFtLIHYB2EGAlY7TR+2XPXNgJzwUgj4RYAHsk1SNr2uVnLJx/pUbuALSSACtZxb45n13z8UfX1dn7qtHK7kpUZAFdSYgF0CK/3HDMhb2F6CznG4BWEWClo3fOgV/XHwug9YRYQC4l2Aur2dmFqm0fjfXBGpxTLH7Wqw2AVhFgpSiK+g8cfM/Xa30fMMXySpqt0ALoaEIsgJTFfbAWz+y73nkGoFUEWOmLCqU16y9/9uJOf54AWSLEAnIlhdkIq63fbKVW+L0D58eN3A/xSgOgFQRYrVPsmXXRiR97ZN107wPG1Py+oQKzFQJdLwixANIV98EqRdFpTjMArSDAar2+/oOu1x8LoDWEWEC3qneWoLp7XvzwhMGV+mAB0CoCrDYZ7Y/13sltAxrtpVltvUpUZAFdQYgFkAJ9sABoJQFWe0WF4lr9sQDSJ8QCcqEFsxHWup+ael6csXD+lfpgAdAKAqxsiPtjHf/hzSsbed/QxG2AriLEAkjYT9cefXpvITrLeQUgbQKsbJk5f4n+WAApEmIBmdaCCqxaK61q6ol1w6ojFs/vLW3yqgIgbQKsDIqiQw4cfM+mRnppJtQDS28soKMJsQAStHpgzlVRCP3OKQBpEmBlV1Qonbb2osdP7/bzAJAGIRbQrZqdLeh162/dsOriUhSt8YoCIE0CrOzrmbX/pmPOvWVxEz2xzFYIMAUhFkACfnjC4ODMYuEi5xKANAmwciKK+gcOOe6qbj8NAEkTYgGZlKHZCGtavmhGnz5YAKRKgJUvUaG0Zv1lz1w46aAb7b1Z622AjibEAmjSUxtXX1GIwgrnEYC0CLDyqdg7++LjP7x5sNvPA0BShFhApiRYgVXr+tW+EZ12+f1rVq7rLUQf8ioCIC0CrByLov4Z8xfXMlthrcsrMVsh0BWEWAAN+tLypQO/09er3wUAqRFg5V8UFVasv/zZi7v9PAAkISqXy04kkBkNfPtXaf3Jy2u9XWm9190fDyNUhQUdZtbsEBYvHX1O0YIDQ4h/xkTLV77uuUYL911nOuWHNr/+3m2/DuVnn9l7s/zw2Do7d4aw9ZdeXV1OgNVZXt72zyf84+eOeWDsSZUn/Q5NLq90e7KaPvyVfUgEMqrkwgDUb8uao9YKsCCHFiwcDZ2ixYeOBVaHhjB79usCq6k0O8ImWl6hLc6Ez4pTPcLeYOvxX4aw86XR3+WXXwrh4S1egR1MgNV5Zh7w5rh6++3dfh4AmqESC8iEFCuwKi2vu/Jq/HY8jPAP37D/P0YhHFLH8QKttGBhiBYdOlpVFS2JA6s5lUOkJlX76yvV91qjlVy/DuHxX4Ry/P+P/0K41QEEWJ1rePfLn7798oWfmvAEJ1dk1VuZVevtSutNS0UWkDVCLCAT8hRibd2w6uKZxcJFdRwrkKY4sFo2uKeqKg6tlu0bVqXdo7itIValxxkNtH65J9yKK7kEW7khwOpw5fKOHU/9+O0/+fJJW8eeqDq+qLkAACAASURBVBALoA5CLCAT6gixqq2XVO+rKZff/fYVKw+bPeOebJw16FLLVowGVXGPqijuXzV7Tk3noVMn3Kr1vdxolVY8FPGhB/YEW9ueTf3YqI8AqzuUR4buuvXSef927MlWC60aDbUaXT71TnxoBDJCiAVkQl5CrGdOOvYfC1FYkY2zBl1iLLQKywf3qbKqN5Tq9hDrdevH1Vpxs/mHNwu1MkCA1V2Gd730Z7d/8g1fEGIB1EeIBbRVnmYjNIwQWmTR0tH+VaM/x55Q9TG7NcxqOLyqJA61fnTPaLBV/skPEj9eKhNgdaFyece/3HfNW3/6vy94YezJ1xpaGVYIdDUhFtBWeQmxvrP6rYuOGZgTN3Pvb+8Zg84UrT5+T6XVscfvnSWw1r8ehFjJrj++XvnHP9hTpfXje1RppUiA1b3KI0M33XrpvPePnQAhFkANhFhAWyUwjDD1Ru7xf54+afXNpSha096zBZ0lDqziSqvR4GqKvlZJh1idNpww7RBrn2Vxg/jbvifQSpgAi9defOadd33mzXdOOBEavQNMQ4gFtFUeQqyfrj369P17S3/f5lMFHWG04mo8vJozfUN2Idb0Whli7XP/Y78I5dsFWs0SYDGqXH7imQeuf/vD3/iT7eNLKvwONS6v9Xal9aYlxALaTYgFtEVehhF+7q1L5p150AE/NYwQGhfFjdk3nNxwxVWz99e7v7xIOsRq5P7RCq1v/cOeQOvlnR1xXltBgMVEw7tf/vTtly/81NiiRiuwWtLoXYgFtJsQC2iLvIRYT2xcdeWMQuGC9pwlyLEFC0O0/h0h2vCOEC18w7TPQ4jVmCyEWBON3HpLCD/+gabwVQiwmMqOJ3+07CdfPmmrEAtgekIsoKVSDK8mL296OOEPTxgcXDKzz6cxqEO0/ndDdNwJU84qWOmPvxCrMa0Kserebtuvw0jcP+u2Www3nESARSXlkaG7br103junGU5oWCHQ9YIQC2i1PIVY/3LS6u8Wo2htfYcLXWhC1VU8s2C9YZUQqzGZDbEmLI9nOCx/+/+E8PCWOo60MwmwqOa1l549866/WnrD2GpCLIApCLGAlmrDMMKGlv/z+qPPmVcqfdmrAyrb2+sqDq8mEGK1RlKN2qutl0i4FVdnff3aru2dJcCiJvs2ea8WWhlWCHQlIRbQUnkIsb60fOnAH75h/59p5g5Ti4cMhg3vCIXlK6e+X4jVErkKscbtfCmMfOv/hPK3/6FrwiwBFvWY0ORdiAUwBSEW0BJ5aeQe/966YdVFM4uFi+o8Xuh48ZDBwvvOHh0yuM8fpkl/vJMOq2r96yPp9bIq6WGE1dZLa3n5tu+FkW9c09F9swRYNOKFx+9Zft/VJz8+tmlajd4NKwRySYgFtEReQqwbVh2x+O3z5j7UmrMCOTBrdohO+b0QnfL7IZozZ8rjFWK1VqeEWOPiWQ3L/+vajguzBFg0qjwydNOtl857/9jmQiyACYRYQEvUEWI12sh98u2aG7hPvP30SatvLkXRmtacFciwOLw69fdD4ZTfC2H2nvAqqWGCSQ83rHe9RtfPilY1dK92f9LLO6kyS4BFs3Zt/9W77r7i8DvNVgiwLyEW0BJ5CLG2rDlq7YF9Pd9t0SmBbJqm8kqIlQ2dGmKNy3tllgCLJJTLI1tuvaT/eCEWwL6EWECqMjSMsOr9z5x07A8KUVhR5/FCx5jc86rWUKlVYVVSDd41dk/m/maXV9s+j5VZAiySNPTKC+fd8ZcHXzO2y7QavQuxgFwRYgGpykuI9c/rjz5nXqn05XTPBmRTtPr4EP2HD4Zo4Rv2/UMixMq0Tg+xRuVoNkMBFokrl3c888D1Rzz8jT/ZLsQC2EOIBaQqw8MI9673peVLB/7wDfv/LAqh36uBbhItWxGi954TouWDo8+60dAqbyFWo+tnRd6GEyayXhxmfePaPWFWBgmwSMvw7pc/ffvlCz9tWCHAHkIsIFV5CLG2blh18cxi4SKvBLrGgoUhes/ZobDx5H2esRArH7oyxBq37ddh+Iv/LYSHt0x7zK0kwCJV5fKOF7b+4Pj7rj758bGHEWIBXU2IBaSiDcMIG1r+ubcumXfmQQf8VBUW3SJ679l7ZxxMO7TKeojV7HatlnR4VW29pMKtRtebbrvyj+8JI3/z5bb3yxJg0Qojw69dd9tl8z8w9lBpDStsdPm+G/twCaRMiAWkIi8h1lMbV2/qLURnpXMWIEOWrQjFD31kb9P20ILKKyFWsoRYk5bHQwy//Q+h/I1rpz3OtAiwaKUdT/5o2U++fNJWIRbQ7YRYQCpaMIyw6eGEN6w6YtHb5819yCuAjjZrdih86L+E6NgT9j7LekOqpMOptEKsetdLa/ukNPseLa0Qq13DCyve3vbrMPLF/xbKLRxiKMCi1cojQzfdeum8P2ogtDKsEOgoBZcT6FbH9M/RB4uOFq3/3VD4wt/uE2BBx1lwYChcfmUo/PsPjoa2aRNg0Q5RoXTaiR97ZK2TD3Q7lVhAovIyjPDut69YedjsGfck++whIxYsDIULPlJx1sG0Kq+aXS+p+2vdT6OS2m9a78GarcCqdn/mKrEm3o6HGH7pv4fyj38w5WM0S4BFO5VHhu669dJ57xw7hGqzFRpWCHQkIRaQqLyEWE+ftPrmUhStSfbZQ/tFp/xeKLz37NHG7Xtf/EKsRAmxMhxijf9/3Pj9i/89hJd3TvlYjRBgkQW7tv/qXXdfcfidQiygWwmxgETloRfW/WtWrj2or/c7rjwdZVL1VUghvEq7V1a15Y2uV+9+8ybphu+Zb+he6+2XXkysKkuARVZMqMbKdG8sIRaQFj2xgK6zsLfnYledThKtPj4UPvulfQIs6Hqz54TCRz/RdK8sARZZEhVKa/TGArqZSiwgERkcRjjl/fevWblOFRYdY9bsEF3wX0LhuD2N27NaedXo8MC0hw3mtTIr6cqrWtevt0KrFcMGa74dz2B4xZ+H8tZfTvscJhNgkUV19sYKdd4/mYosIFNUYgFdRRUWHWPR0lC44oshOvZ41xSqiWcwvPJLIYr7xdVIgEVWxdVY6y55qvYXM0AHUYkFJEIvLGid0ebt/+G8377oG6yganeD92rL016vXmntN+sN3qutl3Sj97Rvjzz4QBi58s+nbfouwCLzyuUnvn/J3GUJNHTXGwvIFZVYQNdQhUXuxcMHP3LZPgEWUJ+4d1zxi38bomUrptxOgEUuRNEhqrGAbqQSC0hECpVYemHBRIuWhuLHPjE6LGpcqyquWjUrYVL3N7rfvGr0vVyrZimsd3lat6fa78jffDmUv/0Pe5cJsMiTNvfGqusvHhVZQFJUYgFdQRUWeRat/93R/lcTAyygeXFVY+Gjl+2dvfC/D/6lAIvcMFMh0I1UYgFN0QsL0hWd/+FQ2Hjyvi/2hCuu2lV51WxFVrPr1ytvPbEa3X+rKrSS7pnVTAVX+fFfhOFPfDQ8Xvid8NfLPi7IIjcmVGMlXYGlNxaQSUIsoCl5CLGePmn1d0tRtMaVJldmzQ6FT1wRwuKlqYdRQqz27l+IVd96aYRYE2/v3BXCFTf3hIefNmCBfNi1/VfvuvuKw+8YO1ghFtDRhFhAU7LeC+uGVUcsfvu8uQ+5yuTKoqV7hjiNDR+sFjZlpTdW0str3W+t9MRqbvu0e2S163alx/3iraVw2yPFms4NtFOLemM1FWLtXdmHT6BJvmICOtox/XMucoXJldVv31OBpf8VtNWHNg6F/3DCkItA5sW9sd7+/9w36EoB3aDkKgONSHEYYVLbRTesOmJRbyE6q8bjhLaLG7hHF/yX376Ym6x0SrpSq9r2jR5nvfcnvV3eVXve1QofKm0/ebtq602+v97lrVLr48frnTo4HGb37anKgiybMX/xh0IIH5zmEMdf8JX+Qph8f7Xbte4XIFEqsYCOpQqLPInO/3/3CbCAbNhw+HC4/IzdYVavC0J2FYq9Zx1z7i2LXCKg0+mJBTQk672wPvfWJfPOPOiAn0Yh9LvCZF0cYIX172i491Wre2U1u1699ze7fr2yUtHVqvdorWr83qqG72k1hn9sWwifuKE3vPzalIcHbTcy/Np1t102f7waq1pvrGo9siYvr3S72vKpV/YhFGiQSiygI/3+gfM/JMAi82bNDtFnvjAaYAHZtviAcvjzM15TkUVmFQo9p7/1D7404AoBnUyIBdQlGtPEWYtq6GvVyHbRxJ8ZxcKFTRwjpC8OsC77bAiLl45W/kz1xyqt5eO3Ky1vdrtal1fartJ61davdz9J7T8trTruevdXbb1qr5Nqy5N6fda731rWW7IgjAZZi/dXREIGRVH/wsH3fKjKgUWTfirdX+vtSusBpEKIBXScf15/9NmqsMi0CQEWkC9xRdblgiwyqlia6Us8oKMJsYC01PqNXLVv/Kqt/zr9xVK1byGhfRYtCdHn/2bKAKvVFVmVltda2VNrpU2t+02r4qpbJF2p1e7KrGrXtRWVV5WWz5kRCbLIpijqX3fJU2dPUXHV9PsrgCwQYgEd5f41K9cWorDCVSWTFi0JIa7Amj3b9YGcm90XBFlkUnFGvy/zgI4lxAKyqtaeDfv8HNDTo4yebBoPsGb9NsDKSuVVNY1WatW6ftqVQkx9vhq9jvVWXtVbgVXr9vXebrZCa6ofFVlkURQVVpz4sUfWVjm0tvbGSqDHKtClhFhAx7hh1RGLegvRqa4omTNFgAV0BhVZZFHPnAVnuzBAJxJiATWp4xuzpL/Rq/X+cFT/bOXzZM+EACupiqG0KrIarbhqtOKr2UogkpF0hVa917veiqtmf2rdX63HN7Eia8FcQRbZUCj2nnXMubcs0hsL6DQlVxToFH2Fgm8dM6R0yEv7HEzPopded3CFgddGfxox/OuZobyr+Lotd2+ds/f/4/vj9dpm0ZJQvvQzIVKBBR0vrsj62L/dHT5xQ294ubG/1iBRc9941FkhhE87q0Anicpl3xgB1dXRt6DSepOXV7pdbfmUv/95/dFnzyuVvuxSpiuaMRyKC18ZfYzxUKp44Csh6hse/f/JwVWWTAy0Rrb37vl59bfLhp6Yk+zRxsHVZz4fwoID9y6a/Mdo/Hajy5PaX1K3K+2n3vubXT8pWav2ysp7tnqPo9r6le6vdXlStyvtp97lj20LgiyyoVze8f1L5h40dizlKr9DhfurLZ98f6Xb0yr7UArUSIgF1CTrIdYzJx37A7MSJmO8Omo8pIqDqYnhVaeLw6zxwGs4Drpe6A3Dz84M5VdfX/VV0azZoXzpX4Vo8aH7rCHEqu3+ZtdPihBrakKs6ssffy4SZJEJQ6+8cN4df3nwtUIsoFMYTghMK4Xwqt7tqj7+3W9fMSjAql8cVMVVVKUDXxn9PXq7S4Kq6YxXk/Uctv11a8UB13gVVzxsccpwayzACouWJnZM3dr/qVXPOy/nt9bjTPuz4OTjqPZ41davdH+15ZXWq1Wtj9PI8iULQviPJw6FL97qrTbtVeybE7dauHaKg5j8B2fyH+SozuWV9i+cAhLlX1Yg9xbN7NPQvYriWFBVWjj2O8PD/rJs4nmbsWbP7/GqraGXl4ahQ98Zhg5aG8pvSC7AAvJpw+F7hlkLsminqFBaEzd4v+/qkx93IYBO4F9VoNWardja5/fn3rpkoKcQne4q/tZ4hVXPIS8JrFog7gcWn+NS2BxC/LPtilB+fm7YPfuEMDJz+ejvoTnH73MgZtZrr04//5WeX1oVWu2qzJqsWqVWs5Vb1Uy1/41HjITHnhsO395Sx3BkSFj/G4+Ov+z72OQ/MhUepS0VVOOV/4YVAtUIsYBcO2XhvNOjEPq7+SqOV1nFoVUcpjQ62x/JiYZfDL07bg5hx81hRvgfo/sdnrEsDM05YfRneO6JoVzs6pctdI14WGHcG+u2RwRZtEehNOPsKUIsgFzS2B2YUh29sMbV29A9kcbu3djQPQ6pSoteCr1v2b6n6frYzIDky/DM5XsCrdFQ64RQLg7sPf60Gri3qpF71hu7q4TbV9rvBWvdf1IN4Nvd6H2q+3fuCuET3+wJj/+r1x7tUUOD91BhebWG7bU2dK/pLwKVWEA1QixgSnkIseKG7ofNnnFPp1/BeGbAOKwaD61UWnWm0VBr4F2jgVZcqRWEWA2v3+r95Z0QK/0QK/bSq+VwwXV9ZiykLcojQ3fdeum8dwqxgLwTYgFTSmFWwmZDq9fd/8TGVVfMKBQu6MQrGAdVPW/Zvje4orvEQw2H5r0rjMw9cfT3eJVWu0OtZter9/5a91MvIVZt0nqPmFao1WzI1Yow6/HnonDZN3sEWbTFC4/fs/y+q0/eOvbYlcKqWsOtycsr3a62fN+VfDgFqtATC8itvkLh7E66enFfq74Vz4+GV6qtuls0vCP0/Ov1Ifzr9aEvhD0N4g/4ozA879RQ7ntTt58eyK3FB5RHe2SZsZB2mHvQyvh906ecfCDPVGIB+2jBMMLJtxvqhfXQ2qNOX9Db87W8X72J1VaCK2oxMmt5GDrgzDA875RQ7jtkdIt6K6taNayw2vJa7693vVbtp9tktTIr6WGGrajI+p93F8O3Nmv0TouVy098/5K5y8Ye1LBCIJeEWMA+8hJiPbVx9fW9hejUPF69OLDqG9xTcaUpO80YD7RG9jt1NNASYtVGiNUYIVayPbIu+2YpPPx0Ycpjh7Ts2v6rd919xeF3CrGAvBJiAftoYS+sybdrDrM+99YlA//uoAN+lacrZ6ggaRuZdWQYjiu09jslhBmLRh8t6bBKmMVESb+H7LYwK270fv61vfpj0VIjw69dd9tl8z844TEz2Rtr78o+rAKTCLGAfeQhxPrlhmM+NKdY/GzWr1w8q2DviudHq66KC1/JwBHRLUb2O2U0zBpZeNY+z1iIlc5+upUQq77llRq9f+QbPVMeN6SiXN7x/UvmHjTxpVjj70rrT15e6Xa15VOv7MMqMIkQCxjVxmGElZZX/P3MScfeU4jCiqxeubjaanS44GHbM3A0dLVifxje79Qw/Dvnh/Ls3/6REWals59u1+pQq9nZC5sNt5K6/6bNxfA3d+uPResMvfLCeXf85cHXjj1gUhVY9YZWhhUCDTE1CpArN6w64pAsBljxEME4uIorrwwXJDOGd4Tic18b/SnHww1/5/zRUCv0zHONICNOGxwOP3qsEB5+WphKaxR6Z50eQrjW6QbySCUWMCqFYYSTlyfS2P3xDasunlUs/NesXDVVV+ROXJ01/9Qw/IbzQ5gzuM/Rp1WBpSKrOyX1HjPpYYZZrMjauSvoj0VL/cu9X33jT//3BdsTaOxuWCHQUqZEAXJlZrFwVruPN+511XfstjBwwcNhzh8+JsAiX+LqrG1fC71b1oWeh04NhW1/5wJCm83uC+HP3jXkMtAyC5adcbqzDeSRSizocjnqhRXufvuKwcNmz7inXVcsHiY4c+0zo9VXUd9wuw4DElfue1MYWXDW6HDDUBpoWwVWViqzVGSlo1WVWY02fk+74Xst9//Pu4vhW5v1xyJ95ZGhu269dN67UmjsrjcWkCqVWEBuvGlm79ntONbSIS+FOe95bLTyKu55JcCi00S7ngzFpz4Teu9bEUqPnh+iXU+4xtAG71s9HBbv77M66YsKpTXHnHvLIU41kDdCLKBWUYUqrErLq91fbbvXrd9XKJzWyqsVV1zNPevR0R9DBukKwztCYdvXQuneFaH48/NCtHPL6LOOvwCf+CX4+O1Ky+tdr9ryWu+vd71q2ze7H/YVV7glUeVWbT+V7q+2fPL9lW7XurzadlPdP2dGFC48ybBCWmPOG46cbkhhNOmn0v21Lm9KNMZLAxBiAblwx9uOHIxCaMk3hr2Dz+/tdxVXYUE3Gg2zHlgTSg+eGqLtd3kNQIssPqA8WpEFaSv2zWl7n1GAegmxoEul+I1Wvd/MVfumb9TiWX2pv9EaD69mn/rEaP8rIIRox12h9NCpofTgKSG8cGeiFVjV1qtWsVVr5VZSlVkko1plUq2yXpFV7/0T9/P+40YMKyR1UVRYccy5tyya4r1YGhX2iVRuqcgChFhALqQ5lFB4BdVFO+4eC7NUZkErGFZIK1QZUgiQOUIs6DINfIPV6m/cXvdt4B1vO3JlGkMJhVdQv99WZp36usqstHtlNdpLq9710tqeqXVbRVat6xlWSCsUe2dV+5IwU72xAIRYQOYlPZQwbtguvILmTAyzVGZBOt537HBYMFdwSnriWQoPf/fnBpxiIC+EWEBSUumFFeuNCmuTOMa4SXs802DcsF14BckYD7OKj54fwqtbp624qrUHVqOVV/X2ymqU2QvT0WyvrForn2pdXmm7ZmcnrHe9C09SjUW6Fh75+6dX6IuVRMV9tdvV9jf1g+uNBV1LiAVk2g2rjjikEIUVzRxjHFjNec9jowGW2QYhHYVn/y6U7l0Rio99PISh7c4yJGT5QSNhw+EjTiepKfbNTa3vKEDShFjQJVLshZXUN2xTfgO4bM6shhuORjOGw6zf/dXo0MGew3yohlYo/Mtfh9JPlofCE5/OzCyGlZi9MNvS6pVV6/J6b0/eLsnKrP+0ZjjM6s38JSOnCsXeU2sYUthob6xq+2tqPyqyoPsIsYBMm1MsNtQPq+/YbaPhVfwbaLHhHaHw5GdC6d4jQ+H5m5x9aNLsvj39sSAtC5adkUjrBoC0CbGgwyVYgVWvpnthXXnEooF6hxLGwwXj8CquwIr6vOGHdop2PRmKPzsrFLecsrdfVitmMax1eaPrpbU9U8tLRVZasxSOO21wOCze3+uLdJRmzhsfUtiq3ljVqMgCpiTEAjLr3QfOr7lHw8S+V5q2Q7aMNn/XLwua9h/X+HKGdBQKPQ23bwBoJSEWdKgUKrBa2gsrvmNWoVhTafvMtc+E/v/rEX2vIOPiflk99x4Zon+9salZDCttV2m9autXWq9RKrLSkdTshY0ur3a71sep9XlMte6RbyyHY5do8k4Koqj/uAvvWVnDjuvtjdXo+8eGqMiCzifEAjKrpxBN+61gPHQwDq9mrHnG0EHIi+Edo0MMSw+eGqJdT7hsUKf/eKJ/70jHzP0PPdWpBbJOiAUdJoVvoJKebaam/f34hMF1UQj9Uz7A2KyD8dDB4sJX6jg0ICviIYbFnxxZ1yyGk283ul6l/Va6v9HKKhVZ6cpaRVatyyvtv9b1D+yPm7yrxiJ5hZ6Zp01TIV/v+7u2zFa4dyMVWdCxhFhAJi3s7ZmyH1bPW7abdRA6yOgshg+cGKKdW1xWqFHc5H1Wr7NFsqKosOItp/23AacVyDIhFnSIJr5xqvebr0rftNW6vNJ2+/z0FQpr9ll5xvBo4/Y5f/iYoYPQYaKdD4bSA2tC4Zd/Fsq7X6jaI6veyq1Gl9e6fVrbUZtmZy+crNGKrFqXNzpb4cT1Z/ftCbIgaQeufG+lSXXqrcyqtrzZ7WuiIgs6jxALyJxPv+WQgUIUVsTHNVIOTxZWPfvdgf/84Msat0Nnixu/j1Zlbb/LlYYq3nfscFgwVzhKsoq9s2uaVAegXYRYkHMpVGDVun6j36BVfdx3HDBvcNfIyN89sd/z75zz0fu3DJz89DujYnlWHccK5FS068lQeujUUHzs43urssbV2wMra7MXNttji+nVW5FVa6+qRvfXaMVVtf1P/Hm/3lgkLCr2rn3zKX81r473bUnPVliNiizocpE3UZBvTfyDXG27yffXervSenXd/9jXSqe/8YDor6No6ubuQOcrzz4yDL/5yyHMGdz3L41Jf+1V+muw2nrV/vps9v5qfJ5KR73vbautP/n+Rm9P/l3t/lrXP++aUtj2otcSCSqXd+x68Znz7v7sYTfFt8Z2XOl3qPP+Rm9P1tCH2LIPv5B7KrEgp1KswKr3G7NGK6+m7K1w5XnFedu/1fPZgxdE1wmwoLvt7ZU1YQbDJHtlJTV7YaNUZKUj7Yqsem9P3i7p2Qrft1pvLBIWRf19/b/zdxv+/LkvH/7uz403eq+3J1az7yfrfb9aExVZkH8qsSCnMliBNfl2vZVZ0U+uKg2uWBp9rRCFN1U5RqDLlPvXhOHD/jqU+w6pu8Kq0cqtastrvb8an6fSkZWKrHorr2pdb+Lv86/tUY1FOsrlJ17d/uR591y57M6x/TdamTV5eaO3J1ORBV1GJRbkTBsrsGpdv67Kq/E7n/tmzwUrD43uEmABU4l23BVK958YCs/f1HDFVaXbjS6vtl2tVGSlI+mKrGrrpzVbYbX19cYiVVF0yIx5h3x7/Sd+fdGkh6m3MqvS7aTXr4mKLMgvIRbQVl/8v4sDr9zc852B2eEzrgQwreEdofizs0Lx0fNDGDJbKYzbeMSImQpJVbF39n/d+BcvfOeYc29Z5EwD7WQ4IeREC4cPVlpebXhgpfUq3v/odaW1hyyM/l7vK6Be403fy7NXpDac0PDCzpLU8MJqy+sdZtjMMMKJv7//0yh88dZSh101Mqdc3vHazm0fvOuvlt44dmhJDSes9Ae02vbV1q+J4YWQHyqxgLZ44aaeixYdGH1bgAU0YrTp+4OnhMKz1zl/EEI4bslImNXrTJCyKOrvnbPwaxsu33aFUw20g0osyLgMVWBNvt3Q8i/+38V5/+mUwt+XimFNjc8DYFojC/9dGF78mRBKeybRSrrxu4qsztDoe95aK7LSavRez/rX/7gYvv5j31HTGuXyyJbtW//xj+67+uStTVRk1dvovdryWu+feiMfjiHzhFiQcZ0UYj34P0uDbzl4dPjgIVWODaAuo8MLj/haKrMXCrE6QzeEWDt3hXDeNT3h5dfqfJLQqHJ5x64dT7//7isOv2P8JTppT0IsIFG+qoGMauEshJWW1zr7YE2zET77f3rOPvxN0T0CLCANo8ML7z8xRNvvSnz2wvHbtS6vth3tUe/sg/VqdrbCyffXOmvhRLP79gwrnmErlAAAIABJREFUhJaJov6+gTd+Z/1lz1xY5X1io+8ra33fWu/9U29k1kLIPCEWkLqd3+25ar+54cvONJCq4R2h9NCpofAvX3Ke6VrvP06IResV++Z8duNfvPD3y977lQGnH0iTEAsyJsMVWLVut/fn6o8U5+36Xs8PekvhrAaeD0BDio/911D8+XmhvPuFRCuyGl1ebbuk1qc29VZkNVpRVe9+at1fpUqt8Z+Fc8th+UFeN7ReVCidduDK9918zLm3LG7i/WO19artr977p95IRRZklhALSEXc/+rf/9vCDwpRWOEMA61W2Pa1UHrolBCGtjv3dJ3TVqrGoj2iqLBi3qLjf7Dm44+udQmANAixICNyUIFVa0+D6Klv9JzxloOj7+p/BbRT3Cer594jQ3hp8+v6U7WzIqteKrLSkVZFVrO9sapVWtUi7ou1YK7XDG0SRf29c9/w3XWXPHVOEz1Va71dbX+13j/1RiqyIHOEWECinr+h50MH7he+FkWh35kF2i7uk/XgKaHw7HWuBV1l4+GqsWiv0sx5X97wyec3uQxAkiLf7EF7NfHtTrXtKt0/eXmttyutt3f5zu/2bNL/Csiq4SV/FUZ+54K9Rzf5r9/x25WWV7qd9PJqFAUkq973wpXWr7Z88v21Lq/0u9r6v94RwvnXlNI7cVCj8sjQTb/e/L8+8PA3/iQe3z3+Ap78B6na8lpvV1qv3vun3siHZ2g7lVhA0/7m48WBV27uuV6ABWTZaMP3R893jegKcYP3eFghtNt4w3czFwJJUIkFbdZAJVamKrDiAOvMf1O4WQN3IC9G5p8aht/81yGU9nyeqrXySkVWZ0urIqvRCqxKy+v5/aPHCuGz3yl214Uku8rlJ155/rH3/+B/DG5WkQU0SiUW0LCf/W1p8N/9m8I/CrCAPCk8/y0zF9IVNHgnU6LokJnzl9x8/Ic3D7owQKOEWNAmDcx2kpVZCEfFAdbSg6KbzUAI5FE8c+FokPXq1ppnJ2x21sJKzD6YDfXOVlirSrMV1jtrYSXVZjM8bonXFhkSRf1xkLXu0qcnz1w4rtbZDBud7bDe+6feyKyF0DZCLKBuj167N8AyAyGQW3GQ1fPAmhDt3OIi0rE2HqEvFhkTRf2lGf1Xrbv06bNdGqBeQixosbxXYD33zZ5zFr0h+kcBFtARhneE0oOnhPDS5tQrsqpVXKngypekKqmqbVet0qqaJQeUw+IDvE7InrEgS0UWUBchFlCzOMAamB2ucsaAjjK8I/Q8dKqKLDrWxsNVY5FNcZC14ZPPb3J5gFoJsaBFclCBNe1+BFhARxuryIr+9abEK7ImU5GVbY32pKp3vaR7Y1XaPv5526EN7wZSVyj2nrXhk89frSILqIUQC6hKgAV0hTjIeuSsUHj2OtebjrJwriGFZNtYkKUiC6hKiAUpS+GbmbQqsKb8pkuABXSb4qMXhOjZ6xLrfZXULIa0VlKVUElvV61HVqXtDSkk6zqhIgtInxALqEiABXSr0qMXqMiioxy3VGBK9qnIAqoRYkFKmqjAqvcbIxVYACmoVpFVbwVWvRVZemPlS6O9sWpd3mxlmCGF5EWeK7L0xoL0CbGA1xFgAeyhIotOYkgheaEiC6hEiAUJS6ECq9b1VWABpKBVFVlkU9q9sZKanbCWPllHHtzw04CWU5EFTEWIBewlwAKYWlyRFW2/y9kh15YcUA4L5gpQyQ8VWcBkQixov3q/+Wl2fRVYAA0o/ezMEO3c0vAshdXojdVdGq3AqnU2wkqOW+K1Qb5krCKrLiqyIHlCLECABVCL4R2h9OApo0EW5NWRbxRikT9xkLX+8mcvdukAIRYkpIFvWpKqwKr3G6h9lv/sb0srBVgANZoQZNXaE6vSchVW+ZLW7IO1btdsb65xb1vqNUQ+FXtmXbTu0qfPaXNFVkOVWiqyIDlCLOhij15bGlx6UHSz1wBAHYZ3hOLPzgxhaLuzRi4tP0iQRT6VZvRfte7Sp892+aB7CbGgSS2owKq2XsMVWIccGN0SRaHfawCgPtGuJ0PpoVP2CbKy1tNK5VZ3qjZDYTCkkJyLg6y1Fz1+RosqsipJtHcWUDshFnShr11aHFhyULRJgAXQuGjng3uCLMiZ4wwpJOd6Zu2/6fgPbx50HaH7CLGgQSmMba917H296+2z/G8+Xpz3B+sKtxSisCLBYwfoSnGQVfj5eXVVYDXbG4v2Sro3VjtmKVxyQDnM6vVCIseiqH/m/CU3n/CRh8aDrEbfRzdboVVXRZbeWNA8IRZ0mfdvLGwSYAEkp/Ds34XiYx93RsmVI9844oKRb1HU3zfvTVcfeeY1A64kdA8hFrROs7OfNDrmf+/ynd/tubpUDKe55gDJKvzLX4fCs9eN7jPt3lgqtzpbq2YpXHxAt59pOkEUFVYsWP7uWyY8lUZ7Yk2mIgsySogFXeK5b/ac3VsKZ7neAOko/Pz8EG2/09klF448SCUWnSEOsjZ+8jebXE7oDkIsqFMKsxFWW7/pnlhP/389ZwzMDle51gDpKv70zBDt3LzPY7S7N5bKre5UbZbCIw/u9jNEJ4mKPWevv/zZSyY8paZm8Z5GorMSqsiC+gmxoMP97G9Lgwf0B99OAbTC8I7RICsMbXe6ybzlBwk36RzFnlkXrbv06XNcUuhsQiyoUQoVWEnNllJxeTwT4dKDouujKPS7zgAtsuvJUPzZmXpadbiOmKVwgdchnaXUN/fK4z+8eeWEJ1V3D9kG16u2HEiIEAs62B+dVIgDrENcY4DWirbfFYo/P89ZJ9M0d6fjRFH/zPlLbjZjIXQuIRa0XtI9siYvH/156Ts9VxQLYa3rC9Ae0bN/t3fGwtDEbIMqurpTK2YpPPKNXj90oCjqH5uxMI1ZwWtltkJIiRALOlA8E2FfT/iQawvQXqMzFk5q9A5ZsXBuOczqdTnoPPGMhRs++f+zdy9gktX1nfBPVV/mwlyQu1wG0BCUAXVdjSsXNZsnWZVLdhPvmvfd3TcaBd43eXc1CCQumgTF+MaYREB0Y5INTKK7m4hAEokBdSaKgjHMgEHlNgOIw22m59LT3dV13uc00+NMTVefe9U5VZ/P87RjnVtVn3Po7vM9v/P7P60nLAwgIRbEKLAXVtHP3i/4jH/UyH3V8uB3HVeAamjem67RuwqreimiIqof5j/3yUc41xhMzZHxt+9t9L5oD9mCetR2oyILCibEggGy7jdHVmvkDlAxU5uD5nff4qhQSZq7M8hGl6761Cv/y90vcpBhcAixoIsSRiOMWz716IOd0//92c1Pa+QOUD1Ro/fGY5884HOpuBouZY9S2Llc3Nc8zd0ZdMsOO/kvT3vjZw7NWZEVx6iE0CNCLBgQ228eu3x0JDjP8QSonvCQM4LwqHc4MlRO1BcLBlqjseboF71BfywYEEIsKF9Rz9Z3nb75c2OvWr4kuMyxBKieKMCaPf2WIBjt74jvKr/qKa4CK+9ohUYoZBg0mqPnvfoDj1+8SOXVvLyVWmmnL0hvLOhOiAU19yfvH1l9zHOCzzmOANUTHnJ6JQIsWMyRK+0eBt/IkhVX6Y8F9SfEgg49GI0w6XYS9cR68083r9PIHaB6ogCrtfbgAEtFFEUoclREjxQyLPb2x9r/h3LeSqtSe2epyIKDCbGgxp6+cexifbAAqqdbgAVV5JFChob+WFB7QizYqwKjESadPvf1L386+qKVy4OrHD+AaokCrJnTbi48wFLBVW1pRw+skkOWDPGBY+js7Y/1f+fsaZW1xy2QkxALaijqg3XysQ13kQAqJlxeToAFZTrpCOEow2Vk/JDL9ceCehJiQfGy3qlJOj14w6ublzcbwRmOHUB1RAHW9Gk3ZQ6wVFoNt84KrW4VW1krvjpHMdz/a8VSBSMMmUZj1dLDTrouw9/hRfXA0hsLMhJiQc1s/tzYOUvGgoscN4DqyBtgQT+drBKLIdRoNM949RVbL3fsoV6EWAy9Co1GGDv9T94/cugxzwk8RghQIc8GWF8UYFGqvBVYcZaPO34Mn5Gx5Zftfayw6xMQe1VitEJAiAW18uafbl7XaARrHDWAapgPsMIRARb1phqLYbXssJP/8rQ3fsYPcagJIRYkV9RohGlHKZz7euTzYxeMjgTnOV4A1fDjCqxDCxltLq5ipoqj2lEdzg/IqNFYc9Tp/6HzscK8vbJKGa1QbywQYkEtRKMRHnVo8ClHC6Aa2iqwGDCnH6cSi+HVHF1y0dnv/8E5TgGoPiEWQ6vAOxlZ77wkHo1w72OEq5ytAP03F2C98MaDAqysPYsYLL0+D5xPUIzxFUdfd9obP3Nozp5YcYxWCDkJsaDiotEIPUYIUA3t5WsXDLCg7o50q4xh12isOXLtBRcP+26AqhNiQTyjEQIwF2BNvSA+wFIZQx0dtdLjhBCNVvhvfu3bL+7jaIVADCEWVNgbXt283GiEAP2XNMACoN6WHfET+tBChQmxGDolPkOetRdW5/S5r02fHX3xkrHgImcoQH/NB1hpRyGsWkWWCrF66DxO3Y5b0T21jvY4IcxpNJpnvPoDj3c+Vtir0Qr1xoIYQiyoqFOOb7gLBNBnKrAYFkcJsWCfkfFDLn/Zu//hRHsEqkeIxdDIcKci6x2StHdoDtre0zeOXdxsBGc4OwH6Jwqw9pz6ha6jEOYdhU5lFL3Qeb6mPX9hKDUaq1Ye99KPFtATKyu9tKALIRZUzJ+8f2T1imXB5Y4LQP+0ly0cYAEwHBrN0fPOfv8PznG4oVqEWJBfUXdo5qa/8TXN3200AkX9AH0yV4H1gi8k7oGVtLIlaUWWChkWk7cCcDHLx+162N/4iqOvW+DpiSJHKyyk4kpvLIaJEAsqZPPnxs4ZHw3e7pgA9IcKLIbZyUeGjj/sr9FY8+ortl5mn0B1CLEYeCX2wip0NMLo6+jnBL/rjATojyjAmjz1r0vrgZWVnlr11K/j47yAYo2MLrt4gSbvWSuzuim7xxYMDCEWVMTWvxp7h2buAP3RLcACYMg1GqtWHPsS/WqhIoRY8GO9upNy0PyomfuhK4KPOhYAvTcfYM33wEra2yquQksFFUkUdT44r6A8zZHxt5/16/e9Ksvf+R3zu70uhN5YDAMhFlTAfzinebFm7gC9pwILgCTGVx6tGgsqQIjFwCrxTkTaXliLzr/t46MnLV8SaBgJ0GOdFVidklZczctbkVVWJY0KHYD8Gs3Rs1/1G4/8UsrRCtNWYOmNBTGEWNBnP/XChgALoMdUYAGQ1ujS1f5uhz4TYkH5vbA65+9b7l/+dPRF46PB2x0DgN5JOgphXAVV2b2w9NQabkkr9bKeDwuf684rWFSjsebVV2xdLMjKOlp5ofTGYpAJsaCPTnpuQzN3gB5SgQVAHiOjyy4+7Y2f8UsE+kSIxcCpQS+sOQ+uG33VSDM4Z/COAEA1RQHW7p/8q30BVtGVV1krZ1RWUaa0vd2AGI3GqiPXXnBxyt5YcdPTXmfA0BJiQZ8cc1jDCCcAPdIZYAFAVlE11gt/4Wq/UKAPhFgMs6J7YSWtzGo88vmxC0ZHgrOdfQDlmw+w5kchLKvyqnN+t9dxyu6pxWDIOlomUIBGY9XRL3nLQm1BslZmlUJvLAaREAv64KhDg6vsd4DyqcACoAzNkfG3v+zd/3CinQu9JcSCeN2eUc90h2XrX429o9EI1tjvAOVKWoEV1zOoqNEI076GLJxH0Dsrjn3J5Ul64eqNBcURYkGPHboiWGxYXgAKoAILgLJF1VgvfeeXVGNBDwmxGBgpnvnOekcj66gj+762/tXYL6nCAihXtwqsTnlHHUw7vdvrOHph1Vtdjsfc56zA54C6WXXCyxa6Qa03FpREiAU9pAoLoFwqsADoJb2xoLeEWNBd1sqrBT3y+bHzVWEBlCeuAitt76uslVZx07Mux2DLex6kPd/iKhGB5PTGgt4RYkGPHL4quMi+BiiHCiwA+qXZHDv/hb9wtV9A0ANCLGqvgGe8s97BSNwL68F1o68aHQnOdrYBFC9tBVanskYfLHr5OCpqBlNRPdWcH1CiRmPVUS96w0I3rCvVGwsGgRALeuCYwxqX288AxVOBBUAVjIwuu/i0N37GLyMomRCLYZL0Tke3Z9Az3UG57eOjJ6rCAihe1gqsvL2v0o4+aDRCypS3J9v+ywM5NBqrjnzheb9UcG+sotab/+/cKIXUnhALSvZTL2wYkRCgYLMqsAComJHxQ/TAhZIJsaitPt5JSNwL67aPj540Phq8vQ+fEWBgRRVYkzWuwCqqcgby0CsLStBorHnVbzzyjgU2nPXJDj2zoIMQC0r00p9sCLAACqQCC4AqG1m6SjUWlEiIxTBIemcj7nXc+gdZNh5c7AwDKMagVmBlpYKGhcSdf84bKFej0TzjrF+/71V96o2ViN5Y1JkQC0qy9a/G3tFoBKvsX4D8VGABUBdjK45c6JFCoABCLIiX9E7IAV+rVwRKiSGDKKxorXjlvi/oVwVWp7IqsIxGOBySHrd+nX9zyzitoBDNkfG3v/SdXzpxgW2V3RtLDy0G3qhDDMV7cN3oOc1GcIZdC8+Kwqj2+AlBGH2NrJ4LqoK5wOr0IBxJV7DYmJ0IRiY3zf3/5vSWua/G3n9HJu+Zm8/gmN0bYEXnjb/KAaiLlce9JOqN+zsOGBSrEYahXUqtpHh+u9tyndOTvu78t+v8XX879imjEjKM2uPHzwVT7blqqjNjQ6qs1SSL/e6aD7miQKs5uSkY3fmPQXP6EedjDbX3PkIYVWAFC5wv86+zTu+2XtLtd3sdNz3p/KLXoxqS/u3dbbnO6d1eZ53eud7OPWHw4BNBEE3dNRUEDzzx7PRNjz777z2POh9hQWG4+R9+Y+Vpe2eFMf8GKed3ex03/cCFhAHUkBCL2ql6iPXp944c+h9f23zUmcUwiEKrmdWvC2bnAqu1c9VWaZQRYi0kCraiMGtk5z8+++/kPc7PijugAitnWNVtuhCLfqhbiJVk/tYdjWDr9jDY9FgzeOjJIHjwyUbwxA7nKbQmt737q799/J8LsaA4Qixqp4chVtIw64B/n75x7KKVy4OrnFkMqpnVr50LraJ/50OrulxUz//Oix49jMKs0e1/G4xt/9u+fy4OVJcKrLj1uxFeDbdehVhxr4sKtbpNj6q27nmsOVexdc+jzeChp5y/DJ+w3Vp/228e+toehFfCLIaGEIvaqXqINX3r2L2NRrDGmcUgiQKr1urXzlVdLfR4YN1CrE5RkDX29F8KtCqgThVYcet3I8QabsMSYnVOj0Ktbz7YDO55rBF888GRYPf0gt8eDJxtD/3j2m9/+ucemv9PouPfoMt0IRZ0IcSidnKEWHGhVu4wK2rofvyRjb9xVjEIojBh+sh3zgVXwejqRN9RVS+yE/+ua20Pxrb/TTD+xKc9ctgHKrCKXY9qSvu3d1mPFXZbrqjQKm65Ox5oBN96qCnQYuC1Zyavvv2KI3997/cZ91hhXLjVOb3b67jpBy4kFKBGhFjUTpVDLA3dqbuoyiqqupo+8l37RhAMUlx81z3E2n+56JHDJY9/bK46y4iH5VOBVfx6VJMQ6+Dlogqt2+8bmQu1YOCka/AuxIIYQixqo4KPER4wX0N36myuQfthbw6mjnzXXJCVtVF12uXKVsRjO1GANf70XwbjT1xnlMOSqMAqdj3qoWqPFZY1Pc3r6JHDmzeOBrff19QYnoEyvXPrW9d/+HlfLLA3VtLQKtXFvjCLOhBiURtVD7G2/tXYLz1nZXCtM4o6icKrqWPeG0wf9uYDPrUQa+HpUZgVVWcJs4qjAqv49agHIdbir2/7l2ers+79oeos6i9st2667TcPfYsQC/ITYlEbfQixEj9GGP3P1K1jX282gjOcUdTBfHg1c/hbFvy0eS/K6xJiZZ0/9tRfCLMKoAKr2PWol6JDrG7Ty3oMsOj36fY6GuHwc3eOBPc+Jsyi3n54158d993/feH2vd+ExwohIyEWtVHlEOu2j4+eePYZDV2gqbzoUcE9x31oX+VV1oqrYQ+x5qerzMpOBVbx61EvQqxkr+dterQRfP7OUZVZ1FZrctu7v/rbx//53s8vxIKMhFhUXorwal5cWNU5PXeY9fSNYxetXB5c5WyiyqaO+a/B9FHvmgsNOqUNswY9xEozvTG7PRjfet3ciIYawCejAqvY9ainXjV475zeq5CrrNfCLOoqDNsbb/uNVa/c+/GzhldCLIaeEIvKq0OINX3r2L2NRrDG2UQVtVa8Mphc84mgPX5CYWGVEOvg6dFohksf/cDcaIZ0pwKr+PWoJyFWvtdRv6zP3zWqATy1su2hf1z77U//3MNCLMhOiEXlVbCh+wH/fuczoy9ee1JjgzOJqokeHZw88RNBa/XrDvpkWS/e46Ynnd8rZYdYCy03uv1vgqWP/KZHDBegAqvY9ai3skKsbtPLbgTfj9dzoxne/WyYBXUwO7Xzkq986JhP9iC8Shpudf73Kxyg8tThQk7Pe27j7fYhVTN15DuDHad9a8EAi3JF+3znqV+eOwb82OzeAGuhx1kBsjhkSRC88WWt4JNvmwpOe27bPqTymuPL3+EoQT4qsai8qo9K6FFCqmSu+mrNJ4LWoQeGV0krVDqpxFp8etzr0Z3/GCx74D8Ofa8sFVjFrsdgqWtFVufrorcbt/2F1ouqsj5352iwe3rBRaES9nukMNDgHdJTiQU5bPrs6IsEWFTFzOrXzlVfRf9SDa0VZwY71w73MWmrwAJ65NwXzQa/+wZVWVTbquP+1UUOEWTnAXIGQd4KrG66VWbts+aohpJgKmHPcR+aG3kw2HvCFlV5VfdKrKLM35BM+31F60XhzeTz/iSY3XrdXOP3YbJ/BdZi56UKLMhv/rzqLKDonF7W66LFbb/b93PUqiD44M/PBJ/7ll5ZVFNjdMk5KT7Y/H8AKqNgL5VYkMPS8eA8+49+ih4f3Hnq3+8LsKiu6BhFxyo6ZsNABRbQT1GvrI++YTo4cqVrf6ql0Wie8dJ3fulEhwWy0ROLyjIqISxurlH2Kf/7gJAgaSVK3PJxy8VNTzq/LP0YlTDJctHrxuz2YPn3fyEYmbynV7uj5/TAKnY9hkNRvbG6ze9Vz6yytpv1dTSC4Uf/biy49zH37qmORUYpDDpeG6UQOvhpDhkdf2QjTSkwFGr6sDftrepR5VI30THb9YIvBzOHvWkgvz8VWECVRCMYfvCCmeD1Z8w6LlSGUQohO5VYVFbVRyWcunXs681GcIYziF6bOua9wdRz3zv3rml7Xw3LKIX9HpUw6evxAeuTpQKr2PUYLln/Js/786zb9H5VWOXdzmLL3X7fSPDJ2/TJohqMUgjZqMSCDG77+OiJAiz6YfLET+wLsKi/qE9WdEwHgQosoOpec+rsXJ+s5eMOFf234ujTPNUBGbgVwSAqfVTCtSd5lJDei8KOmcPePPe+WStQjFJYPa3D3xJMRgNFPPKbQWN2opbfg1EIi12P4dRtdMGsko5W2G165/kbN7phUfKOohjn5CPC4IMXTAf/7cbxYPe0/9jon+b48vODIPjzhB/AKIWwl0osyGDlcqMS0jvRaHZRA/f5AIvBEx3bZ5v012/kQhVYQN2cdEQYfPLtU8GJh8sD6J/myPi5dj+kpycWlVP1UQmjf6dvHXu00QiGY5x8+mo+wJpddvrcx8hbcZW1MiVrJVba5fJK+jutXz1h4pZr7t44N3JhXSqy9MAqdj0ISuiNlXd+UT8Xky5X1Osk24lGLrzixvHgoaf8N0t/TO/c+tb1H37eFwscpTBpDyw9sagtlViQ0g+uHz1HgEWv7B9gMfiiY12XiiwVWEDdRSMXXnHBdHCSiiz6ZHTJSi1KICUhFjxbYZX4FtxRhzY8SkhPRD2w2svPmKvq6Pyat9C8xb6KXi/p9jql/dxFbbeo7yPr6yRf0THfc+IfVPo/sijAmjz1r5/tgdXD867bdrotF7d+N3Hzi14PFjtfizr/ss4v6+dn0V9ZP4cgi35qji49b79rkUaK65Juy+Vd/8CF9nKSUCVCLEhpyXjgjgml27+JO8Ondejrgj0VHbVwPsBSgQUMCkEWfdNorHnpO7+0xgGA5IxOyDDJPSrhp987srrZCM5w1lCmPcd9aG7Euv1PxPmbYJ03w7q9Trpc0tfdlks7P0639bu1ZEj6fmWNolWW6PPOHP6Wua0vffhXK/O5OgOsuPOtqOlJt9sp6XJJ5xe9HiQ5r9K2pIlbr/N8TTt6Yed6cdOLGu0w66iESd//kCVh8OuvnQne+3mjFtJbK44+LbpB/nDCNzVKIUNPJRak8LpXNF9lf1GmmcPeFEwf9S77mDlRkDVzeDUq8lRgAYPuyJVh8MELpoPl4w41vdMcX36+3Q3JqcSijrKOShg3vdty+/59zspAPyxKM7vilcGek/4wVQVW1gqrrJUscdOTzk8r6/bS3tlPul7ez5GmomAqOida24PR7X9byGfJ4oAeWPutrwJLBRblK6siK265pBVbnfPTVmB1k/XncN6f3ycd8WxF1hU3jmVaH9JqNseStCqJq8BSocXQUIkFKYyN6IdFOdrjxwe7n/cn9i4L2nPSH8wFSf2gAgsYNmuPbQcX/XTLcac3Go1V/+bXvv0iexuSUYlFZTR6f0s71fvd9vHRNY1GoPEihQtHVgWTz//TuSqXeWVXtCR93W25uOlZl8srrlJgXtoKgbSVVIVXco0eOlelt+x7/z5ozE4Uss0kVGAVux7k0auKrHl5K7M6lVX5WnRvrHmvOXU2uOexRnD7fSOZPhekMb7ymKhlycbFTuEu07tVYHVOV6nFwFCJBQmdcnzDHRJKsef43wray063c1lUe/npwfQJv92znaQCCxh2UTWWEQvphebYUk97QEIqsRgGcbf2Et36W7Xco4QUL2rkPnPYm3/ceK1Po711KqsiK07QT2TGAAAgAElEQVRc5VTW9Tu3k7UCq2hpK7paR7w1aE5uCsZ+dF0pn2dee/naYM+pXwiCkdVz52bRvddUYEF2eSuy5mXtlZV0e1l7YxVV6VrUz/srLpgOLrx+iRELKVXCvlhlSFShNf/ETJj2Bw+UQCUWJLRkXIhFsaI+WFEVFqQxc+yvl9ofK9p2FGCpwAIIgkOWBHON3qFUjcaql77zS9qWQAIqseDH9hXDLPRvsxGcYV9RpMmokfveXkP9rsCqei+srKNTxW2n6AqBbp+jqF5Z0fpRuDR18h8Fy+796UzbWMy+CqyOHljzyq6sUoEFyWWtyJpXVK+suOXK+vnaqajKq4Uqyk4/Lgze+LLZ4PN36o9FeVYcfVp0w/zhhG+gxxVDSyUWJPCD60dVYVGoqWPeG8zqg0VGUX+smWPfV+jumw+wVGABHOxNL9Mfi3I1x5e73oAEVGIxCDpv0XW7ZZf5VvoRqxt+qVCY2WVrg+lj37dgr6F5ZVdmdc7v9jpuetL5SeXtiRX3eZKOtpW1N1bWSqssFQgzx10SjGy7JWjuvifVey0kCrCmXnDjvh5Y84ruhZV3vaTbi1s+KRVY1EFRFVnzqlKZ1anXlVoLzb/437aC935+LNH7QVqN5uhig0h1nqBpRyuEgaESCxIYGw2MTEhhpvTBoiDTJ38y94bmAywVWACLO+mIZx8rhDI0Gk2tSyABIRZ919grwedo5KmmyrOdsRFN3SnG9FHvDGZXnjV3R3f/037+dedXt/lx62VdPuv7dZP08/V7O2m/787peV9nPS7PPlb465nPzc4AK+3nyLp/0m4/6f6NWz6prOtBPxV13ib9eZp2+ar8fE37eTrnv/nlsx4rpDRnvu/eV+13rbL/V5xu1zed04u6noK+EWJBjNs+Prqm0QhW2U/kFY6sCqafW2wfI2gd8ytBOH5C6v2gAgsgm+ixQijD2PLD3TiHGHpiMcwS3YU45fiGRwkpRPQYYWdgMH93t/PfbvPTrpf1dbf1uqla1Uq3z1N075a8ow0WYvTQYOb4S4LxBy5OvLWogmv6hfE9sLpNT/q6rPMwbn9nPR6qrxgEnT+f8ur2c7CbpMt3+5zdfr4WPRpsmtEJO+dHjxW+/ozZ4JaNRiukWI2RsX5dd+ilRW2oxIIYK5bph0V+7WVrg5nD32JPUorZI94atFeelWjT8wGWCiyA7KLRCpeP24EUq9kc0xcLYgixGGRJn/le6LnzfestGdMPi/z2HP/bc9uI67UxL2uvjryvu20n6edLKq43UtKvvO8bt1zc+mX3con73PtPax1/Sez3H0Y9tE774lz1VppeMXmPT9rXSdeLWz6prOtBleX9Od1N2u0W/fuu6OWyzl+xtBG86eWavFOwRmPNqT//+2nuMvW0x1WKXsZQGiEWxBhpBmvsI/KYXfHKYHblmfYhpWqvOjtoP+f1Xd8iCrCmT/uiCiyAgpz3otngyJWevqJYh//kz3kKBBYhxKLOko62kfUOReOTvzpyaKMhxCKfqef+euY70d3m96rSJ+n8pJ+37IqAXlUIdM5P+7qoyqbOr9ZJH17w++wMsPK+b1mvk243bvmkij4focp69XM47/Jl/bztNj3v773/dJZqLIo1uvTQJCFW3PWNUQgZWEIsWMS/+ylN3clndsWZqrDomXDJmmD2yLce8HYqsADK81Mnt4PTjlWNRXGaY0v1xYJFCLFgEYeuEGKRz9Rz37fg+mnvAOe9M520sibp58u7fK/0qjIr6X7Pu16S7c4e//5923s2wLrpoB5Yce9X1PeR9nXS8zPp/KLXg0FS1s/trD93k24n7eu075NluTfrjUWBGo3miYv07FVhxdATYsEixkc9Skh2qrDoh6gaq73qrP0CLBVYAGVae2xUjdW2jylEozl6tj0J3Qmx6JsUo1sUdcch9XbGRgOVWGQ2fdS7CrnDu9hyndPjluu2fNz0pJ+j6oqqEEi737MerzQVWPsvP3vSR4KZtTcHjbGFRyEs6n2SLpf0ddb9npQKLOiu35VZaX9vFfVzNe5zJF3up08VYlGcl77zS1lvpCftEayii9oSYsEiRppCLLJpjx8ftA59nb1HX4SHnKECC6CHfvoFbSMVUpilhx5/or0JCxNiMYwS33loNIJVzhCymDnqVxZdK2/lVef8rMvHTU+63boqq0Ig7vjEbTfv9LRfed8363JJ92PS+UWvB8Os7MqsrMuVVZGVtzIr8qaX6Y1FMcaWH35On3alCi0qT4gFXfzg+tF+/fKg5sKRVcHM4W92GAFgiEQjFS4fd8TJr9FoKqeGLkbtGAZQ0rsHjS7/zlm1vKGpO5nMPUYYjQa39w5usMC/3cQtHzc9brtJpyfdblZFbTcMi310o/Nzddv+/HKd87ut37l83HJZpxcl7fmS9Hzs9Xmo+gqKk/TnY1JF/byN+zkbt17n9E5xn2t/K5Y+G2Tdfp86AfJpjIylbWkyf0L25JnW+b7GYdF/iEECfsJCF+NjgWfRySRq6A4ADJ83vdwjheTXaIy4mQ5dqMSCg83dWRhpCrFIL2ro3l52emw5YLeKq6IrYIquiEmr7EqYtHfOs24/6Z34pJUCncuXVYGVtNKgm6LOHxVYMHjKqswqqyKr83OmrQTr1G35o1aGwUmHh8FDT/k5RA6NxE+E9LQCC6pAJRZ0MToSuANCaq3D32KnAcAQO/dFqrHI7xX/zzeNkg4LEGJRR52jZnQbRSPX6BojzcAvDlJrHfHWRUeGSyrpaHDdpqcd/a2o0afKGs2q35+j6NG08k5P+v1lXa7b+ZR3etz3nXR+0esB+RX1czfrz4eifg+m/T4WWucVz1MUQ34jS1as3u96pttXHKMNMnCEWNBFoxGssm9Io71sbdAeP8E+A4AhdsiSIHj5yW2nALmMLj3UDXVYgJ5YsIDbPj7qUUJSmxuVMEbaXljzuvW66ncPrLpUvRTVuyVtD5W0oxfGTe/2vkUfh6y9qvL2uNIDCwZH3p+7WXtkpd1e0vfpptt6P3VSO/jWg+oFyK7RHFlt98HB/GSFBZxwlKbupDeTIMQCAAbfT6nEIqfGyJhKLFiASiyqrKhb66m3s3S84c4HqYTjxwfh8jNSV1h1ilsv6/aKMigVL0VXZmWtFEhasdX5OXt1HHpVWaUCCwZf2sqpeWl/jiZ9PS9pxWzSzzlvxdIgWHtsGNzzmJ9TZNNoNPNcj3QbtbBzutENqR2VWLCAFcs0dSed2ZVn2WMAwD6qscil0fRkCCxAJRZAAeJCrKJ6YXWbnrQ3VtL5eZevm6wVAp37M2lPlax3/pP2yEqr6PNBBRbQTVkVWXHLp+1V2G1+Nwt9rrXHKW4hu0ajabQgWIBKLFjAkrHgHPuFNFRiAQD7O/mIMFg+bpcAFEmIRc819urHWxfYZwv2meuHtWRNruqQaN39v7rNzyvtdop637rI+/0mXT/p8Y5bLm75pF9pt5v2+0m7XNz6QP0V/XOg6N9vRf0+OP04jxSS3ZnvuzftjfWirndcN1FZQiyAnFRhAQALiZq7A1AcPbEYJEnvFnQu1+icPjoSnO3MIKnZ5afvWzJr76tORffC0gMrnbyjF6ZdP2mvl7r0xMq7fNHrA9WVtydhp7SjFc7L+nO7m/n19cUCKJZKLICc2stOtwsBgINEfbEgq7Hlh+vTCx1UYjHMut1Cc8ufVKLHCROXARY0OiG9VfbohXHHO29FQF79GkXQ+Q/DI+/og1mlHV12Xpr3jR4pvOcxP88o1fwJ1tPUtLH3P5CwqFJKSEAlFnS481OjL7JPSKq9bK19BQB0dZJqLIDCqMSCDquWB6vtE5LKOyrhvLjKLL2wqqGoiqx5aSsOOhV947MqlVPOQxheRVVkZe2NFbfdtKLtHL3KCU02jZGxNR0rdlZcJa3A6kulFpRBJRZADu3l+mEBAN2pxCKrRqN5op0HB1KJRZ10G1Wwk1v49Ex7/NkbZEWNStgvKl/SKboXy7y8oyD2WtHv7zwE5hU9amFSWSvBuom2o7k7Oe1/kqWtwIKBoxILOqxc3ugs24WuwiUn2DkAQFeHLLFvAIoixIIOy5YEQiwSm6/EihPdqV3oq5v5ZTt1Tk+6HOUoej93niNVU/Tnq/r3C9RH0p8jWX9vpv093ikaoRCA/IRYADmoxAIAoAyN5ujZdiwcSIgF0EdJ7/yWRQVMMcqqKMp757+o9yvr+wIo++dF3t+zRf280tydPmnoF8ygEWIBZDS78ky7DgCIpS8WQDGMTghQAapSBkvZo2rV7XxxfgN1U/TPcT8FqZjO0Q2NdkhtqMQCAAAo0drjZAMARVCJxSDLdNOr0QgOdVaQ1Pyd2qIqTfJuJ+n6KmN6o3M/l1WZVVXOM6AoSSuj8i6XdX0/7wB6QyUWdBgfDc6wT0iivfIs+wkAAKBHVGJRRW5lUVudlVlFVWp1ru+Obz0NemWW8xKoqqJ6XHWrwBq2SluAflGJBQAAAEDlqcQC6CE9q9hf3SuznKfAoIirqFJxBVANKrEAAAAAqDyVWAB9oIKFhXQ7L/p959/5CgBAFajEAsioMbXFrgMAAOgRlVgAGTWmN9t19ETSSqikFVsqq4C6StqbqqzRCKEm5n/RO3EZOCqxoENrNpBMAAAAQMWoxIIOs+3gYfuEXul1RYwKnMHm+AIAMMhUYgFk1NQTCwAAoGeEWAAZNaaFWABAvHseVSkLUAQhFgAAAACVJ8QCyGFkxwa7DwBY1K5p+wegCEIsAACAEj34hMcJAYogxIIOrdlgu31CUs0JlVgAwOJUYpFF2G6tt+PgQEIs6PD0RLjRPiGpxqzMEwBY3ENPqsQCKIIQCyCH5u58mWcYhnNfvdLr9wOAYbd1Ytj3AEBxhFgAOTR2b7L7AICutu5QhQVQFCEWQA6N2YmgMbXZLgQAFrTpUSEW2YTtlj8yoYMQCzr85C+1vmafkEZTNRYA0IXHCckqbM8+bOfBgYRYADkJsQCgWqrUA/LBJyvwIQAGhBALIKeRHUY/BgAWZmRCgOIIsWAB7TDIN+QcQyVLc/e4O8RGEQSAg9VtVF/9sMhjeufWrHdKw71fMHCEWLCAdjvYbr+QVNTcvblb7gkAHEiIBVAsIRZAAZoTGxbcSOcdXBVWADA8HnzCwSa72akdbqxDByEWLGBqJjBCIamMPHOLHQYAHEAlFnl884/OvNsOhAMJsagiz3BTO80dG4KgtW1fpVXWCqxuyyXdXt73AYBhVEavyijA2j3tdAIokhALFjA5FWy2X0ir2yOFAMDwueN+B53swnYr/chBMASEWAyyzBVdO3aHQixSG9nmkUIAKEOvKpqTbr/b1/42epSQfLbZf3AwIRYsYGK30QlJb+SZmz2fBwAEWyeC4KEn7QeyC8O26xFYgBALFvCyX2lpokhqjdkdjawN3vvVo0pvLAD4sby/F+fX/8YDdir5hK3pjXYhHEyIBV2EYTBh35DWyDM322cAMOT+4bseJSSfsN1SiQULEGJBF7PtQDUWqTWf/sJMYzb+b45uoxh2Wy7p627LAUAd1bFS+dlHCYVY5DMz+UyZ1yKdvYONDk9tCLGgi3aoLxbpNdqTY82MjxQCAPV3xwMCLPKbndrhWgQWIMSCLqamA8+hk8nI49dtTzN60UJ6fedZ5RYAdZZ1VMK0FdFJ3PgdIRb5ffOPziziWkSFFQNHiAVdTE4Hm+0bshjZfffqxpTTBwCGzaZHG8ETOxx28gnD9ha7EBYmxKJOkj67Xcgdh12T4cPODrIa3fyBZ7KsmrXHld5YAAySqlUkJ62w/ofv9ugDM9jCtusQ6EKIBV18YUPocUIyG9n2t0uTNHgHAAbDrimjElKM9uy06xDoQogFXbzv2tntYRhM2D9k0Qhnlo08+onY8yeuV1avK6xUbgFQJ1WpYI7WufGfnDoUJAy37fd0yWJfMHSEWLCI2XZQ5tC2DLiRrf+95RgDwHDQ0J2iTO/cut7OhIUJsRhmcT21wtas5u5k12zvPKzx+B8/nWWUwn7fWVaRBUA/9LrSOG560s8TPUa4e7qwj8uQ27NtS9KeWEl7ARulkIEhxIJFTM2oxCKfsS1X2IMAMODW3aEKi+L8039/vRvp0IUQi0GS9U5E53Pm+zw9obk7+UTVWM0fffbppBupSm+sXm0fAIICK4bLrnRe6OvL9wbBEzscRooRtltZHiXsS6VVuFev35fhJsSCRdxyR6gSi9yiaiwjFQLAYFKFRZHCdksVFixCiEXP9TGxT32H4tf+yAiF5DdXjfXox+dSrMXu5OapwIp7Hbe9OCqyAChD2T0by65wjnphqcKiSO2ZPZ4EgUUIsSCGEQopwujj14yrxgKAwbFrKgg+81VVWBRrZvIZ1x6wCCEWxJicCgxxS26NcGbZyAP/ZVfS7ZQ9yqCKLAD6qejfJ0VXKCepnL7xO0YkpHhPfPemPJVYRfXGMpohlSXEghjbd2nuTjFGn/6rQ5q7nU4AUHdbJ4LgL+5wGClWGLa3/OCWS5XuwyKEWFRZJe4kfPdhjxNSnNEfvOuAe7Zl98aKk7ciS2UWAEnk/b1RtQrlz3w18aKQWNhuue6AGEIsiPH697c2a+5OUZqT942PPn6N/QkANfWN+4Pgjgf0wqJ4YWtayT7EEGJBApq7U6SRLb/TCvY8vOgd37SVWVl7gSSdH0dlFgD7K+r3QlkVyll7YUXN3P+7Zu6UZHrXE18raMvdnkTpnK73FbUjxIIENHenSI327tGxBy6yTwGgZtbd0Qi27nDUKEfOpu4wFIRY1FHSOwiF3Vl4cntY1F0RmNOc2BBEjxWm7YmVt8Kq7IqsuM8LwGAq+ud+0RVYaX+/LmTTI0Hwxe8M5OGjAsJ2a9MPbrl0237XMKHKKTiYEAsS+MIGIxRSvNGHLw+MVggA1Rc9RviJWz1GSHk0dYdkhFhwsIPufrzv2tltrdlgk31F0cbuvyhozB48knLWnlhJ74AnrcgqqzIraQUaANVU9u+JbvPjpid9nbYnVhRgeYyQMrWmdizWviRrRZbKLQaOEAsSas1q7k7xGrs3BaMPXWbPAkBFffm70WiEjg7lmp74oWsNSGDUTmIAzd9tiKv57nZXYsH1JnYH65eOB29zwlC0kSfXBeEhpwetY96zb8uNxoGnYefd4vn589O7Ld+5XNL1OyVdLi/VWCyk7PMO+LFe/xyOe79u89OuF7edzn/nPfhEEHzmK34GUbIwnPjmH52ZpcdEX/5wCv3BRh+pxIKE/vkHmrtTnrn+WBMGwQSAqoj6YF15UyPYPe2QUK52e8Z1BiSkEothlLRS6wCvf39r89StY1uajeAEZw1lGP/eO4KpM74ahEvWHLT1uEqrbtPzVmp1SrocFMkNXxgcSf97TluB1a2SqtvrJJVcv/8lfbDojfb07rx3Mov6RekXLpWnEgtSmJ4J3CWhPLMTc0HWQo3eAYDe+cxXG/pg0TN7tm12jQEJCbHom3CvBO9f1KgaubcT9cUq4HNAV1Gj9/F7z983O24Uv7jp3V5nnd5tfaMLArCQokbPTTqaYLflk/4ejb7+/t4w+OJ3HE56JHs/LBhKQixIQV8semFuxML7L7SvAaDHvnF/EPzBrR6Vp3fas9NukkMKQixIIeqL1ZoNNtlnlG3kiXXB6A8ODrL6VZGVtTJLpRbAcMn7e6Pb/G7L5/29t//8B54Igk8IsOix1tTETfs9MdL5lVa3J086pxf1pAv0nBALUtoz7ZFCemPkyXUqsgCgB6IA67L/FRiJkJ7b+djdnvSAFIxOSJ11jjLYbdTBTKMRdrs7sW1n+LUVyxrvdubQC1FFVnQmtn7i6rl3ixtNMGu1U9JRCvOOTpj08xn1EKDasv6+STIqYJLpWV8vNDrhXID1PwVY9F4Ytrd8509+fvMibxx2+TeOKisGlkosSOnkt7Zuss/oJRVZAFAOFVj0U7u1x3UFpKQSi0GWtAKr252KrutNt4Kbx0eDc5099ErWiqysr+elrczqtlxa+mdRByoGGSRl/dxNut1eVWDtTwUW/dba/UzWNiX+UGJoqcSCDHZN6otF70UVWWP3nhcEre32PgDkoAKLKtjw0VNVYkFKKrEYZll7ZQV33hfe9LMva3zY2UOvNSc2BOP3nhdMn3ZTEIyuLq0iq3M785L2xCqrQguqRMUg/Fja/x6SVl51m561Ait6/Y37g+D3vyTAor/aralbCvgARf0iSrSd0C8+KkAlFmTw+ve3Nrdmg032Hf3Q2L0pWPJPLwoauzba/wCQwpfvDYIrbxJg0X+tqQlVWJCBEIu+C/dK8DnCgu42FLKdPdMeKaSPZifmKrKaW68/4C5z9P/3/+qcHve623Kd05POj1s+7RcA/dXt53ban/tZf//ELbfYetfdHgafuNUJRDXsfOzur+13XZL3+qTb+kVdP0FlCLEgo+9tCa+37+ir2Ylg9P6LgtGHLnUcAKCLXVPPNnD/4nfsIaohbLc2fedPfn6zwwHp6YnFIOjsbdWt11XmHlgd6895xYWtu6duHdvSbAQnOIvop5HHrw2aE+uDmVOvD4KlJ859kqxVS0l7bHVOnxf3vkYthB/TI45+KPvnaNz2e90LK2rgfuUXg2DrjgQfHnpkdmpnt5vhYcy/eflDitpTiQU57JkOPMtOJUR9ssbvPidoPn2zAwIAe/tfRSMQCrComolH7nINARk13NWmKhrJb0l3W65zeiPh9Lj1uv5756dGz3jx8xt6Y1Ep7ee8Pph5/tUHjF7Y+Z9X3Otuy8VNTzo/K5UrAP3V61EIu01frAIrenwwGn3wjgecLFRPGLa33PYbq07f+8HiKq+6/RuknN/tddz0AxcSHlABKrEgh5f9SmtjOwy22IdUSfOZW+ZGL1SVBcCw2fhIEPzq9QIsqqs9M+kPNMhBTyyGQVwvrFy9snbvCW5esSx4tzOJSpmdCMa+9465qqzWSR8Owr29spJK2xsr6fxuyyflBiCDRGUh/VDWz9F+98LauScMbviG5u1U3+4nvlfE4FA9/YNIBRZVohILcjJKIVUWVWVFvbJGtnzEcQJgIH3j/merrwRYVF30KOG3rj5nowMF2emJReUk6I2VtidW5+vMPbC6bWfq1rFNRimk6sIlJwStEz8ctA87t2uvrHlJe2YlnZ92uX5RGQNwoKJ6YMXNT1uRFf27dSIIPv0Vjw5SH63JbZd+9bePvzpBr6t2x+usPbI6Je2RdeBCQgMqRCUWFMAohdRBY2rL3COGY/eeFzQnjEcAQD1FjdvXfSMIfvmzAizqxaiEkJ9KLCqnAqMUpq7UMkohddRedVbQPuHSoL3q7H2fvuhRCtMul5SKKSie/66qoep/myf9fEVVZHW+/vt7wuDTXw2C3VOJPgZURthubbrtNw89a/7UzvhvELNe5/xur+OmH7iQ0IAKUYkFBYhGKWzNBpvsS+qkObEhGL3nvGDsnnNVZgFQaV++Nwj+rz8Og0/cKsCinmYmn7naoYP8jE7IMEk6SmEQs9yCduwOrn/OyuDDzijqpjGxIXj47ncE1yz5teBNz/t3wUsOf+G+7yDrKIVpl+u2XjduCDKI+l0J5b+rwVbXUQmjyqvo0cGtO3J8SKiAH971P24u4FP4Qc3Q8zghlVPi44Sdrwtt9H7lL48c+r63NB+u3h6FxX2/tSq4cPtZwc5wbG65o5cdEbzxef8ueN0J5wQrxw9ZcN2yHyP0WBPDyHlPmeoUYkU9r77wT2Fw4z892/8K6q7dmrrl9v92+NtyPEaYtpG7xwkZWEIsKqcPIVa36an/3fk3YzcsGQte76yiLjoDrE6vPeHs4Oxj/nVwzjH/+oA5RY1WmHV5qCLnMXWW95qgiDBr4yPPVl79w3edSgyWqe2Pvn3DR0+9KUMoVVaIJbyitoRYVE6dQ6wH142ee/yRjesTfn7oq7gAa3+HjC0PzjnmpfsCLSEWHMx5TJ31K8T60fYw+Pt7w7meV1snnEIMnjBsb7ntN1advvcbE2JBTkIsKitHmJX1dSGPGU7dOrap2QhOcGZRZWkCrE6HjC4Lznnuv57rnRUFWivGlu9bQnjFIHF+MszSXiOkCbGisOrr90fN2sPgwSecZgy22eld137lg0dfsvebLOqxwaxhVtz0AxcSFlBBQiwqq64h1jNfHLtqxbLg3dXdswy7PAHWQn5i1ZrgJUe8MHjJ4S8IfnL1ScExy49IvK6QgCpzfjLMig6x7t4SBt+4P5x7ZFBwxTB56r6/e9E//9kvzvfNFWJBTkIsKquuDd5v/J3RE1/3isbd1d2zDLOiA6yFRI8enhIFW4e/MPiJ1WuClWPLDxjxMBAO0CfOO0gva5gVhVUbH3k2tNr0iB3PcApnZzbc9oHnnFtiI3cN3Rk6Qiwqq64hlgbvVFUvAqzFzIdb0eOHp6w+cW7JY5YfGRyzLHnlFuTRqxArOr/3f8wW6izuWuFHE9HjgWGwccuz//+BJzwiCPOmdz1x4forT75BiAXFEWJRWTVu8B48uG70PA3eqZJ+B1gwTN6/9rLghCUvcMwZGLumguD+rc9eM0T9rKKwKpomrILuKtrQPW76gQsJC6igUQcFinfyW1s3Td06tkWDd6pAgAW99Qe3hsHopL/7AYZZe3q3G9pQgqadSlWFe/Xg44UJS2rDhF9zdk0GfnHRdwIsAIDe2/bQhhsSvGm364u45eOmJ11u4Tfp3XUYpCbEgpJce2P7GvuWfhJgAQD0Xntmct0//9kvbrbroXhCLAZB1jsSSe90JK3UOsBln5ndPjkVrHOG0Q8CLACA/pja8fifZ7l+2E/cdUim6xMYBEIsKNHt3wk/bP/SawIsAID+CGdnNnz9/ztjvd0P5RBiwcGy3tk46Hn2Cy5vPTzTCjbYx/SKAAsAoH9m9mzbvy9uqp66QDwhFpTs4R+pxqI3BFgAAP0Thu0t6688OX1SK94AACAASURBVElDdyAjIRaDJO+djLQ9shLdQXnh/9la35oNNjnTKJMACwCgv2b3TFyd8QNk7YFlVEKGjhALeuDpHUHWX2gQS4AFANBnYTjx6Lf+WBUWlEyIReUVcEegqFEKM7//cW+Yub4dBltybAMWJMACAOi/2eldV9//dx/YVlDPK6MSQhdCLOiRJ7cHemNRKAEWAEAFhOHEI3dcd41DAeUTYkF3eXtkHbD+cW+YuUE1FkURYAEAVMPeKqzti3yYrKMTqryCDkIs6CHVWBRBgAUAUB3bHtqgFxb0iBCLQZT0jkXW0T8y3xH5079t3xyGwYSzjqwEWAAA1dGemVz3z3/2iw/3aJT0pK+TbvfZhYxKSI0IsaCHLvvM7PaJ3YHn5clEgAUAUC3PPPBVT1pADwmxqI0SRilMOj/vqCIHfF33xfbVemORlgALAKBa9lZhbd7vQ6XqmbsAPbAghhALeiyqxtIbizQEWAAAFROGE1u+fs37HRboLSEWdJd3dMKujFRIUgIsAIDqSTAi4WLirhvyPiGioouBJcSCPtn6TPAR+57FCLAAACooDCceueM6fW6hD4RY1E6K3lhJ72DEvU663bjlD/g64U0z16vGohsBFgBANe1XhZX5yYwOWSuvclVcGZWQOhJiQR899mToOXoOIsACAKgoVVjQV0IsiJf0mfXUd2BOfmvr5plWsMExYJ4ACwCguqZ3P/n+FL2wjE4IBRNiQZ898MNQbyzmCLAAAKorDNtb1l958g0OEfSPEIthUJXeWJ3rzX2d/p9aX5uaCW5xJg43ARYAQLVNT/xwvhVI3l5YaUcnTHqdkuj99cKizoRYUAH/8G29sYaZAAsAoNrC2ZkNGz566s0OE/SXEIva6uMdhKQVWonvzFxweWvz9l3BVeV9ZKpKgAUAUH07H9+U5qazXlhQEiEWVMTVf92+JgyDCcdjeAiwAACqrz0zue5bV5+z0aGC/hNiwcHSPmOe9xn4ua8PfHZ22xPbA48VDgkBFgBADYThxJavXzMQvbBgEAixoEKOe8PMDTOtYINjMtgEWAAA9TAz+cxH7v+7D2x3uKAahFjUXoreWFnvXORdL9Udmo0PaPI+yARYAAD1ELZbm772O2uuzvvERYLle8KohAwCIRZUzCsubG3cORlc67gMHgEWAEB9TD7zsJvLUDFCLOiuL72xohnXfKH9YU3eB4sACwCgPqJm7t/4vRev7/jAemFBnwmxoIIu+8zs9h89E1zq2AwGARYAQI2E4cTmDX/ob3GoICEWA2PQemOd8KaZ6zV5rz8BFgBAvUzvfvL9D9z6oW16YUH1CLGgwv7+rvA9HiusLwEWAEC9hLMzG9ZfefINDhtUkxAL4pXVG6vbHZt9611weWvzxO7gGseofgRYAAA1E4YTT33vSxcu8KFj/27vQi8sKJgQCyruiJ+f+UhrNtjkONWHAAsAoH5aUzuuufvP37zZoYPqEmIxzHrVGyv3KCZ33x++x5laDwIsAID6CdutTV/9rWM/XNLog53L9YReWAwiIRbUwCsubG3cviu4yrGqNgEWAEA97XjsOws9RghUjBCLgVPiHYduz6jnfVY9UaWWxwqrTYAFAFBPs1M7P3LnNa+5e5EPn7Ynll5YUBIhFtTIP30/dIeoggRYAAD1FD1G+JUPHfMRhw/qQYgFxd3pSHtHJvXohWde3LrbY4XVIsACAKipaDTC+/7u7ft9+Ny9bKtQQaUXFoNMiAU1Ez1WONMKNjhu/SfAAgCor5nJZz5iNEKoFyEWA6sPvbG6LZe2Miu2Quvv7wrfE4bBRAHfCxkJsAAA6iucndnwtd9Zc3XWJyQyVl7phQU5CbGghi64vLX5R88Elzp2/SHAAgCosTCcePhrH3+7Qwj1I8SCHyu6N1a36YXc6TnhTTM3TM0Etzh+vSXAAgCot6mJx97zwK0f2rbAN5G3J1bS6aXQC4thIMSCGvu9z7UvbIfBFsewNwRYAAD1Nju969oNHz31ZocR6kmIxcAr8I5E0c+w5x6t8AOfnd12132hUugeEGABANRb2G5t+soHj96/JUfaHld6YUGfCbGg5s68uLXxqYngMsexPAIsAICaC8OJHY9950KHEepNiAUHK+qOR9Y7KqkrtI75hZmr9ccqhwALAKD+pnduvfTOa15zd84etXHLJZ1eKL2wGCZCLBgQ+mMVT4AFAFB/7ZnJdes/8vwbHEqoPyEWQyPDHYpePdOed9TCOR/47Ox2/bGKI8ACAKi/qA/W7Vcc+Z6SetR2m5+UXliQkhALBkjUH+vxp4OLHNN8BFgAAAMgDCeeuu/v3OSFASLEguKkfRa+qNFPDvg64U0zN0xOBesc12wEWAAAg2H3k99/+91//ubN+30zVRmNsBB6YTGMhFgwgFadO3NhazbY5NimI8ACABgMrT0TV33j91+63uGEwSLEYuiU2Bsr73YKrcz63b9onxeGwUSKzzfUBFgAAIMhauT+1d869iMlVl7lrbTSCwsyEmLBgIoavd95X3ie4xtPgAUAMBiiRu6bN/zhpQ4nDCYhFkOrwGfIez1aYeI7RWde3Lpbo/fFCbAAAAbE3kbuD9z6oW05RxlMulza64BCKrD0wmKYCbFgwEWN3ndOBtc6zgcTYAEADI6JR+86r6OROzBghFiQXN5n3dOOVljYM/zPOX/m0qmZ4BbH+scEWAAAg2N6x48uuvOa19xd1t/THcvFTdfbCkoixIIh8XufaxuxcC8BFgDA4Jid3nXt+o88/waHFAafEIuhV+HRCrtNz3QnKWr0bsRCARYAwCCJRiL8ygeP7mzkPpCjEeqFBUIsGCpRkPWNe8PzhzXIEmABAAyOaCTC26848kKHFIaHEAvKl3VUklLuIL3qV1t333lfeN6wHXcBFgDA4IgCrIe/+nvzf9PG/V3cbX7Wv7+zvs5EBRb8mBALhtCZF7c2PvZUePGwfOcCLACAARKGE0/+yy3veODWD213WGG4CLFgrx70xko7KmG39QupzDrxza3rH386uCjB91lrAiwAgAEShhMTj9513sbr3/Zwjp5WSZcrazRCoxdCRkIsGGInvGnmhp2TwbWDugcEWAAAAyQMJ7Zv+eb5d17zmo0OKwwnIRZ0qNBohXnvLCV65v85589cOjkVrEvxOWtBgAUAMFimd2699K5P/czdef/+zdH7KmulVtz0BemFBQcTYgHBqnNnLhykIEuABQAwWKYmfnjx+o88/waHFYabEAvKV9QoJkXdUVpw/UEJsgRYAACDZXrHjy7acNUp15fwd3DcfL2uoGKEWMA+UZDVmg021XWPCLAAAAaLCixgf0Is6KLA3lhJl8/7TH63+anW/92/aJ9XxyBLgAUAMFhyVGDl+ns4x5MT3eiFBQURYgEH+MBnZ7fXLcgSYAEADJaZXU9ergIL6CTEghg9GK2wqNFPCrtDVacgS4AFADBY2jOT67525UlXL/BN9br3Vdbl4qYvSAUWxBNiAQuqQ5AlwAIAGCxRBdbtVxx5ocMKLESIBb1XVO+svL2yYudXOcgSYAEADJaoB1ZHBVa/el8l/Xu9kAosIDkhFrCo+SBrcipYV5U9JcACABgsRiEEkmh45BbSaTQajbSrpJyf9XW39QqbP3Hz2CeXLQne2s9TRoAFVN3yxy4NRidf4DgBJBRVYHUEWGGXf7vNL2q9rK87pbrI1gcLklOJBSS26tyZi/pZkSXAAgAYLCqwgDSEWJBSgaMVJl2+qFFRChm9sF9BlgALAGCwRBVYG6465fr9vqm8owum7Y2V9e/uboxGCCUTYgGpRUHWE9uDy3u15wRYAAADJAwntm++49UqsIC0hFjQO1krqOJelz164YJ3to79xZmrH386uKjsvSfAAgAYIGE4MfHoXefd9amfuXu/b6rQJwcWmN+prCcfElGBBdkJsYDMTnjTzA0PPR7+UhgGE2XsRQEWAMDgCNutTdu3fPP8O695zUaHFchCiAUZlXAHJeudorjliu4ZcMD0U97RuunO+8Lzig6yBFgAAIMjCrAe/urvlVWB1amonlhZpwMlEWIBuZ15cWvjFza0X9WaDTYVsT0BFgDA4GjPTK576PaPnv/ArR/a7rACeTQ8igvFaDQajZQbilu+c3635Rtd5nd7HTc963rBh/7TyOr3vrl5/dhocFaXzxpLgAXU3fLHLg1GJ1/gOAIEQTA7vevar3zw6Es79kXY8W+36XHzk05Pu1zc9KTzD1zYxTfkphILKMwHPju7fflrZ86fnArWZdmmAAsAYHBMTfzw4q988OjLHFKgKEIsKEiGHllxz9AnfUY/6fI96ZEV/f9V585c+MT24PJFPutBBFgAAAMiDCd2bf3uBRuuOuX6Rf7WTPI1L+vfqXHLdZP27+7FN2Y0QiiMEAsoxbG/OHPNvQ+FFyRp+C7AAgAYDPMjEN7xiZevd0iBogmxoP/SjmqSdlSVvlVkvfiXW1/7xr3h+Ys1fBdgAQAMhnZr6paogfveEQgL+XuyoAqsbvIuvygVWFA8IRZQqlf9amvjh69vnz81E9zS+T4CLACAwdDaM3HV7f/t8Hc8+OUrjUAIlMbohFCSDKMVzosbhTBuetbXmUclTDr9yS+MXbL6kOCSQIAFDDCjEwJDJQwnJrc9fNHXP3b6zSWMKph1dMG0r7utFzd9UaqwoHgqsYCeOeLnZ66K+mTdM33oQwIsAIB6m+9/tTfAAiidEAtKkuMZ+G7P2iedXlaPrEKmv/iXW+v/85NnfV2ABQBQX+2ZyXV7+19t7PXfkwtMz/q623px0xelFxaUR4gF9Ny3/4+/vmh298xV9jwAQP1MTfzw4tuvOPIi/a+AXhNiQclKuBMzEBVZ//Sfb7xq8pGJC4IwmMiwDwAA6LG5xwc33/HqDVedcv0Cf/Mt9lXI348LTM/6utt6cdMXpQILyifEAvrmnvfeuv6x//XdF4cz7YNGLgQAoDo6Hh8E6AujE0KPZRi1MG75uoxauOhyL7nuvAtHVy65JGgEqwKAGjM6ITBQwnBiasfjl2246pQbMowOmHd0wV6PQph0/oELu6iGnlGJBVTCd9510zU7v//U+eFsuMkRAQDov+jxwSe++8VX7Q2wAPpOJRb0yRBUZGVe/1/98QWXjCwfuyQAqCGVWMAgaO2ZuOqrv3Xs/EA8ZVdgFV1xpQILBpRKLKByoqbvO7/31KuDMNzi6AAA9M588/b9AiyAylCJBX2SoRJrXr8rsjpfl1a5dewbTlt9zHmnXNJcOvruAKAmVGIBdTU7vevar3zw6Mtq3PNKBRYMOJVYQGU99j/v3f7t//iFyyYfmbhArywAgHKEYXvLrq3fvWBvgAVQWSqxoM+GuCIr9XJ6ZQF1oBILqJOo99WWf/yjax/88pXbC6iQ6lfFVU8qsPat5CIa+kaIBX0mxEq33As+9JozDnn+c65sjDTPCgAqSIgF1EHU+2rikbsuuutTP7Nxv48rxEpAiAX9I8SCihigMKvzdd5wa8H1XnLdee8ZXbnkkqARrAoAKkSIBVRaGE60pnZcs7dxe9FhVdnLdRJewZDREwuope+866ZrHvtf331xe6r1F44gAEC8dmvqlie++8VXGXkQqCuVWFAxQ1iRlXu9tR/72bOXPnfllY2RxukBQJ+pxAKqJmrcvmfb5su+/rHTb9770Yp+7K9XoxFmnR633uIruWiGyhBiQcUIsbKv5xFDoAqEWECVtCa3fXTL16++Zm/j9nlCrBSEWFAdQiyoqAqEWd2mFx0+FRqSHfuG01Yfc94plzSXjr47AOgDIRZQBdGjg0997+8u23j92zb3IJwqar1ur7NOj1tv8ZVcLEPlCLGgooRY+d7v+f/1lWsOfckxVzbGmq8PAHpIiAX0UzTq4O4nv3/ZHZ94+fr9PoYQKwMhFlSPEAsqbgDCrLjXpYZdz/bLWnFJY6R5VgDQA0IsoC/CcGJqx+OXbbjqlBv2e/uyQqWyt9tJeAXMEWJBxQmxiqnYevE1575t7NCoX1bjhACgREIsoKfCcKI1teOaLf/4R9d29L0KhFhCLBg0QiyoiSEIszpfl7JdYRZQNiEW0Cvtmcl1D3/t45ftF15VNYwqO8zKutyBG3dxDJUnxIKaEGIV+/rZMGvplUYyBIomxALKNju96y+e+t6Xrtq07pce7ngrIVa65Q5cycUxVJ4QC2qmxDArbrlehVc9ex2NZHj063/i3SPLxt4jzAKKIsQCyhJVXj31/Vuv2jviYNDDMGkgHxvct7KLYqgNIRbUjBCrnNceMwSKIsQCilZC5VXa10IsoBKEWFBTFQ6zki7Xr8cMF11OmAXkJcQCitLHyqteve72PnHTk85ffGUXw1A7QiyoKSFW5u0kWi4Ks0ZXjb+1MdI8q8v6AAsSYgF5VaDyqlevu71P3PSk8xdf2cUw1I4QC2ouR5g1r66N38t6fcB2137sZ89eevSKdzfGmq/vshzAAYRYQCZhODE7s/uGp3/w5WtTVF51m96vxwbzLhc3Pen8xVd2EQy1JcSCmhNiFf56we0+/9deceLqf3XMJc3x0ddrAg8sRogFpBGG7S2zeybWbd7wh9c+dNtV2zpWFWJlm7/4yi6CobaEWDAgahhmJV2uUqFWNKLhUT/3vLeNrhx/t75ZwEKEWEAS4ezMhuldT67bcNUpN+y3eK9Dq7Jep/1+ipq/+MZd/ELtCbFgQAixSnvddbtrP/azZy05+pD3NMdGXtdlHWAICbGAxUT9rnY89s/XfvvTP7exxEonIdZCK7v4hdoTYsGA6WOYFTe/7Mf+ynrf2OWe/19fuWbV2iPfOrJs9G2qswAhFtApemSwtfvpax+547obHvzyldv3m13X0CrvcnHTsy534MZd7MLAEWLBgBFiFf6+qZaLGsEvOXL525pLRt/SZTvAgBNiAfOiqqs92zbfcMcnXr6+y04RYiUjxALmCLFgwOUItZKuV9fHDEtdL+qddeTPnHzu6KrxtzZGmmd12QYwgIRYMNzCdmtTa3LbugWqroIehlad03v1Pnmnx20vEeEVDC4hFgw4IVbh75N6uef/2ivWrDztyNePHBIFWo3TuywHDAghFgyhMJyYnd61bscP717XpdfVPCHW4tOTzl98ZRe5MLCEWDAkKviYYdVCrqLXW3B61D9r9RlHvbu5ZORc/bNgMAmxYEiE4US7tefmqZ0/uuXrHzv95o5vutchVtb1evXYYFHzF9+4i1sYeEIsGBJCrGqEWPtPV6EFg0mIBQMsqria2X3L9K4nbv76x06/pYAKJCFWuvmLr+ziFgaeEAuGTI0bvxe9XNnvl2r9qEJr5amHn9tcNnp2c2zkdV22BdSAEAsGzOIVV/OKfuyuX48dpl0u6/Sk6ydb2UUtDA0hFgwZIVbP3i/t+vvmP/cXXrD6iNecdNbY6iXnNsdHzvLYIdSLEAvqLwzbW9rTu2+Z3v3k+piKq3lCrHTTk66fbGUXtTA0hFgwpHoQZsUtV7fHD8v6HHHTgxd86DVnLD1mxdmqtKAehFhQT+HszIbWnu237H7q/vV3fepnNnb5Jvr1+GDS5fr1OYqen4jwCoaPEAuGlBCrPiFW5/y1H/vZs8afs/Ts5tLRsxojzbNi1gN6TIgF9RC2W5vaM3s2RNVWP7zrf2x46LartucIZ4RYxc5PRIgFw0eIBUOugDBrXq8eM+w2vej1ex1WZd5/az/2s2ePrVpyxlyl1mj0+GGwKmZbQImEWFBNc48IzkxuaO2ZWD/xyLfWb7z+bZsX+aBlP05Xt9Aq7XbSrp9sZRevMPSEWDDkhFi5t9f3EKtzfjTq4YpTjziruXT0jOZ483TVWtBbQiyohujxwHZralNHpdW8siuu0k4XYiVZ2cUrDD0hFnCACjxmGDe/6qFW0dPjtpdoftRXa8mRh0Sh1pq5xxCbzTNUbEE5hFjQe/NVVu2ZyY3Tu57YeMcnXr4+5kMMSoiVd7ms0+PWy7rcwiu7aAX2EmIBBxBilba9rNPj1ks6/6DlolEQDzvzhNOjRxEbYyNr5qq2mo01RkOEfIRYUK65CqvZ6S37BVYbFnjDsno2CbHSzU+6ncVXdtEK7CXEAhZUgzCr2/yyQqW6h1ipjucLrnj1i0ZWjK+KGshHr6PqrbmNeDQRYgmxoBjzYVU4O7N5ascP1+9+8vubY/pY7W9QQ6x+bTfp/LTLLb4RF6tAByEWsCAh1nCHWLGPJ17x6jOikCv6//NBV9Bsro6qufZtwCOLDCkhFiQTjQ4YhOH2qG9V2G5tn9mzbWN7ZnL7j+7+n5s6+lcFGSp5hFjFbjfp/LTLLb4RF6tAByEWsKgeNn5PulxVQq2071f0+yadn3a5rMsn2s7aj/2sSi4G2qGN//fXxqdf9m8b7eUONMMnDCfCdmvj/Pc9X0UV/f/5gCr6/wn6VS2mqBClrAbmdQutipqfdDuLr+ziFIghxAIWJcRKPV2IVc52oDZe8avfEtYyFLr0ooqT9+JDiFXsdouan3Q7i6/s4hSIIcQCUqlRqFVUKNTvxwXrFmIJrQBIIutFSL9DrLj5VX2ssOj5Sd8n2UZclAIJNe0oAAAAAKpOJRaQSR8qspIu36tKqLo0dE+7XNbli16/31SUAXVTtz/q+12JFbdc1Rq/Z50et17S+WmXS7YxF6NASiqxAAAAAKg8lVhALgVWZM0rurKo3xVYZa2XdH7a5bIuX/T6AAy2qldixc2vagVXUfPTbi/ZRlx8AjmpxAIAAACg8lRiAYUawsqsstbr1fy071f2+gAMh7IrsZIuX3TlVNXWK3u5ZG/qohMoiEosAAAAACpPJRZQqgqPYph0ubr3ulKJBUCV9bs3Vr/mV200QZVXQC2oxAIAAACg8lRiAT3Rx15ZaZfPu1zVKqxUYvWGCjSgaMPyR3rVK7GK2k7Wiqx+L5fsw7moBHpEJRYAAAAAlacSC+iLGlVmJV1+UHpcqcQ6kAoroKoG5Y/4fldiFb1c1XpdFbXewhtzMQn0mEosAAAAACpPJRZQCRWozEq73qD1turXKJL9ptIKGFR1+SO/VxVFVavIKmu5rNtPtjEXj0CfqcQCAAAAoPJUYgGVUkJFVqeqVDSpwAKA/JVCVa/ISrtcr5ZP9iFcLAIVoxILAAAAgMpTiQVUWgUrs7Ku1++KrqLWK2s7ZVEhBrC4qlwM9LoiK+16Vam4yrve4ht1cQhUnEosAAAAACpPJRZQKxWuzMq6flUrwcreTl3fH2BY9fqioaq9snq1fN73S7dxF4VATajEAgAAAKDyVGIBtdaDyqx5va7Q6td6Rb1/Xd4PgGL06qKi1z2ketXjqqj1k72Ji0CgplRiAQAAAFB5KrGAgVSD3llFbacuFVcqrACGW9EXHUVtr9+jA+p1BZCCSiwAAAAAKk8lFjAUatQ7q6ztqbQCoIrKuhipWqWUXlcABVCJBQAAAEDlqcQChlIPK7PmlfV+KqwAGAZVr9gqa3uLv5mLOWDIqMQCAAAAoPJUYgHspw8VWvMGvaJKRRfAcOv1RUfZ76fiCqAPVGIBAAAAUHkqsQAW0cfKrE6DWiEGAEkMWiXX4m/uIg1gQSqxAAAAAKg8lVgAGVSoQmte1SumVHQBDLeqXXRU4vOouAJIRyUWAAD8/+3a0Q3DIBAFQfqvOhVYiWSbLDBTwv3d6gEAeZZYAA8KLrSuWEYBsKPkc2NxBfAMSywAAAAA8iyxACZYaKH1jQUXADMs+aRYXAG8yxILAAAAgDxLLICAjZZaT3EPgDUc9UxYWgH8lyUWAAAAAHmWWAALsNQCgHksrgCaLLEAAAAAyLPEAtiIxRYAXLOwAlibJRYAAAAAeZZYAAez3AJgBxZWAGewxAIAAAAgzxILgNssugC4w5IKgF9YYgEAAACQZ4kFABcszIA6CyYATmKJBQAAAECeJRYAAAAAeZZYAAAAAOSJWAAAAADkiVgAAAAA5IlYAAAAAOSJWAAAAADkiVgAAAAA5IlYAAAAAOSJWAAAAADkiVgAAAAA5IlYAAAAAOSJWAAAAADkiVgAAAAA5IlYAAAAAOSJWAAAAADkiVgAAAAA5IlYAAAAAOSJWAAAAADkiVgAAAAA5IlYAAAAAOSJWAAAAADkiVgAAAAA5IlYAAAAAOSJWAAAAADkiVgAAAAA5IlYAAAAAOSJWAAAAADkiVgAAAAA5IlYAAAAAOSJWAAAAADkiVgAAAAA5IlYAAAAAOSJWAAAAADkiVgAAAAA5IlYAAAAAOSJWAAAAADkiVgAAAAA5IlYAAAAAOSJWAAAAADkiVgAAAAA5IlYAAAAAOSJWAAAAADkiVgAAAAA5IlYAAAAAOSJWAAAAADkiVgAAAAA5IlYAAAAAOSJWAAAAADkiVgAAAAA5IlYAAAAAOSJWAAAAADkiVgAAAAA5IlYAAAAAOSJWAAAAADkiVgAAAAA5IlYAAAAAOSJWAAAAADkiVgAAAAA5IlYAAAAAOSJWAAAAADkiVgAAAAA5IlYAAAAAOSJWAAAAADkiVgAAAAA5IlYAAAAAOSJWAAAAADkiVgAAAAA5IlYAAAAAOSJWAAAAADkiVgAAAAA5IlYAAAAAOSJWAAAAADkiVgAAAAA5IlYAAAAAOSJWAAAAADkiVgAAAAA5IlYAAAAAOSJWAAAAADkiVgAAAAA5IlYAAAAAOSJWAAAAADkiVgAAAAA5IlYAAAAAOSJWAAAAADkiVgAAAAA5IlYAAAAAOSJWAAAAADkiVgAAAAA5IlYAAAAAOSJWAAAAADkiVgAAAAA5IlYAAAAAOSJWAAAAADkiVgAAAAA5IlYAAAAAOSJWAAAAADkiVgAAAAA5IlYAAAAAOSJWAAAAADkiVgAAAAA5IlYAAAAAOSJWAAAAADkiVgAAAAA5IlYAAAAAOSJWAAAAADkiVgAAAAA5IlYAAAAAOSJWAAAAADkiVgAAAAA5IlYx6s/xgAAAGdJREFUAAAAAOSJWAAAAADkiVgAAAAA5IlYAAAAAOSJWAAAAADkiVgAAAAA5IlYAAAAAOSJWAAAAADkiVgAAAAA5IlYAAAAAOSJWAAAAADkiVgAAAAA5IlYAAAAAOSJWAAAAAC0jTE+BXyjpP7FTwsAAAAASUVORK5CYII=;" parent="55" vertex="1">
                    <mxGeometry x="59.004999999999995" width="71.99" height="60" as="geometry"/>
                </mxCell>
                <mxCell id="53" value="" style="rounded=1;whiteSpace=wrap;html=1;strokeWidth=3;absoluteArcSize=1;" parent="1" vertex="1">
                    <mxGeometry x="-100" y="662.5" width="420" height="260" as="geometry"/>
                </mxCell>
                <mxCell id="84" value="" style="group;fontColor=#d9e7fb;" parent="1" vertex="1" connectable="0">
                    <mxGeometry x="-80" y="115" width="1000.015" height="240" as="geometry"/>
                </mxCell>
                <mxCell id="19" value="&lt;b style=&quot;&quot;&gt;&lt;font style=&quot;font-size: 25px;&quot;&gt;Server (rank 0)&lt;/font&gt;&lt;/b&gt;" style="rounded=1;whiteSpace=wrap;html=1;strokeWidth=3;fillColor=#f8cecc;strokeColor=#b85450;fontSize=16;" parent="84" vertex="1">
                    <mxGeometry width="380" height="225" as="geometry"/>
                </mxCell>
                <mxCell id="71" style="edgeStyle=none;html=1;strokeWidth=3;fontSize=16;fontColor=#FF0000;startArrow=none;startFill=0;exitX=0;exitY=0.25;exitDx=0;exitDy=0;entryX=1;entryY=0.25;entryDx=0;entryDy=0;" parent="84" source="70" target="19" edge="1">
                    <mxGeometry relative="1" as="geometry">
                        <mxPoint x="1065.6575000000003" y="560" as="sourcePoint"/>
                        <mxPoint x="637.8261956521736" y="320" as="targetPoint"/>
                    </mxGeometry>
                </mxCell>
                <mxCell id="72" value="&lt;font color=&quot;#3399ff&quot; style=&quot;font-size: 25px;&quot;&gt;Gradients&lt;/font&gt;" style="edgeLabel;html=1;align=center;verticalAlign=middle;resizable=0;points=[];fontSize=25;fontColor=#FF3333;" parent="71" vertex="1" connectable="0">
                    <mxGeometry x="0.0235" y="3" relative="1" as="geometry">
                        <mxPoint as="offset"/>
                    </mxGeometry>
                </mxCell>
                <mxCell id="75" style="edgeStyle=none;html=1;strokeWidth=3;fontSize=16;fontColor=#FF0000;startArrow=none;startFill=0;exitX=1;exitY=0.5;exitDx=0;exitDy=0;" parent="84" source="19" target="70" edge="1">
                    <mxGeometry relative="1" as="geometry">
                        <mxPoint x="608.9123913043476" y="320" as="sourcePoint"/>
                        <mxPoint x="970.6549999999996" y="560" as="targetPoint"/>
                    </mxGeometry>
                </mxCell>
                <mxCell id="76" value="Generated&lt;br style=&quot;font-size: 25px;&quot;&gt;batches" style="edgeLabel;html=1;align=center;verticalAlign=middle;resizable=0;points=[];fontSize=25;fontColor=#FF3333;" parent="75" vertex="1" connectable="0">
                    <mxGeometry x="0.0984" relative="1" as="geometry">
                        <mxPoint x="-11" as="offset"/>
                    </mxGeometry>
                </mxCell>
                <mxCell id="73" style="edgeStyle=none;html=1;strokeWidth=3;fontSize=16;fontColor=#FF0000;startArrow=none;startFill=0;entryX=0;entryY=0.75;entryDx=0;entryDy=0;exitX=1;exitY=0.75;exitDx=0;exitDy=0;" parent="84" source="19" target="70" edge="1">
                    <mxGeometry relative="1" as="geometry">
                        <mxPoint x="579.9985869565215" y="320" as="sourcePoint"/>
                        <mxPoint x="875.6525" y="560" as="targetPoint"/>
                    </mxGeometry>
                </mxCell>
                <mxCell id="74" value="Swap partner" style="edgeLabel;html=1;align=center;verticalAlign=middle;resizable=0;points=[];fontSize=25;fontColor=#FF3333;" parent="73" vertex="1" connectable="0">
                    <mxGeometry x="0.0362" y="2" relative="1" as="geometry">
                        <mxPoint as="offset"/>
                    </mxGeometry>
                </mxCell>
                <mxCell id="93" value="" style="group" parent="84" vertex="1" connectable="0">
                    <mxGeometry x="614.5" width="380" height="225" as="geometry"/>
                </mxCell>
                <mxCell id="70" value="" style="rounded=1;whiteSpace=wrap;html=1;strokeWidth=1;fontSize=16;strokeColor=default;absoluteArcSize=1;" parent="93" vertex="1">
                    <mxGeometry width="380" height="225" as="geometry"/>
                </mxCell>
                <mxCell id="87" value="&lt;b&gt;Worker 1&lt;/b&gt;" style="rounded=1;whiteSpace=wrap;html=1;strokeWidth=3;fillColor=#dae8fc;strokeColor=#6c8ebf;fontSize=16;" parent="93" vertex="1">
                    <mxGeometry x="14.5" y="12" width="351" height="40" as="geometry"/>
                </mxCell>
                <mxCell id="90" value="&lt;b style=&quot;border-color: var(--border-color);&quot;&gt;Worker 2&lt;/b&gt;" style="rounded=1;whiteSpace=wrap;html=1;strokeWidth=3;fillColor=#dae8fc;strokeColor=#6c8ebf;fontSize=16;" parent="93" vertex="1">
                    <mxGeometry x="14.5" y="65" width="351" height="40" as="geometry"/>
                </mxCell>
                <mxCell id="91" value="&lt;b&gt;Worker N&lt;/b&gt;" style="rounded=1;whiteSpace=wrap;html=1;strokeWidth=3;fillColor=#dae8fc;strokeColor=#6c8ebf;fontSize=16;" parent="93" vertex="1">
                    <mxGeometry x="14.5" y="175" width="351" height="40" as="geometry"/>
                </mxCell>
                <mxCell id="92" value="..." style="text;html=1;align=center;verticalAlign=middle;resizable=0;points=[];autosize=1;strokeColor=none;fillColor=none;fontSize=40;fontColor=#66B2FF;" parent="93" vertex="1">
                    <mxGeometry x="160" y="98" width="60" height="60" as="geometry"/>
                </mxCell>
                <mxCell id="94" value="" style="group" parent="1" vertex="1" connectable="0">
                    <mxGeometry x="-80" y="680" width="380" height="225" as="geometry"/>
                </mxCell>
                <mxCell id="95" value="" style="rounded=1;whiteSpace=wrap;html=1;strokeWidth=1;fontSize=16;strokeColor=default;absoluteArcSize=1;" parent="94" vertex="1">
                    <mxGeometry width="380" height="225" as="geometry"/>
                </mxCell>
                <mxCell id="96" value="&lt;b&gt;Worker N+1&lt;/b&gt;" style="rounded=1;whiteSpace=wrap;html=1;strokeWidth=3;fillColor=#dae8fc;strokeColor=#6c8ebf;fontSize=16;" parent="94" vertex="1">
                    <mxGeometry x="14.5" y="12" width="351" height="40" as="geometry"/>
                </mxCell>
                <mxCell id="97" value="&lt;b style=&quot;border-color: var(--border-color);&quot;&gt;Worker N+2&lt;/b&gt;" style="rounded=1;whiteSpace=wrap;html=1;strokeWidth=3;fillColor=#dae8fc;strokeColor=#6c8ebf;fontSize=16;" parent="94" vertex="1">
                    <mxGeometry x="14.5" y="65" width="351" height="40" as="geometry"/>
                </mxCell>
                <mxCell id="98" value="&lt;b&gt;Worker N&lt;/b&gt;" style="rounded=1;whiteSpace=wrap;html=1;strokeWidth=3;fillColor=#dae8fc;strokeColor=#6c8ebf;fontSize=16;" parent="94" vertex="1">
                    <mxGeometry x="14.5" y="175" width="351" height="40" as="geometry"/>
                </mxCell>
                <mxCell id="99" value="..." style="text;html=1;align=center;verticalAlign=middle;resizable=0;points=[];autosize=1;strokeColor=none;fillColor=none;fontSize=40;fontColor=#66B2FF;" parent="94" vertex="1">
                    <mxGeometry x="160" y="98" width="60" height="60" as="geometry"/>
                </mxCell>
                <mxCell id="81" style="edgeStyle=orthogonalEdgeStyle;html=1;fontSize=16;fontColor=#FF0000;startArrow=classic;startFill=1;strokeWidth=3;strokeColor=#B3B3B3;exitX=0.5;exitY=1;exitDx=0;exitDy=0;curved=1;" parent="1" source="70" target="95" edge="1">
                    <mxGeometry relative="1" as="geometry">
                        <mxPoint x="660" y="620" as="sourcePoint"/>
                        <mxPoint x="560.0050000000001" y="832.5" as="targetPoint"/>
                        <Array as="points">
                            <mxPoint x="725" y="833"/>
                        </Array>
                    </mxGeometry>
                </mxCell>
                <mxCell id="82" value="Swap" style="edgeLabel;html=1;align=center;verticalAlign=middle;resizable=0;points=[];fontSize=25;fontColor=#3399FF;" parent="81" vertex="1" connectable="0">
                    <mxGeometry x="0.1828" y="-2" relative="1" as="geometry">
                        <mxPoint x="-16" y="-181" as="offset"/>
                    </mxGeometry>
                </mxCell>
                <mxCell id="58" style="edgeStyle=none;html=1;strokeWidth=3;fontSize=16;fontColor=#FF0000;startArrow=none;startFill=0;entryX=0.75;entryY=1;entryDx=0;entryDy=0;exitX=0.75;exitY=0;exitDx=0;exitDy=0;" parent="1" source="95" target="19" edge="1">
                    <mxGeometry relative="1" as="geometry">
                        <mxPoint x="210" y="680" as="sourcePoint"/>
                        <mxPoint x="710" y="290" as="targetPoint"/>
                    </mxGeometry>
                </mxCell>
                <mxCell id="59" value="&lt;font color=&quot;#3399ff&quot; style=&quot;font-size: 25px;&quot;&gt;Gradients&lt;/font&gt;" style="edgeLabel;html=1;align=center;verticalAlign=middle;resizable=0;points=[];fontSize=25;fontColor=#FF3333;" parent="58" vertex="1" connectable="0">
                    <mxGeometry x="0.0235" y="3" relative="1" as="geometry">
                        <mxPoint x="28" y="34" as="offset"/>
                    </mxGeometry>
                </mxCell>
                <mxCell id="60" style="edgeStyle=none;html=1;strokeWidth=3;fontSize=16;fontColor=#FF0000;startArrow=none;startFill=0;exitX=0.25;exitY=1;exitDx=0;exitDy=0;entryX=0.25;entryY=0;entryDx=0;entryDy=0;" parent="1" source="19" target="95" edge="1">
                    <mxGeometry relative="1" as="geometry">
                        <mxPoint x="532.3799999999999" y="291.1600000000001" as="sourcePoint"/>
                        <mxPoint x="20" y="640" as="targetPoint"/>
                    </mxGeometry>
                </mxCell>
                <mxCell id="61" value="Swap partner" style="edgeLabel;html=1;align=center;verticalAlign=middle;resizable=0;points=[];fontSize=25;fontColor=#FF3333;" parent="60" vertex="1" connectable="0">
                    <mxGeometry x="0.0362" y="2" relative="1" as="geometry">
                        <mxPoint x="-26" y="-76" as="offset"/>
                    </mxGeometry>
                </mxCell>
                <mxCell id="62" style="edgeStyle=none;html=1;strokeWidth=3;fontSize=16;fontColor=#FF0000;startArrow=none;startFill=0;exitX=0.5;exitY=1;exitDx=0;exitDy=0;entryX=0.5;entryY=0;entryDx=0;entryDy=0;" parent="1" source="19" target="95" edge="1">
                    <mxGeometry relative="1" as="geometry">
                        <mxPoint x="610.7" y="292.1600000000001" as="sourcePoint"/>
                        <mxPoint x="100" y="681" as="targetPoint"/>
                    </mxGeometry>
                </mxCell>
                <mxCell id="63" value="Generated&lt;br style=&quot;font-size: 25px;&quot;&gt;batches" style="edgeLabel;html=1;align=center;verticalAlign=middle;resizable=0;points=[];fontSize=25;fontColor=#FF3333;" parent="62" vertex="1" connectable="0">
                    <mxGeometry x="0.0984" relative="1" as="geometry">
                        <mxPoint x="-6" y="-26" as="offset"/>
                    </mxGeometry>
                </mxCell>
                <mxCell id="57" value="&lt;span style=&quot;font-size: 25px;&quot;&gt;Google Cloud Compute Engine&lt;/span&gt;&lt;br style=&quot;border-color: var(--border-color); font-size: 25px;&quot;&gt;&lt;span style=&quot;font-size: 25px;&quot;&gt;10.186.0.2&lt;/span&gt;&lt;br style=&quot;border-color: var(--border-color); font-size: 25px;&quot;&gt;&lt;font style=&quot;border-color: var(--border-color); font-size: 25px;&quot; color=&quot;#ff3333&quot;&gt;europe-west4-b&lt;br style=&quot;border-color: var(--border-color);&quot;&gt;&lt;/font&gt;" style="text;html=1;align=center;verticalAlign=middle;resizable=0;points=[];autosize=1;strokeColor=none;fillColor=none;" parent="1" vertex="1">
                    <mxGeometry x="-75.00500000000001" y="990" width="370" height="100" as="geometry"/>
                </mxCell>
                <mxCell id="115" value="Virtual Private Cloud (VPC)" style="text;html=1;strokeColor=none;fillColor=none;align=center;verticalAlign=middle;whiteSpace=wrap;rounded=0;fontSize=31;fontColor=#000000;fontStyle=1" parent="1" vertex="1">
                    <mxGeometry x="-170" y="-150" width="420" height="30" as="geometry"/>
                </mxCell>
            </root>
        </mxGraphModel>
    </diagram>
</mxfile>